<svg id="Organic_Traffic_Generate" data-name="Organic Traffic Generate" xmlns="http://www.w3.org/2000/svg" xmlns:xlink="http://www.w3.org/1999/xlink" width="167.456" height="142.663" viewBox="0 0 167.456 142.663">
  <defs>
    <clipPath id="clip-path">
      <rect id="Rectangle_3837" data-name="Rectangle 3837" width="167.456" height="142.663" fill="none"/>
    </clipPath>
    <clipPath id="clip-path-2">
      <rect id="Rectangle_3814" data-name="Rectangle 3814" width="167.455" height="142.663" fill="none"/>
    </clipPath>
    <clipPath id="clip-path-3">
      <path id="Path_12353" data-name="Path 12353" d="M801.224,296.663v40.3a5.964,5.964,0,0,0,5.964,5.964H873.43a5.964,5.964,0,0,0,5.964-5.964v-40.3Z" transform="translate(-801.224 -296.663)" fill="#afc7fc"/>
    </clipPath>
    <clipPath id="clip-path-4">
      <rect id="Rectangle_3815" data-name="Rectangle 3815" width="84.09" height="46.863" fill="none"/>
    </clipPath>
    <clipPath id="clip-path-5">
      <rect id="Rectangle_3816" data-name="Rectangle 3816" width="65.765" height="55.468" fill="none"/>
    </clipPath>
    <clipPath id="clip-path-6">
      <rect id="Rectangle_3817" data-name="Rectangle 3817" width="11.014" height="10.948" fill="none"/>
    </clipPath>
    <clipPath id="clip-path-8">
      <rect id="Rectangle_3823" data-name="Rectangle 3823" width="6.45" height="15.282" fill="none"/>
    </clipPath>
    <clipPath id="clip-path-9">
      <rect id="Rectangle_3827" data-name="Rectangle 3827" width="19.653" height="18.641" fill="none"/>
    </clipPath>
    <clipPath id="clip-path-10">
      <rect id="Rectangle_3829" data-name="Rectangle 3829" width="2.439" height="2.439" fill="none"/>
    </clipPath>
    <clipPath id="clip-path-11">
      <rect id="Rectangle_3830" data-name="Rectangle 3830" width="0.768" height="1.938" fill="none"/>
    </clipPath>
    <clipPath id="clip-path-12">
      <rect id="Rectangle_3831" data-name="Rectangle 3831" width="5.29" height="4.35" fill="none"/>
    </clipPath>
  </defs>
  <g id="Group_7526" data-name="Group 7526" clip-path="url(#clip-path)">
    <g id="Group_7497" data-name="Group 7497">
      <g id="Group_7496" data-name="Group 7496" clip-path="url(#clip-path-2)">
        <path id="Path_12341" data-name="Path 12341" d="M399.807,437.718l-.178-.186,1.119-1.067.178.186Zm2.234-2.141-.181-.184c.363-.358.728-.727,1.084-1.1l.186.179c-.357.372-.724.743-1.089,1.1m2.147-2.235-.191-.174c.342-.375.686-.764,1.023-1.155l.2.169c-.339.392-.685.782-1.028,1.159M406.214,431l-.2-.164c.322-.392.646-.8.964-1.2l.2.159c-.319.409-.645.816-.968,1.21m1.907-2.442-.207-.154c.3-.406.608-.827.907-1.248l.21.149c-.3.424-.607.845-.911,1.253m1.794-2.526-.214-.145q.433-.639.853-1.287l.216.14q-.421.65-.856,1.291m14.12-1.787a3.774,3.774,0,0,1-1.389-.265l.1-.239a3.518,3.518,0,0,0,1.293.246c.064-.006.111,0,.167,0l.013.257c-.06,0-.131,0-.18,0m1.711-.441-.129-.223a2.8,2.8,0,0,0,1.028-1.038l.224.128a3.055,3.055,0,0,1-1.123,1.133M411.6,423.43l-.219-.136q.407-.656.8-1.32l.221.132q-.4.666-.8,1.324m9.74-.359a4.52,4.52,0,0,1-.848-1.337l.238-.1a4.269,4.269,0,0,0,.8,1.261Zm5.955-1.938-.258-.005v-.069a2.676,2.676,0,0,0-.228-1.094q-.058-.129-.128-.251l.224-.127q.075.133.139.272a2.934,2.934,0,0,1,.25,1.2Zm-14.01-.27-.2-.166a9.8,9.8,0,0,1,1.1-1.116l.169.195a9.557,9.557,0,0,0-1.069,1.086m6.808-.655a6.264,6.264,0,0,1-.044-.746,6.616,6.616,0,0,1,.052-.828l.256.032a6.366,6.366,0,0,0-.051.8,5.988,5.988,0,0,0,.043.715Zm-4.51-1.333-.136-.219a10.609,10.609,0,0,1,1.388-.722l.1.237a10.351,10.351,0,0,0-1.354.7m10.109-.266a5.667,5.667,0,0,0-1.317-.733l.1-.239a5.917,5.917,0,0,1,1.377.767Zm-7.313-.941-.068-.249a11.079,11.079,0,0,1,1.534-.3l.032.256a10.827,10.827,0,0,0-1.5.3m4.537-.214a9.341,9.341,0,0,0-1.515-.159l.006-.258a9.621,9.621,0,0,1,1.557.164Zm-2.2-.26-.243-.087a7.709,7.709,0,0,1,.68-1.415l.22.135a7.453,7.453,0,0,0-.658,1.368m1.575-2.577-.189-.175q.113-.121.231-.238a8.4,8.4,0,0,1,.943-.8l.152.208a8.1,8.1,0,0,0-.914.778q-.114.113-.223.23m2.439-1.8-.115-.231a9.61,9.61,0,0,1,1.455-.578l.075.246a9.38,9.38,0,0,0-1.416.563m2.907-.947-.064-.25c.5-.129,1.005-.264,1.49-.4l.07.248c-.487.138-.99.274-1.5.4m2.981-.847-.077-.246c.5-.156.99-.32,1.464-.485l.085.243c-.477.167-.972.331-1.472.488M433.544,410l-.093-.24c.483-.187.962-.384,1.426-.584l.1.237c-.467.2-.95.4-1.435.587m2.848-1.23-.112-.232,1.39-.675.113.232Zm2.782-1.352-.113-.232,1.391-.676.113.232Zm2.781-1.352-.113-.232,1.391-.676.113.232Zm2.781-1.352-.113-.232,1.391-.676.113.232Zm2.781-1.352-.113-.232,1.391-.676.113.232Z" transform="translate(-358.431 -360.967)" fill="#9192ff"/>
        <path id="Path_12342" data-name="Path 12342" d="M27.948,637.77H0l0-.1a4.47,4.47,0,0,1,4.6-4.217,4.853,4.853,0,0,1,2.063.459,5.033,5.033,0,0,1,2.448-4.33,4.861,4.861,0,0,1,3.724-.471A5.448,5.448,0,0,1,16.16,631.7a5.611,5.611,0,0,1,.731,2.293,10.176,10.176,0,0,1,4.051-.8c3.872,0,7.022,1.951,7.022,4.349a1.2,1.2,0,0,1-.006.14ZM.2,637.577H27.77v-.032c0-2.292-3.063-4.156-6.828-4.156a9.914,9.914,0,0,0-4.1.834l-.127.058-.009-.14a5.413,5.413,0,0,0-.717-2.348,5.256,5.256,0,0,0-3.2-2.5,4.671,4.671,0,0,0-3.577.452,4.851,4.851,0,0,0-2.351,4.317l0,.161-.144-.074a4.648,4.648,0,0,0-2.116-.507A4.285,4.285,0,0,0,.2,637.577" transform="translate(0 -564.099)" fill="#9192ff"/>
      </g>
    </g>
    <g id="Group_7508" data-name="Group 7508" transform="translate(82.598 30.583)">
      <g id="Group_7507" data-name="Group 7507" clip-path="url(#clip-path-3)">
        <path id="Path_12343" data-name="Path 12343" d="M801.224,336.966a5.964,5.964,0,0,0,5.964,5.964H873.43a5.964,5.964,0,0,0,5.964-5.964v-40.3h-78.17Z" transform="translate(-801.224 -296.662)" fill="#fff"/>
        <path id="Path_12344" data-name="Path 12344" d="M663.292,349.043a8.062,8.062,0,0,1,6.963-5.417,8.2,8.2,0,0,1,7.764,4.306,4.832,4.832,0,0,1,4.153,2.337,4.494,4.494,0,0,1-.145,4.638,6.56,6.56,0,0,1,4.684,3.433,6.154,6.154,0,0,1-.126,5.674,7.532,7.532,0,0,1,7.133.258,7.015,7.015,0,0,1,3.371,6.084,7.5,7.5,0,0,1,12.89.587,11.924,11.924,0,0,1,8.375-7.587,12.425,12.425,0,0,1,11.119,2.818c4.36.682,7.538,5.416,6.4,9.537a8.8,8.8,0,0,1,3.067,8.073,9,9,0,0,1-5.532,6.722l-75.017-.049L652,361.838Z" transform="translate(-667.383 -338.766)" fill="#d8e4ff"/>
        <g id="Group_7500" data-name="Group 7500" transform="translate(-16.201 14.339)" opacity="0.8">
          <g id="Group_7499" data-name="Group 7499">
            <g id="Group_7498" data-name="Group 7498" clip-path="url(#clip-path-4)">
              <path id="Path_12345" data-name="Path 12345" d="M654.986,441.2a7.661,7.661,0,0,1,14.23-1.122,4.533,4.533,0,0,1,3.867,6.972,6.24,6.24,0,0,1,4.4,9.1,6.921,6.921,0,0,1,10.144,6.334,7.127,7.127,0,0,1,12.453.577,11.482,11.482,0,0,1,18.838-4.785,7.98,7.98,0,0,1,6.177,9.532,8.779,8.779,0,0,1-2.393,14.8l-72.477.011L644.066,454Z" transform="translate(-644.066 -435.752)" fill="#fff"/>
            </g>
          </g>
        </g>
        <g id="Group_7503" data-name="Group 7503" transform="translate(-5.453 1.29)" opacity="0.7">
          <g id="Group_7502" data-name="Group 7502">
            <g id="Group_7501" data-name="Group 7501" clip-path="url(#clip-path-5)">
              <path id="Path_12346" data-name="Path 12346" d="M806.122,309.179c-21.712,20.418-37.108,25.923-56.5,27.892l-1.289,20.618,20.36,6.959c17.783-.515,34.858-26.259,45.405-48.344Z" transform="translate(-748.329 -309.179)" fill="#fff"/>
            </g>
          </g>
        </g>
        <path id="Path_12347" data-name="Path 12347" d="M1206.945,311.753c-3.53,4.176-8.854,8.171-15.133,13.566l8.567-3.492a58.368,58.368,0,0,1-3.438,5.222,28.92,28.92,0,0,0,6.2-3.98c0,1.484-1.788,3.965-2.567,5.321,4.57-3.911,8.727-8.686,10.07-12.88Z" transform="translate(-1151.547 -310.197)" fill="#fff"/>
        <g id="Group_7506" data-name="Group 7506" transform="translate(47.492 1.767)" opacity="0.4">
          <g id="Group_7505" data-name="Group 7505">
            <g id="Group_7504" data-name="Group 7504" clip-path="url(#clip-path-6)">
              <path id="Path_12348" data-name="Path 12348" d="M1270.817,313.8c-2.088,2.768-5.213,5.436-8.907,9.03l5-2.372c-.627,1.15-1.538,2.759-2.046,3.451a17.5,17.5,0,0,0,3.636-2.667c-.016.97-1.077,2.612-1.542,3.507,2.688-2.605,5.145-5.771,5.966-8.528Z" transform="translate(-1261.91 -313.801)" fill="#fff"/>
            </g>
          </g>
        </g>
        <path id="Path_12349" data-name="Path 12349" d="M1005.753,433.083c.028.646,0,1.735-.645,2.108-1.077.623-1.923-.89-2.318-1.651a1.636,1.636,0,0,1,.715-2.44c1.408-.535,2.2.778,2.249,1.982" transform="translate(-981.775 -417.131)" fill="#d1d1ff"/>
        <path id="Path_12350" data-name="Path 12350" d="M1500.873,623.191c.028.645,0,1.735-.646,2.108-1.077.623-1.923-.89-2.318-1.651a1.636,1.636,0,0,1,.715-2.44c1.408-.535,2.2.778,2.249,1.982" transform="translate(-1425.853 -587.641)" fill="#d1d1ff"/>
        <path id="Path_12351" data-name="Path 12351" d="M971.383,372.721a.9.9,0,1,1-.9-.9.9.9,0,0,1,.9.9" transform="translate(-952.223 -364.071)" fill="#d1d1ff"/>
        <path id="Path_12352" data-name="Path 12352" d="M1412.753,526.535a1.373,1.373,0,1,1-1.374-1.373,1.374,1.374,0,0,1,1.374,1.373" transform="translate(-1347.247 -501.606)" fill="#d1d1ff"/>
      </g>
    </g>
    <g id="Group_7525" data-name="Group 7525">
      <g id="Group_7524" data-name="Group 7524" clip-path="url(#clip-path-2)">
        <path id="Path_12354" data-name="Path 12354" d="M872.309,341.937H806.067a6.1,6.1,0,0,1-6.093-6.093V295.412H878.4v40.432a6.1,6.1,0,0,1-6.093,6.093M800.232,295.67v40.175a5.842,5.842,0,0,0,5.835,5.835h66.242a5.842,5.842,0,0,0,5.835-5.835V295.67Z" transform="translate(-717.505 -264.958)" fill="#9192ff"/>
        <path id="Path_12355" data-name="Path 12355" d="M873.43,145.2H807.188a5.964,5.964,0,0,0-5.964,5.964v9.651h78.17v-9.651a5.964,5.964,0,0,0-5.964-5.964" transform="translate(-718.626 -130.227)" fill="#fff"/>
        <path id="Path_12356" data-name="Path 12356" d="M878.4,159.817H799.974v-9.78a6.1,6.1,0,0,1,6.093-6.093h66.242a6.1,6.1,0,0,1,6.093,6.093Zm-78.17-.258h77.912v-9.522a5.842,5.842,0,0,0-5.835-5.835H806.067a5.842,5.842,0,0,0-5.835,5.835Z" transform="translate(-717.505 -129.106)" fill="#9192ff"/>
        <path id="Path_12357" data-name="Path 12357" d="M852.432,190.122a3.27,3.27,0,1,1-3.27-3.27,3.27,3.27,0,0,1,3.27,3.27" transform="translate(-758.69 -167.59)" fill="#d8e4ff"/>
        <path id="Path_12358" data-name="Path 12358" d="M945.852,192.482a3.27,3.27,0,1,1-3.27-3.27,3.27,3.27,0,0,1,3.27,3.27" transform="translate(-842.48 -169.706)" fill="#fff"/>
        <path id="Path_12359" data-name="Path 12359" d="M941.461,194.759a3.4,3.4,0,1,1,3.4-3.4,3.4,3.4,0,0,1-3.4,3.4m0-6.539a3.141,3.141,0,1,0,3.141,3.141,3.144,3.144,0,0,0-3.141-3.141" transform="translate(-841.358 -168.585)" fill="#9192ff"/>
        <path id="Path_12360" data-name="Path 12360" d="M1072.049,196.9h-13.019a3.121,3.121,0,0,1-3.121-3.121h0a3.121,3.121,0,0,1,3.121-3.121h13.019a3.121,3.121,0,0,1,3.121,3.121h0a3.121,3.121,0,0,1-3.121,3.121" transform="translate(-947.057 -171.001)" fill="#fff"/>
        <path id="Path_12361" data-name="Path 12361" d="M1070.928,195.9H1057.91a3.25,3.25,0,0,1,0-6.5h13.019a3.25,3.25,0,1,1,0,6.5m-13.019-6.242a2.992,2.992,0,0,0,0,5.984h13.019a2.992,2.992,0,1,0,0-5.984Z" transform="translate(-945.936 -169.879)" fill="#9192ff"/>
        <path id="Path_12362" data-name="Path 12362" d="M1322.1,76.195c-5.22,4.57-14.224,1.42-17.022,5.069l7.995,6.331Z" transform="translate(-1170.534 -68.34)" fill="#1d77fe"/>
        <path id="Path_12363" data-name="Path 12363" d="M1303.355,125.367h0a3.09,3.09,0,0,0,.565,3.119l5.665,6.489,1.765-3.278Z" transform="translate(-1168.815 -112.443)" fill="#d1d1ff"/>
        <path id="Path_12364" data-name="Path 12364" d="M1506.427,167.082c-3.251,6.129,1.878,14.171-1.032,17.731l-7.995-6.331Z" transform="translate(-1343.034 -149.858)" fill="#1d77fe"/>
        <path id="Path_12365" data-name="Path 12365" d="M1481.158,283.995h0a3.09,3.09,0,0,1-3.166.165l-7.615-4.027,2.786-2.469Z" transform="translate(-1318.797 -249.04)" fill="#d1d1ff"/>
        <path id="Path_12366" data-name="Path 12366" d="M1562.439,0l-7.118,2.613,6.206,4.914Z" transform="translate(-1394.983 0)" fill="#1b1b43"/>
        <path id="Path_12367" data-name="Path 12367" d="M1366.391,30.261c-.994,11.263-9.316,21.772-19.424,27.61l-9.211-7.286c3.865-12.16,11.063-20.861,22.429-25.238Z" transform="translate(-1199.847 -22.734)" fill="#d8e4ff"/>
        <path id="Path_12368" data-name="Path 12368" d="M1303,270.163l-4,2.766,11.428,9.049,1.778-4.53Z" transform="translate(-1165.088 -242.312)" fill="#1d77fe"/>
        <path id="Path_12369" data-name="Path 12369" d="M1495.557,85.386a4.275,4.275,0,1,1-.7-6.005,4.275,4.275,0,0,1,.7,6.005" transform="translate(-1334.541 -70.369)" fill="#fff"/>
        <path id="Path_12370" data-name="Path 12370" d="M1503.316,96.511l-.027-.256a2.806,2.806,0,0,0,.716-.174l.093.24a3.051,3.051,0,0,1-.782.19m-.8-.02a3.017,3.017,0,0,1-.771-.231l.106-.235a2.772,2.772,0,0,0,.705.211Zm2.292-.558-.153-.207a2.8,2.8,0,0,0,.529-.513l.2.16a3.037,3.037,0,0,1-.578.56m-3.746-.1a3.047,3.047,0,0,1-.549-.589l.21-.149a2.794,2.794,0,0,0,.5.539Zm4.639-.946-.228-.119a2.779,2.779,0,0,0,.251-.693l.252.055a3.037,3.037,0,0,1-.274.757m-5.563-.355a3.063,3.063,0,0,1-.175-.786l.257-.023a2.809,2.809,0,0,0,.161.719Zm5.646-1.192a2.819,2.819,0,0,0-.134-.725l.245-.08a3.063,3.063,0,0,1,.146.791Zm-5.532-.353-.254-.045a3.021,3.021,0,0,1,.246-.767l.233.111a2.775,2.775,0,0,0-.224.7m5.08-1.036a2.785,2.785,0,0,0-.482-.557l.171-.193a3.042,3.042,0,0,1,.527.609Zm-4.454-.283-.2-.167a3.043,3.043,0,0,1,.6-.538l.146.213a2.787,2.787,0,0,0-.548.493m3.362-.686a2.774,2.774,0,0,0-.7-.238l.05-.253a3.04,3.04,0,0,1,.762.26Zm-2.155-.137-.084-.244a3.069,3.069,0,0,1,.788-.161l.018.257a2.81,2.81,0,0,0-.722.147" transform="translate(-1345.327 -81.118)" fill="#9192ff"/>
        <path id="Path_12371" data-name="Path 12371" d="M1321.014,279.755l-.2-.161a.7.7,0,0,1-.113-.974l8.017-10.124a.7.7,0,0,1,.974-.113l.2.161a.7.7,0,0,1,.113.974l-8.017,10.124a.7.7,0,0,1-.974.113" transform="translate(-1184.413 -240.582)" fill="#1b1b43"/>
        <path id="Path_12372" data-name="Path 12372" d="M1151.118,991.269h-1.546v-.258h1.546Zm-3.093,0h-1.546v-.258h1.546Zm-3.093,0h-1.546v-.258h1.546Zm-3.093,0h-1.546v-.258h1.546Zm-3.093,0H1137.2v-.258h1.546Zm-3.093,0h-1.546v-.258h1.546Zm-3.093,0h-1.546v-.258h1.546Zm-3.093,0h-1.546v-.258h1.546Zm-3.093,0h-1.546v-.258h1.546Zm-3.093,0h-1.546v-.258h1.546Zm-3.094,0a4.927,4.927,0,0,1-1.558-.266l.083-.244a4.677,4.677,0,0,0,1.477.252Zm31.114,0-.01-.258a4.672,4.672,0,0,0,1.469-.294l.091.241a4.936,4.936,0,0,1-1.55.31m-34.066-1.009a4.967,4.967,0,0,1-1.088-1.147l.213-.145a4.7,4.7,0,0,0,1.031,1.087Zm36.987-.087-.162-.2a4.7,4.7,0,0,0,1-1.116l.217.139a4.96,4.96,0,0,1-1.055,1.177m-38.745-2.491a4.948,4.948,0,0,1-.188-1.353v-.211h.258v.211a4.7,4.7,0,0,0,.178,1.283Zm40.43-.135-.25-.063a4.709,4.709,0,0,0,.143-1.154v-.348h.258v.348a4.964,4.964,0,0,1-.151,1.218m-40.36-2.975h-.258v-1.546h.258Zm40.511-.137h-.258v-1.546h.258Zm-40.511-2.956h-.258V979.93h.258Zm40.511-.137h-.258v-1.546h.258Zm-40.511-2.956h-.258v-1.546h.258Zm40.511-.137h-.258V976.7h.258Zm-40.511-2.956h-.258v-1.546h.258Zm40.511-.137h-.258v-1.546h.258ZM1115.55,972.2h-.258v-1.546h.258Zm40.511-.137h-.258v-1.546h.258Zm-40.511-2.956h-.258v-1.03a5,5,0,0,1,.028-.529l.256.027a4.787,4.787,0,0,0-.026.5Zm40.511-.137h-.258v-.893a4.8,4.8,0,0,0-.042-.634l.255-.034a5.018,5.018,0,0,1,.045.668Zm-40.089-2.84-.235-.107a4.953,4.953,0,0,1,.879-1.314l.189.176a4.68,4.68,0,0,0-.833,1.246m39.352-.12a4.705,4.705,0,0,0-.868-1.221l.184-.181a4.945,4.945,0,0,1,.915,1.288Zm-37.337-2.046-.124-.226a4.907,4.907,0,0,1,1.49-.527l.046.254a4.648,4.648,0,0,0-1.412.5m35.262-.062a4.653,4.653,0,0,0-1.426-.459l.038-.255a4.908,4.908,0,0,1,1.5.484Zm-2.95-.511h-1.546v-.258h1.546Zm-3.093,0h-1.546v-.258h1.546Zm-3.093,0h-1.546v-.258h1.546Zm-3.093,0h-1.546v-.258h1.546Zm-3.093,0h-1.546v-.258h1.546Zm-3.093,0h-1.546v-.258h1.546Zm-3.093,0H1130.2v-.258h1.546Zm-3.093,0H1127.1v-.258h1.546Zm-3.093,0h-1.546v-.258h1.546Zm-3.093,0h-1.546v-.258h1.546Z" transform="translate(-1000.317 -863.843)" fill="#9192ff"/>
        <path id="Path_12373" data-name="Path 12373" d="M1116.1,943.5h-32.9a3.805,3.805,0,0,1-3.805-3.805V918.658a3.805,3.805,0,0,1,3.805-3.805h32.9a3.805,3.805,0,0,1,3.805,3.805v21.037a3.805,3.805,0,0,1-3.805,3.805" transform="translate(-968.119 -820.541)" fill="#1d77fe"/>
        <rect id="Rectangle_3818" data-name="Rectangle 3818" width="4.386" height="8.908" transform="translate(118.318 111.045)" fill="#fff"/>
        <rect id="Rectangle_3819" data-name="Rectangle 3819" width="4.386" height="8.622" transform="translate(125.664 111.331)" fill="#fff"/>
        <rect id="Rectangle_3820" data-name="Rectangle 3820" width="4.386" height="13.126" transform="translate(133.009 106.827)" fill="#fff"/>
        <rect id="Rectangle_3821" data-name="Rectangle 3821" width="4.386" height="16.977" transform="translate(140.355 102.976)" fill="#fff"/>
        <rect id="Rectangle_3822" data-name="Rectangle 3822" width="23.536" height="1.029" transform="translate(119.762 98.346)" fill="#fff"/>
        <g id="Group_7511" data-name="Group 7511" transform="translate(42.737 59.256)" opacity="0.3">
          <g id="Group_7510" data-name="Group 7510">
            <g id="Group_7509" data-name="Group 7509" clip-path="url(#clip-path-8)">
              <path id="Path_12374" data-name="Path 12374" d="M419.925,581.89a12.217,12.217,0,0,0-4.491-6.449l-.87-.641.739,15.282,5.711-4.418Z" transform="translate(-414.564 -574.8)" fill="#095cd3"/>
            </g>
          </g>
        </g>
        <path id="Path_12375" data-name="Path 12375" d="M444.7,694.878l-1.269-2.485a2.522,2.522,0,0,0-1.573-1.284l-3.733-1.034-9.6-6.132-1.086-3.764-5.711,4.418.052,1.073a5.647,5.647,0,0,0,3.4,4.913l9.325,4.023,4.432.1c1.428.492,1.921,1.724,2.807,1.281.33-.165-.96-2.29-.96-2.29l2.142,2.364Z" transform="translate(-378.252 -610.061)" fill="#ffbc96"/>
        <rect id="Rectangle_3824" data-name="Rectangle 3824" width="1.939" height="0.296" transform="matrix(0.647, -0.762, 0.762, 0.647, 48.905, 75.266)" fill="#d28572"/>
        <path id="Path_12376" data-name="Path 12376" d="M482.573,877.17l6.987-.617a8.241,8.241,0,0,1,8.726,8.1l1.579,34.412-9.638.3Z" transform="translate(-432.825 -786.162)" fill="#0c5ebf"/>
        <path id="Path_12377" data-name="Path 12377" d="M564.339,1280.656l.3,9.505h14.283l-7.043-5.861-.443-4.58Z" transform="translate(-506.161 -1147.795)" fill="#0c5ebf"/>
        <rect id="Rectangle_3825" data-name="Rectangle 3825" width="3.793" height="0.591" transform="translate(62.528 138.587) rotate(-37.616)" fill="#0c5ebf"/>
        <path id="Path_12378" data-name="Path 12378" d="M532.807,1280.656l.3,9.505h14.283l-7.043-5.861-.443-4.58Z" transform="translate(-477.88 -1147.795)" fill="#d1d1ff"/>
        <rect id="Rectangle_3826" data-name="Rectangle 3826" width="3.793" height="0.591" transform="translate(59.278 138.587) rotate(-37.616)" fill="#fff"/>
        <path id="Path_12379" data-name="Path 12379" d="M257.46,883.945H245.64l-8.425-25.922-1.179-3.629-16.844-.074a4.661,4.661,0,0,1-2.881-1.209,6.858,6.858,0,0,1-2.29-6.2l1.478-10.541,25.023,3.254a11.238,11.238,0,0,1,9.554,8.853Z" transform="translate(-191.895 -750.147)" fill="#1d77fe"/>
        <path id="Path_12380" data-name="Path 12380" d="M431.652,1011.225l-2.293,3.629-1.179-3.629Z" transform="translate(-384.039 -906.978)" fill="#1b1b43"/>
        <path id="Path_12381" data-name="Path 12381" d="M216.037,592.143c-.121.488-.248.975-.378,1.466l-.887,3.62-11.672-.485-8.4-.349a3.61,3.61,0,0,1-3.386-4.344l3.918-18.856a7.158,7.158,0,0,1,6.336-6.008l9.589-.987,3.1.887c3.029,1.625,3.032,4.571,3.177,6.5a53.5,53.5,0,0,1-1.395,18.555" transform="translate(-171.518 -507.832)" fill="#095cd3"/>
        <g id="Group_7514" data-name="Group 7514" transform="translate(24.49 70.757)" opacity="0.3">
          <g id="Group_7513" data-name="Group 7513">
            <g id="Group_7512" data-name="Group 7512" clip-path="url(#clip-path-9)">
              <path id="Path_12382" data-name="Path 12382" d="M249.673,699.316c-.121.488,7.665,1.578,7.535,2.069l-.887,3.62-11.672-.485c-4.078-3.076-5.606-9.769-7.092-18.156Z" transform="translate(-237.557 -686.364)" fill="#095cd3"/>
            </g>
          </g>
        </g>
        <path id="Path_12383" data-name="Path 12383" d="M331.811,619.11a7.022,7.022,0,0,0,1.744,1.383,5.764,5.764,0,0,0,2.084.7,3.507,3.507,0,0,0,2.121-.312,2.181,2.181,0,0,0,1.139-1.742l.115.008a2.385,2.385,0,0,1-.294,1.125,2.24,2.24,0,0,1-.834.834,3.645,3.645,0,0,1-2.285.377,5.682,5.682,0,0,1-2.172-.778,6.136,6.136,0,0,1-1.708-1.525Z" transform="translate(-297.525 -555.286)" fill="#095cd3"/>
        <path id="Path_12384" data-name="Path 12384" d="M440.4,635.953l-.221-.016a50.75,50.75,0,0,0-.639-10.86l.219-.033a50.96,50.96,0,0,1,.641,10.909" transform="translate(-394.226 -560.608)" fill="#095cd3"/>
        <rect id="Rectangle_3828" data-name="Rectangle 3828" width="10.983" height="2.167" transform="translate(55.025 85.827)" fill="#1b1b43"/>
        <path id="Path_12385" data-name="Path 12385" d="M632.745,684.739H610.68l10.146-19.4h22.065Z" transform="translate(-547.726 -596.745)" fill="#d8e4ff"/>
        <path id="Path_12386" data-name="Path 12386" d="M250.835,403.841c-2.586-2.549-7.462-1.477-7.388,2.807-5.319,1.4-5.615,7.24-3.472,10.232l1.847.148.406-2.179,1.071,2.216,5.171.333Z" transform="translate(-214.119 -360.985)" fill="#1b1b43"/>
        <path id="Path_12387" data-name="Path 12387" d="M332.495,508.154V516.3c0,.074,0,.145-.009.216a2.733,2.733,0,0,1-3.407,2.432,5.5,5.5,0,0,1-4.122-5.366l.041-5.423Z" transform="translate(-291.457 -455.769)" fill="#ffbc96"/>
        <path id="Path_12388" data-name="Path 12388" d="M351.8,535.455v4.622c0,.074,0,.145-.009.216-2.178-.358-4.7-2.878-5.31-5.624Z" transform="translate(-310.766 -479.55)" fill="#1b1b43"/>
        <path id="Path_12389" data-name="Path 12389" d="M336.284,451.218a14.667,14.667,0,0,1-.464,1.938c-.65,2.066-1.817,3.78-3.907,3.481-4.911-.7-7.645-5.762-7.645-5.762l3.36-3.842L329.884,444l6.758,2.92a25.417,25.417,0,0,1-.358,4.3" transform="translate(-290.84 -398.23)" fill="#ffbc96"/>
        <path id="Path_12390" data-name="Path 12390" d="M309.255,417.833c2.155-.069,3.823-1.167,4.531-4.285,0,0,5.024,4.334,7.486,2.019,2.062-1.938-1.436-6.4-7.227-6.929a8.2,8.2,0,0,0-5.865,1.79c-2.806,2.249-3.075,7.479-.452,9.289Z" transform="translate(-274.373 -366.482)" fill="#1b1b43"/>
        <path id="Path_12391" data-name="Path 12391" d="M313.323,414.239a2.3,2.3,0,0,1,.192-1.559,3.463,3.463,0,0,1,1.012-1.245,3.563,3.563,0,0,1,1.448-.677,2.609,2.609,0,0,1,1.56.12,8.641,8.641,0,0,0-1.336.54,7.244,7.244,0,0,0-1.129.717,6.538,6.538,0,0,0-.966.914,5.423,5.423,0,0,0-.78,1.19" transform="translate(-280.966 -368.354)" fill="#ffa121"/>
        <path id="Path_12392" data-name="Path 12392" d="M318.57,483.561a1.711,1.711,0,1,1-2.315-1.261,1.881,1.881,0,0,1,2.315,1.261" transform="translate(-282.775 -432.49)" fill="#ffbc96"/>
        <path id="Path_12393" data-name="Path 12393" d="M326.9,495.12a2.407,2.407,0,0,0-.065-1.014,2.759,2.759,0,0,0-.531-.87l.073-.09a1.474,1.474,0,0,1,.635,2.007Z" transform="translate(-292.666 -442.308)" fill="#1b1b43"/>
        <path id="Path_12394" data-name="Path 12394" d="M401.707,496.915a.5.5,0,1,1-.5-.552.528.528,0,0,1,.5.552" transform="translate(-359.4 -445.193)" fill="#1b1b43"/>
        <path id="Path_12395" data-name="Path 12395" d="M428.1,501.2a.447.447,0,1,1-.381-.542.47.47,0,0,1,.381.542" transform="translate(-383.175 -449.039)" fill="#1b1b43"/>
        <path id="Path_12396" data-name="Path 12396" d="M392.444,485.011c.02.258-.393.283-1,.3s-1.029.206-1.033.043.445-.582,1.045-.684c.619-.1.966.033.989.34" transform="translate(-350.162 -434.675)" fill="#1b1b43"/>
        <path id="Path_12397" data-name="Path 12397" d="M428.961,487.916c-.045.254.259.32.709.4s.74.307.762.146a1.093,1.093,0,0,0-.7-.783c-.448-.166-.721-.064-.774.239" transform="translate(-384.736 -437.332)" fill="#1b1b43"/>
        <path id="Path_12398" data-name="Path 12398" d="M421.1,510.394a4.309,4.309,0,0,0,.375.388l.2.185a1.126,1.126,0,0,1,.21.235.424.424,0,0,1,.063.2.39.39,0,0,1-.049.209.729.729,0,0,1-.238.241,1.49,1.49,0,0,1-.553.2l-.043-.107a4.088,4.088,0,0,0,.44-.3.569.569,0,0,0,.138-.165c.023-.049.016-.066-.011-.123-.066-.108-.233-.251-.342-.4a1.679,1.679,0,0,1-.29-.5Z" transform="translate(-377.598 -457.778)" fill="#1b1b43"/>
        <path id="Path_12399" data-name="Path 12399" d="M396.87,528.038a3.7,3.7,0,0,0,.995.866,2.084,2.084,0,0,0,1.256.218l.031.111a1.551,1.551,0,0,1-.714.135,1.633,1.633,0,0,1-.713-.206,2.285,2.285,0,0,1-.952-1.062Z" transform="translate(-355.87 -473.603)" fill="#1b1b43"/>
        <g id="Group_7517" data-name="Group 7517" transform="translate(38.009 51.683)" opacity="0.2">
          <g id="Group_7516" data-name="Group 7516">
            <g id="Group_7515" data-name="Group 7515" clip-path="url(#clip-path-10)">
              <path id="Path_12400" data-name="Path 12400" d="M371.139,502.556a1.219,1.219,0,1,1-1.219-1.219,1.219,1.219,0,0,1,1.219,1.219" transform="translate(-368.7 -501.337)" fill="#fe5b52"/>
            </g>
          </g>
        </g>
        <g id="Group_7520" data-name="Group 7520" transform="translate(44.676 52.988)" opacity="0.2">
          <g id="Group_7519" data-name="Group 7519">
            <g id="Group_7518" data-name="Group 7518" clip-path="url(#clip-path-11)">
              <path id="Path_12401" data-name="Path 12401" d="M434.136,514a14.675,14.675,0,0,1-.464,1.939,1.219,1.219,0,0,1,.464-1.939" transform="translate(-433.368 -514.002)" fill="#fe5b52"/>
            </g>
          </g>
        </g>
        <path id="Path_12402" data-name="Path 12402" d="M244.6,653.868l-7.043,3.349,2.209,5.236,7.384-3.406Z" transform="translate(-213.068 -586.461)" fill="#1d77fe"/>
        <path id="Path_12403" data-name="Path 12403" d="M556.178,827.389c-.2-.1-.318-.163-.318-.163l.071-.139s.13.062.319.164Z" transform="translate(-498.557 -741.823)" fill="#c5c5ff"/>
        <path id="Path_12404" data-name="Path 12404" d="M292.815,717.816c-.228.449-1.971-.346-2.784-.745.629.349,1.714,1.034,1.232,1.41-.387.3-1.244-.337-4.051-1.5.426.2,2.934,1.395,2.3,1.847-.689.491-3.644-.591-3.644-.591l-2.562,1.377h-2.955l-10.632.068a7.753,7.753,0,0,1-1.971-.248,8.843,8.843,0,0,1-3.457-1.791,8.682,8.682,0,0,1-1.64-1.841,9.84,9.84,0,0,1-.878-1.643l-2.8-6.643,7.385-3.407,3.853,7.822,12.707,2.76,3.546-.886a3.729,3.729,0,0,1,2.512.541c1.637,1,4.054,3.044,3.842,3.472" transform="translate(-232.274 -631.522)" fill="#ffbc96"/>
        <g id="Group_7523" data-name="Group 7523" transform="translate(30.379 83.561)" opacity="0.2">
          <g id="Group_7522" data-name="Group 7522">
            <g id="Group_7521" data-name="Group 7521" clip-path="url(#clip-path-12)">
              <path id="Path_12405" data-name="Path 12405" d="M299.976,813.821a3.218,3.218,0,0,1-.192,1.1,8.839,8.839,0,0,1-3.457-1.791,8.685,8.685,0,0,1-1.64-1.841,3.252,3.252,0,0,1,5.29,2.532" transform="translate(-294.686 -810.57)" fill="#fe5b52"/>
            </g>
          </g>
        </g>
        <path id="Path_12406" data-name="Path 12406" d="M491.066,798.03a24.149,24.149,0,0,1,2.685-.736,9.641,9.641,0,0,1,1.387-.2,4.2,4.2,0,0,1,.713.019c.119.024.237.055.355.083s.223.085.334.128a11.467,11.467,0,0,1,2.346,1.529c.728.581,1.415,1.2,2.084,1.854l.031.03.006.038a.56.56,0,0,1-.07.4.476.476,0,0,1-.161.142.462.462,0,0,1-.185.064,1.526,1.526,0,0,1-.664-.065,6.58,6.58,0,0,1-1.147-.481c-.362-.193-.718-.395-1.064-.611s-.685-.441-1.028-.663l.156-.25a18.376,18.376,0,0,1,1.754,1.162,4.7,4.7,0,0,1,.793.728,1.05,1.05,0,0,1,.154.26.478.478,0,0,1,.035.18.345.345,0,0,1-.076.2.54.54,0,0,1-.3.167,1.737,1.737,0,0,1-.284.041l-.029,0-.032-.013-3.208-1.344.1-.225a11.2,11.2,0,0,1,1.466.791,2,2,0,0,1,.638.594.346.346,0,0,1,.026.282.381.381,0,0,1-.19.2,1.063,1.063,0,0,1-.441.1,6.227,6.227,0,0,1-1.651-.254q-.8-.212-1.578-.5l.039-.109c.518.174,1.046.327,1.577.453a6.091,6.091,0,0,0,1.6.21c.251-.01.551-.12.429-.286a1.867,1.867,0,0,0-.572-.5,10.974,10.974,0,0,0-1.442-.753l.1-.225,3.219,1.316-.06-.01a1.5,1.5,0,0,0,.231-.034.294.294,0,0,0,.151-.073c.045-.018-.016-.177-.116-.3a4.469,4.469,0,0,0-.745-.675,18.088,18.088,0,0,0-1.729-1.133l.156-.25c.34.217.67.453,1.015.659s.69.415,1.043.605a6.343,6.343,0,0,0,1.09.464,1.287,1.287,0,0,0,.534.063l.057-.01a.321.321,0,0,0,.043-.022c.034-.01.044-.037.068-.054a.3.3,0,0,0,.032-.187l.037.068c-.654-.645-1.342-1.263-2.051-1.848a11.259,11.259,0,0,0-2.273-1.525l-.312-.124c-.106-.026-.212-.055-.319-.079a4.017,4.017,0,0,0-.672-.025,9.72,9.72,0,0,0-1.363.165,24,24,0,0,0-2.682.672Z" transform="translate(-440.442 -714.917)" fill="#d28572"/>
        <path id="Path_12407" data-name="Path 12407" d="M258.612,644.581l-.093-.2,7.287-3.362-3.035-7.1.2-.087,3.12,7.3Z" transform="translate(-231.869 -568.487)" fill="#1b1b43"/>
        <rect id="Rectangle_3832" data-name="Rectangle 3832" width="0.387" height="33.294" transform="translate(27.399 107.202)" fill="#1b1b43"/>
        <path id="Path_12408" data-name="Path 12408" d="M176.053,1014.371H157.436a2.29,2.29,0,0,1,0-4.58h18.617a2.29,2.29,0,0,1,0,4.58" transform="translate(-139.152 -905.692)" fill="#d1d1ff"/>
        <path id="Path_12409" data-name="Path 12409" d="M207.356,1350.618H191.694v-.378a3.444,3.444,0,0,1,3.444-3.444h8.774a3.444,3.444,0,0,1,3.444,3.444Z" transform="translate(-171.932 -1207.955)" fill="#d1d1ff"/>
        <rect id="Rectangle_3833" data-name="Rectangle 3833" width="0.387" height="61.844" transform="translate(49.789 90.234) rotate(-32.247)" fill="#1b1b43"/>
        <rect id="Rectangle_3834" data-name="Rectangle 3834" width="61.844" height="0.387" transform="translate(49.781 142.327) rotate(-57.734)" fill="#1b1b43"/>
        <rect id="Rectangle_3835" data-name="Rectangle 3835" width="57.821" height="4.36" transform="translate(37.541 87.994)" fill="#d1d1ff"/>
        <path id="Path_12410" data-name="Path 12410" d="M84.479,291.084H77.8a1.945,1.945,0,0,0-1.945,1.945v6.676a1.945,1.945,0,0,0,1.945,1.945h4.764l2.053,2.835v-2.842a1.944,1.944,0,0,0,1.8-1.938v-6.676a1.945,1.945,0,0,0-1.945-1.945" transform="translate(-68.038 -261.076)" fill="#fff"/>
        <path id="Path_12411" data-name="Path 12411" d="M83.627,303.762l-2.247-3.1h-4.7a2.077,2.077,0,0,1-2.074-2.074v-6.676a2.077,2.077,0,0,1,2.074-2.074h6.676a2.077,2.077,0,0,1,2.074,2.074v6.676a2.081,2.081,0,0,1-1.8,2.055Zm-6.946-13.67a1.818,1.818,0,0,0-1.816,1.816v6.676a1.818,1.818,0,0,0,1.816,1.816h4.83l1.858,2.566V300.4l.12-.009a1.821,1.821,0,0,0,1.684-1.81v-6.676a1.818,1.818,0,0,0-1.816-1.816Z" transform="translate(-66.916 -259.955)" fill="#9192ff"/>
        <path id="Path_12412" data-name="Path 12412" d="M102.529,316.848l-2.672-3.86.636-.44,1.967,2.841,2.962-5.3.675.377Z" transform="translate(-89.563 -278.121)" fill="#9192ff"/>
      </g>
    </g>
  </g>
</svg>
