<svg xmlns="http://www.w3.org/2000/svg" xmlns:xlink="http://www.w3.org/1999/xlink" width="152.026" height="123.301" viewBox="0 0 152.026 123.301">
  <defs>
    <clipPath id="clip-path">
      <rect id="Rectangle_3797" data-name="Rectangle 3797" width="152.026" height="123.301" fill="none"/>
    </clipPath>
    <clipPath id="clip-path-4">
      <rect id="Rectangle_3775" data-name="Rectangle 3775" width="87.577" height="52.078" fill="#d8e4ff"/>
    </clipPath>
    <clipPath id="clip-path-5">
      <rect id="Rectangle_3776" data-name="Rectangle 3776" width="80.666" height="47.885" fill="none"/>
    </clipPath>
    <clipPath id="clip-path-6">
      <rect id="Rectangle_3777" data-name="Rectangle 3777" width="10.495" height="10.374" fill="none"/>
    </clipPath>
    <clipPath id="clip-path-7">
      <rect id="Rectangle_3778" data-name="Rectangle 3778" width="10.176" height="10.838" fill="none"/>
    </clipPath>
    <clipPath id="clip-path-8">
      <rect id="Rectangle_3779" data-name="Rectangle 3779" width="19.995" height="17.452" fill="none"/>
    </clipPath>
    <clipPath id="clip-path-9">
      <rect id="Rectangle_3785" data-name="Rectangle 3785" width="21.036" height="15.602" fill="none"/>
    </clipPath>
    <clipPath id="clip-path-10">
      <rect id="Rectangle_3780" data-name="Rectangle 3780" width="14.803" height="2.069" fill="none"/>
    </clipPath>
    <clipPath id="clip-path-11">
      <rect id="Rectangle_3781" data-name="Rectangle 3781" width="17.058" height="2.069" fill="none"/>
    </clipPath>
    <clipPath id="clip-path-12">
      <rect id="Rectangle_3782" data-name="Rectangle 3782" width="9.366" height="2.069" fill="none"/>
    </clipPath>
    <clipPath id="clip-path-14">
      <rect id="Rectangle_3784" data-name="Rectangle 3784" width="5.44" height="2.069" fill="none"/>
    </clipPath>
    <clipPath id="clip-path-16">
      <rect id="Rectangle_3787" data-name="Rectangle 3787" width="8.566" height="11.719" fill="none"/>
    </clipPath>
    <clipPath id="clip-path-17">
      <rect id="Rectangle_3788" data-name="Rectangle 3788" width="3.258" height="6.575" fill="none"/>
    </clipPath>
    <clipPath id="clip-path-18">
      <rect id="Rectangle_3789" data-name="Rectangle 3789" width="17.55" height="25.789" fill="none"/>
    </clipPath>
    <clipPath id="clip-path-19">
      <rect id="Rectangle_3790" data-name="Rectangle 3790" width="3.639" height="7.331" fill="none"/>
    </clipPath>
    <clipPath id="clip-path-20">
      <rect id="Rectangle_3791" data-name="Rectangle 3791" width="3.029" height="3.438" fill="none"/>
    </clipPath>
    <clipPath id="clip-path-21">
      <rect id="Rectangle_3792" data-name="Rectangle 3792" width="4.274" height="3.812" fill="none"/>
    </clipPath>
    <clipPath id="clip-path-22">
      <rect id="Rectangle_3793" data-name="Rectangle 3793" width="4.06" height="22.113" fill="none"/>
    </clipPath>
    <clipPath id="clip-path-23">
      <rect id="Rectangle_3794" data-name="Rectangle 3794" width="10.494" height="10.374" fill="none"/>
    </clipPath>
    <clipPath id="clip-path-24">
      <rect id="Rectangle_3795" data-name="Rectangle 3795" width="10.687" height="12.113" fill="none"/>
    </clipPath>
  </defs>
  <g id="Project_Successful_Completed" data-name="Project Successful Completed" clip-path="url(#clip-path)">
    <g id="Group_7393" data-name="Group 7393">
      <g id="Group_7392" data-name="Group 7392" clip-path="url(#clip-path)">
        <path id="Path_12025" data-name="Path 12025" d="M152.026,296.3c0,2.452-34.032,4.439-76.013,4.439S0,298.753,0,296.3s34.032-4.439,76.013-4.439,76.013,1.988,76.013,4.439" transform="translate(0 -177.439)" fill="#f5f5f5" opacity="0.25"/>
      </g>
    </g>
    <g id="Group_7428" data-name="Group 7428">
      <g id="Group_7427" data-name="Group 7427" clip-path="url(#clip-path)">
        <path id="Path_12026" data-name="Path 12026" d="M193.87,75.846H109.15a1.56,1.56,0,0,1-1.569-1.661l2.853-51.94a1.781,1.781,0,0,1,1.752-1.661h84.72a1.56,1.56,0,0,1,1.569,1.661l-2.853,51.94a1.781,1.781,0,0,1-1.752,1.661" transform="translate(-65.403 -12.515)" fill="#263238"/>
        <path id="Path_12027" data-name="Path 12027" d="M216.8,25.629h-8.189a4.659,4.659,0,0,1-4.692-4.957L204,19.156a5.156,5.156,0,0,1,5.074-4.8h8.184a4.664,4.664,0,0,1,4.7,4.962l-.083,1.51a5.156,5.156,0,0,1-5.075,4.8" transform="translate(-123.966 -8.726)" fill="#263238"/>
        <path id="Path_12028" data-name="Path 12028" d="M240.528,127.745H237.9L230.681,17.3H233.3Z" transform="translate(-140.244 -10.52)" fill="#263238"/>
        <path id="Path_12029" data-name="Path 12029" d="M205.563,127.745h2.624L215.41,17.3h-2.624Z" transform="translate(-124.973 -10.52)" fill="#263238"/>
        <path id="Path_12030" data-name="Path 12030" d="M192.72,75.846H108a1.56,1.56,0,0,1-1.569-1.661l2.853-51.94a1.781,1.781,0,0,1,1.752-1.661h84.72a1.56,1.56,0,0,1,1.569,1.661l-2.853,51.94a1.781,1.781,0,0,1-1.752,1.661" transform="translate(-64.704 -12.515)" fill="#407bff"/>
        <g id="Group_7396" data-name="Group 7396" transform="translate(43.386 9.662)">
          <g id="Group_7395" data-name="Group 7395">
            <g id="Group_7394" data-name="Group 7394" clip-path="url(#clip-path-4)">
              <path id="Path_12031" data-name="Path 12031" d="M111.92,76.721a1.243,1.243,0,0,1-1.253-1.326l2.715-49.426a1.42,1.42,0,0,1,1.4-1.326h82.206a1.243,1.243,0,0,1,1.253,1.326L195.525,75.4a1.419,1.419,0,0,1-1.4,1.326Z" transform="translate(-110.665 -24.643)" fill="#d8e4ff"/>
            </g>
          </g>
        </g>
        <g id="Group_7399" data-name="Group 7399" transform="translate(46.841 11.758)" opacity="0.1">
          <g id="Group_7398" data-name="Group 7398">
            <g id="Group_7397" data-name="Group 7397" clip-path="url(#clip-path-5)">
              <path id="Path_12032" data-name="Path 12032" d="M199.995,53.775H175.25a1.055,1.055,0,0,1-1.065-1.126l1.236-22.5a.149.149,0,0,0-.15-.159.17.17,0,0,0-.168.159l-1.236,22.5a1.2,1.2,0,0,1-1.188,1.126H146.964a1.055,1.055,0,0,1-1.065-1.126l1.236-22.5a.149.149,0,0,0-.15-.159.17.17,0,0,0-.168.159l-1.236,22.5a1.2,1.2,0,0,1-1.189,1.126H119.647a.171.171,0,0,0-.168.16.149.149,0,0,0,.151.159h24.745a1.055,1.055,0,0,1,1.065,1.126L144.2,77.72a.15.15,0,0,0,.151.159.17.17,0,0,0,.168-.159l1.236-22.5a1.2,1.2,0,0,1,1.188-1.126h25.715a1.055,1.055,0,0,1,1.065,1.126l-1.236,22.5a.149.149,0,0,0,.15.159.17.17,0,0,0,.168-.159l1.236-22.5a1.2,1.2,0,0,1,1.188-1.126h24.745a.171.171,0,0,0,.168-.159.15.15,0,0,0-.151-.16" transform="translate(-119.479 -29.992)" fill="#fff"/>
            </g>
          </g>
        </g>
        <g id="Group_7402" data-name="Group 7402" transform="translate(76.517 15.835)" opacity="0.4">
          <g id="Group_7401" data-name="Group 7401">
            <g id="Group_7400" data-name="Group 7400" clip-path="url(#clip-path-6)">
              <path id="Path_12033" data-name="Path 12033" d="M205.669,40.392H195.73L195.174,50.5l9.925.265Z" transform="translate(-195.174 -40.392)" fill="#263238"/>
            </g>
          </g>
        </g>
        <path id="Path_12034" data-name="Path 12034" d="M203.724,48.994l-9.976-.486a87.407,87.407,0,0,0,1.038-10.315l10.034.486a87.424,87.424,0,0,1-1.1,10.315" transform="translate(-117.79 -23.22)" fill="#fff"/>
        <g id="Group_7405" data-name="Group 7405" transform="translate(89.041 22.588)" opacity="0.4">
          <g id="Group_7404" data-name="Group 7404">
            <g id="Group_7403" data-name="Group 7403" clip-path="url(#clip-path-7)">
              <path id="Path_12035" data-name="Path 12035" d="M237.073,57.617l-9.952.759.218,10.079,9.958-.5Z" transform="translate(-227.121 -57.617)" fill="#263238"/>
            </g>
          </g>
        </g>
        <path id="Path_12036" data-name="Path 12036" d="M236.148,66.987l-10.026.279a86.231,86.231,0,0,0,.249-10.321l10.084-.284a86.309,86.309,0,0,1-.307,10.326" transform="translate(-137.472 -34.447)" fill="#1d77fe"/>
        <g id="Group_7408" data-name="Group 7408" transform="translate(49.932 40.272)" opacity="0.4">
          <g id="Group_7407" data-name="Group 7407">
            <g id="Group_7406" data-name="Group 7406" clip-path="url(#clip-path-8)">
              <path id="Path_12037" data-name="Path 12037" d="M147.359,103.423l-18.348-.7-1.647,16.323,18.3,1.129Z" transform="translate(-127.364 -102.722)" fill="#263238"/>
            </g>
          </g>
        </g>
        <path id="Path_12038" data-name="Path 12038" d="M143.22,117.263l-18.386-1.491a124.589,124.589,0,0,0,2.549-16.623l18.494,1.494a124.867,124.867,0,0,1-2.658,16.619" transform="translate(-75.894 -60.279)" fill="#fff"/>
        <g id="Group_7426" data-name="Group 7426" transform="translate(49.32 16.05)" opacity="0.3">
          <g id="Group_7425" data-name="Group 7425">
            <g id="Group_7424" data-name="Group 7424" clip-path="url(#clip-path-9)">
              <path id="Path_12039" data-name="Path 12039" d="M128.677,43.009h0a.971.971,0,0,1-.978-1.034,1.11,1.11,0,0,1,1.091-1.035.971.971,0,0,1,.977,1.035,1.109,1.109,0,0,1-1.091,1.034" transform="translate(-126.955 -40.941)" fill="#263238"/>
              <g id="Group_7411" data-name="Group 7411" transform="translate(4.225)" opacity="0.8">
                <g id="Group_7410" data-name="Group 7410">
                  <g id="Group_7409" data-name="Group 7409" clip-path="url(#clip-path-10)">
                    <path id="Path_12040" data-name="Path 12040" d="M150.291,43.009H137.559a.971.971,0,0,1-.978-1.034,1.109,1.109,0,0,1,1.091-1.035H150.4a.972.972,0,0,1,.978,1.035,1.109,1.109,0,0,1-1.091,1.034" transform="translate(-136.58 -40.941)" fill="#263238"/>
                  </g>
                </g>
              </g>
              <path id="Path_12041" data-name="Path 12041" d="M128.045,54.516h0a.972.972,0,0,1-.978-1.034,1.11,1.11,0,0,1,1.091-1.035.972.972,0,0,1,.978,1.035,1.11,1.11,0,0,1-1.091,1.034" transform="translate(-126.571 -47.936)" fill="#263238"/>
              <g id="Group_7414" data-name="Group 7414" transform="translate(3.978 4.511)" opacity="0.8">
                <g id="Group_7413" data-name="Group 7413">
                  <g id="Group_7412" data-name="Group 7412" clip-path="url(#clip-path-11)">
                    <path id="Path_12042" data-name="Path 12042" d="M151.913,54.516H136.926a.972.972,0,0,1-.978-1.034,1.11,1.11,0,0,1,1.091-1.035h14.986A.971.971,0,0,1,153,53.482a1.109,1.109,0,0,1-1.091,1.034" transform="translate(-135.947 -52.447)" fill="#263238"/>
                  </g>
                </g>
              </g>
              <path id="Path_12043" data-name="Path 12043" d="M127.413,66.023h0a.972.972,0,0,1-.978-1.035,1.11,1.11,0,0,1,1.091-1.034.971.971,0,0,1,.977,1.034,1.109,1.109,0,0,1-1.091,1.035" transform="translate(-126.186 -54.931)" fill="#263238"/>
              <g id="Group_7417" data-name="Group 7417" transform="translate(3.73 9.022)" opacity="0.8">
                <g id="Group_7416" data-name="Group 7416">
                  <g id="Group_7415" data-name="Group 7415" clip-path="url(#clip-path-12)">
                    <path id="Path_12044" data-name="Path 12044" d="M143.589,66.023h-7.294a.972.972,0,0,1-.978-1.035,1.11,1.11,0,0,1,1.092-1.034H143.7a.971.971,0,0,1,.977,1.034,1.109,1.109,0,0,1-1.091,1.035" transform="translate(-135.315 -63.954)" fill="#263238"/>
                  </g>
                </g>
              </g>
              <g id="Group_7420" data-name="Group 7420" transform="translate(10.484 13.533)" opacity="0.8">
                <g id="Group_7419" data-name="Group 7419">
                  <g id="Group_7418" data-name="Group 7418" clip-path="url(#clip-path-12)">
                    <path id="Path_12045" data-name="Path 12045" d="M160.817,77.529h-7.294a.972.972,0,0,1-.978-1.035,1.11,1.11,0,0,1,1.091-1.034h7.294a.972.972,0,0,1,.978,1.034,1.11,1.11,0,0,1-1.091,1.035" transform="translate(-152.544 -75.46)" fill="#263238"/>
                  </g>
                </g>
              </g>
              <path id="Path_12046" data-name="Path 12046" d="M126.781,77.529h0a.972.972,0,0,1-.978-1.035,1.11,1.11,0,0,1,1.1-1.034.971.971,0,0,1,.977,1.034,1.109,1.109,0,0,1-1.091,1.035" transform="translate(-125.802 -61.927)" fill="#263238"/>
              <g id="Group_7423" data-name="Group 7423" transform="translate(3.482 13.533)" opacity="0.8">
                <g id="Group_7422" data-name="Group 7422">
                  <g id="Group_7421" data-name="Group 7421" clip-path="url(#clip-path-14)">
                    <path id="Path_12047" data-name="Path 12047" d="M139.031,77.529h-3.368a.972.972,0,0,1-.978-1.035,1.11,1.11,0,0,1,1.091-1.034h3.368a.972.972,0,0,1,.978,1.034,1.11,1.11,0,0,1-1.091,1.035" transform="translate(-134.683 -75.46)" fill="#263238"/>
                  </g>
                </g>
              </g>
            </g>
          </g>
        </g>
        <path id="Path_12048" data-name="Path 12048" d="M200.326,114.978h-4.937l-.678,12.353h4.937Z" transform="translate(-118.376 -69.901)" fill="#407bff"/>
        <path id="Path_12049" data-name="Path 12049" d="M219.643,121.472h-4.937l-.539,9.806H219.1Z" transform="translate(-130.204 -73.85)" fill="#407bff"/>
        <path id="Path_12050" data-name="Path 12050" d="M239.462,104.694h-4.937l-.9,16.384h4.937Z" transform="translate(-142.034 -63.649)" fill="#407bff"/>
        <path id="Path_12051" data-name="Path 12051" d="M192.026,117.587q-.733,0-1.48-.038a8.381,8.381,0,0,1-2.987-.606.318.318,0,1,1,.261-.581,7.79,7.79,0,0,0,2.758.55,25.172,25.172,0,0,0,16.331-4.854,18.177,18.177,0,0,0,4.245-4.115.318.318,0,1,1,.524.361,18.549,18.549,0,0,1-4.406,4.277,25.858,25.858,0,0,1-15.246,5.006" transform="translate(-113.913 -65.541)" fill="#fff"/>
        <path id="Path_12052" data-name="Path 12052" d="M244.422,107.091a.319.319,0,0,1-.294-.44,5.6,5.6,0,0,0,.274-3.429,21.474,21.474,0,0,1-3.944,2.094.318.318,0,1,1-.238-.59,20.865,20.865,0,0,0,4.182-2.276.318.318,0,0,1,.485.159,6.2,6.2,0,0,1-.17,4.285.318.318,0,0,1-.294.2" transform="translate(-145.922 -62.25)" fill="#fff"/>
        <path id="Path_12053" data-name="Path 12053" d="M287.36,55.636H269a1.1,1.1,0,0,1-1.107-1.171l.853-15.525a1.234,1.234,0,0,1,1.216-1.153h18.365a1.1,1.1,0,0,1,1.106,1.171l-.853,15.525a1.235,1.235,0,0,1-1.217,1.153m-17.4-17.531a.912.912,0,0,0-.9.852l-.853,15.525a.78.78,0,0,0,.789.835H287.36a.912.912,0,0,0,.9-.852l.853-15.525a.78.78,0,0,0-.788-.835Z" transform="translate(-162.864 -22.973)" fill="#407bff"/>
        <path id="Path_12054" data-name="Path 12054" d="M290.156,48.656h-20.37a.159.159,0,0,1,0-.318h20.37a.159.159,0,0,1,0,.318" transform="translate(-163.921 -29.387)" fill="#407bff"/>
        <path id="Path_12055" data-name="Path 12055" d="M280.178,62.05h-.009a.159.159,0,0,1-.15-.167l.736-13.4a.157.157,0,0,1,.168-.15.159.159,0,0,1,.15.168L280.337,61.9a.159.159,0,0,1-.159.151" transform="translate(-170.239 -29.387)" fill="#407bff"/>
        <path id="Path_12056" data-name="Path 12056" d="M298.644,52.715H287.585a.159.159,0,0,1,0-.318h11.059a.159.159,0,0,1,0,.318" transform="translate(-174.742 -31.855)" fill="#407bff"/>
        <path id="Path_12057" data-name="Path 12057" d="M296.812,57.7h-9.5a.159.159,0,0,1,0-.318h9.5a.159.159,0,0,1,0,.318" transform="translate(-174.576 -34.883)" fill="#407bff"/>
        <path id="Path_12058" data-name="Path 12058" d="M292.559,62.837h-5.53a.159.159,0,0,1,0-.318h5.53a.159.159,0,0,1,0,.318" transform="translate(-174.404 -38.009)" fill="#407bff"/>
        <path id="Path_12059" data-name="Path 12059" d="M293.228,72.87h-6.75a.159.159,0,0,1,0-.318h6.75a.159.159,0,0,1,0,.318" transform="translate(-174.069 -44.108)" fill="#407bff"/>
        <path id="Path_12060" data-name="Path 12060" d="M291.725,78.011H286.2a.159.159,0,1,1,0-.318h5.53a.159.159,0,0,1,0,.318" transform="translate(-173.897 -47.234)" fill="#407bff"/>
        <path id="Path_12061" data-name="Path 12061" d="M305.81,78.011h-1.772a.159.159,0,0,1,0-.318h1.772a.159.159,0,0,1,0,.318" transform="translate(-184.745 -47.234)" fill="#407bff"/>
        <path id="Path_12062" data-name="Path 12062" d="M297.111,67.818H286.755a.159.159,0,0,1,0-.318H297.11a.159.159,0,0,1,0,.318" transform="translate(-174.238 -41.037)" fill="#407bff"/>
        <path id="Path_12063" data-name="Path 12063" d="M277.66,117.264a7.434,7.434,0,0,1-5.586-2.028,8.142,8.142,0,0,1,3.2-12.236,11.224,11.224,0,0,1,9.5.128,4.344,4.344,0,0,1,2.4,2.434.318.318,0,0,1-.607.191,3.75,3.75,0,0,0-2.082-2.056,10.581,10.581,0,0,0-8.953-.115,7.516,7.516,0,0,0-2.993,11.227c1.629,1.759,4.326,1.885,5.788,1.8a9.837,9.837,0,0,0,6.587-2.674c1.788-1.841,2.289-4.595,1.166-6.4a2,2,0,0,0-1.374-1.018.319.319,0,1,1,.064-.634,2.548,2.548,0,0,1,1.851,1.316c1.273,2.052.735,5.14-1.25,7.184a10.465,10.465,0,0,1-7.009,2.867q-.358.019-.7.02" transform="translate(-164.441 -62.015)" fill="#fff"/>
      </g>
    </g>
    <g id="Group_7457" data-name="Group 7457">
      <g id="Group_7456" data-name="Group 7456" clip-path="url(#clip-path)">
        <path id="Path_12064" data-name="Path 12064" d="M67.008,52.72l-1.131,1.97L64.769,56.7c-.73,1.344-1.427,2.7-2.063,4.062-.317.683-.618,1.362-.893,2.046l-.051.124a.166.166,0,0,1-.016.029.269.269,0,0,0-.033.054.67.67,0,0,0-.053.113.775.775,0,0,0,.047.439A4.352,4.352,0,0,0,62.65,65a17.138,17.138,0,0,0,1.531,1.451l-.919,1.957A9.67,9.67,0,0,1,62,67.961a9.784,9.784,0,0,1-1.2-.614A6.787,6.787,0,0,1,58.59,65.3a4.558,4.558,0,0,1-.69-1.788,4.084,4.084,0,0,1-.021-1.065,3.644,3.644,0,0,1,.09-.523l.064-.255.048-.154c.252-.8.513-1.6.819-2.36.6-1.539,1.267-3.026,2-4.473.366-.724.745-1.44,1.145-2.144s.793-1.4,1.253-2.112Z" transform="translate(-35.171 -30.655)" fill="#ffc3bd"/>
        <path id="Path_12065" data-name="Path 12065" d="M70.837,89.912l2.06-.536.118,3.326a3.351,3.351,0,0,1-2.6-.746Z" transform="translate(-42.81 -54.337)" fill="#ffc3bd"/>
        <path id="Path_12066" data-name="Path 12066" d="M79.662,87.947l-.465,2.92-2.336.966-.118-3.326Z" transform="translate(-46.656 -53.468)" fill="#ffc3bd"/>
        <path id="Path_12067" data-name="Path 12067" d="M105.9,15.574c.046.228.2.388.353.358s.232-.24.185-.467-.2-.388-.353-.358-.232.239-.186.467" transform="translate(-64.376 -9.182)" fill="#263238"/>
        <path id="Path_12068" data-name="Path 12068" d="M106.39,17.3a8.306,8.306,0,0,0,1.483,1.726,1.339,1.339,0,0,1-1.046.425Z" transform="translate(-64.68 -10.52)" fill="#ed847e"/>
        <path id="Path_12069" data-name="Path 12069" d="M102.93,12.442a.136.136,0,0,1-.1-.229,1.354,1.354,0,0,1,1.16-.452.137.137,0,0,1-.045.269,1.081,1.081,0,0,0-.915.367.135.135,0,0,1-.1.044" transform="translate(-62.494 -7.145)" fill="#263238"/>
        <path id="Path_12070" data-name="Path 12070" d="M88.375,24.472c.413,2.107.825,5.968-.649,7.374,0,0,.576,2.137,4.491,2.137,4.305,0,2.057-2.137,2.057-2.137-2.35-.561-2.289-2.3-1.879-3.941Z" transform="translate(-53.334 -14.878)" fill="#ffc3bd"/>
        <path id="Path_12071" data-name="Path 12071" d="M84.992,41.365c-.315-.585-.661-1.255.056-1.465.789-.231,5.855-.659,7.344-.226-.457.813.317,1.813.317,1.813Z" transform="translate(-51.448 -24.007)" fill="#263238"/>
        <path id="Path_12072" data-name="Path 12072" d="M51.855,293.883a.926.926,0,0,0,.717-.039.279.279,0,0,0,.066-.317.316.316,0,0,0-.176-.2c-.389-.186-1.282.178-1.32.194a.068.068,0,0,0,0,.124,3.607,3.607,0,0,0,.717.238m.468-.46a.363.363,0,0,1,.08.027.184.184,0,0,1,.1.116c.036.123-.009.161-.024.174-.155.132-.73.01-1.135-.152a2.246,2.246,0,0,1,.975-.165" transform="translate(-31.067 -178.297)" fill="#407bff"/>
        <path id="Path_12073" data-name="Path 12073" d="M51.155,292.435a.07.07,0,0,0,.034,0c.325-.1,1.022-.59,1.031-.917a.223.223,0,0,0-.175-.221.372.372,0,0,0-.3.024c-.385.2-.628.994-.638,1.028a.069.069,0,0,0,.017.068.071.071,0,0,0,.034.018m.815-1.018.03.008c.084.03.084.071.083.089,0,.193-.465.581-.8.739a1.643,1.643,0,0,1,.523-.81.242.242,0,0,1,.166-.025" transform="translate(-31.067 -177.083)" fill="#407bff"/>
        <path id="Path_12074" data-name="Path 12074" d="M105.811,294.985c.37,0,.726-.051.846-.217a.258.258,0,0,0-.006-.3.34.34,0,0,0-.216-.16c-.479-.131-1.486.443-1.529.468a.068.068,0,0,0-.033.07.07.07,0,0,0,.054.056,5.076,5.076,0,0,0,.884.081m.457-.559a.493.493,0,0,1,.132.016.205.205,0,0,1,.134.1c.048.085.031.127.013.151-.134.186-.862.191-1.4.115a3.085,3.085,0,0,1,1.119-.377" transform="translate(-63.758 -178.916)" fill="#407bff"/>
        <path id="Path_12075" data-name="Path 12075" d="M104.941,293.835a.07.07,0,0,0,.028-.006c.348-.156,1.036-.779.984-1.1-.013-.076-.067-.171-.254-.191a.5.5,0,0,0-.378.117,1.949,1.949,0,0,0-.447,1.109.069.069,0,0,0,.028.062.07.07,0,0,0,.04.013m.7-1.168h.041c.123.013.13.061.133.077.031.2-.436.685-.791.9a1.6,1.6,0,0,1,.38-.888.362.362,0,0,1,.237-.089" transform="translate(-63.758 -177.846)" fill="#407bff"/>
        <path id="Path_12076" data-name="Path 12076" d="M96.968,285.341h2.88l.287-6.669h-2.88Z" transform="translate(-58.952 -169.42)" fill="#ffc3bd"/>
        <path id="Path_12077" data-name="Path 12077" d="M43.049,282.649l2.815.61,2.826-6.212-2.815-.61Z" transform="translate(-26.172 -168.061)" fill="#ffc3bd"/>
        <path id="Path_12078" data-name="Path 12078" d="M43.817,292.046l-3.162-.685a.251.251,0,0,0-.281.14l-1.1,2.382a.423.423,0,0,0,.3.59c1.108.22,1.658.271,3.049.573.855.185,2.787.655,3.968.911,1.156.25,1.589-.879,1.128-1.09a7.993,7.993,0,0,1-3.489-2.549.7.7,0,0,0-.419-.272" transform="translate(-23.855 -177.131)" fill="#263238"/>
        <path id="Path_12079" data-name="Path 12079" d="M98.11,294.833H94.965a.251.251,0,0,0-.245.2l-.569,2.56a.419.419,0,0,0,.414.512c1.135-.019,2.774-.085,4.2-.085,1.667,0,3.107.091,5.063.091,1.182,0,1.511-1.2,1.016-1.3-2.253-.493-4.093-.545-6.04-1.746a1.337,1.337,0,0,0-.694-.224" transform="translate(-57.233 -179.245)" fill="#263238"/>
        <path id="Path_12080" data-name="Path 12080" d="M66.935,44.82c-2.7.619-4.925,7.51-4.925,7.51l5.42,4.131A11.828,11.828,0,0,0,70.3,51.138c.928-3.612-.611-6.951-3.371-6.319" transform="translate(-37.699 -27.201)" fill="#407bff"/>
        <g id="Group_7431" data-name="Group 7431" transform="translate(24.311 17.541)" opacity="0.2">
          <g id="Group_7430" data-name="Group 7430">
            <g id="Group_7429" data-name="Group 7429" clip-path="url(#clip-path-16)">
              <path id="Path_12081" data-name="Path 12081" d="M66.935,44.82c-2.7.619-4.925,7.51-4.925,7.51l5.42,4.131A11.828,11.828,0,0,0,70.3,51.138c.928-3.612-.611-6.951-3.371-6.319" transform="translate(-62.01 -44.742)" fill="#fafafa"/>
            </g>
          </g>
        </g>
        <g id="Group_7434" data-name="Group 7434" transform="translate(29.491 22.686)" opacity="0.2">
          <g id="Group_7433" data-name="Group 7433">
            <g id="Group_7432" data-name="Group 7432" clip-path="url(#clip-path-17)">
              <path id="Path_12082" data-name="Path 12082" d="M77.281,57.866c-1.466,1.451-1.945,4.093-2.058,6.39l.239.184a11.84,11.84,0,0,0,2.878-5.324c.055-.215.1-.431.141-.643Z" transform="translate(-75.223 -57.866)"/>
            </g>
          </g>
        </g>
        <path id="Path_12083" data-name="Path 12083" d="M90.707,43.93s3.065,3.463.171,24.894h-15.4c-.106-2.364,1.38-13.9-.9-25.042a40.241,40.241,0,0,1,5.157-.651,56.527,56.527,0,0,1,6.548,0,28.908,28.908,0,0,1,4.43.8" transform="translate(-45.336 -26.163)" fill="#407bff"/>
        <g id="Group_7437" data-name="Group 7437" transform="translate(29.236 16.871)" opacity="0.2">
          <g id="Group_7436" data-name="Group 7436">
            <g id="Group_7435" data-name="Group 7435" clip-path="url(#clip-path-18)">
              <path id="Path_12084" data-name="Path 12084" d="M90.707,43.93s3.065,3.463.171,24.894h-15.4c-.106-2.364,1.38-13.9-.9-25.042a40.241,40.241,0,0,1,5.157-.651,56.527,56.527,0,0,1,6.548,0,28.908,28.908,0,0,1,4.43.8" transform="translate(-74.572 -43.034)" fill="#fafafa"/>
            </g>
          </g>
        </g>
        <g id="Group_7440" data-name="Group 7440" transform="translate(43.146 24.266)" opacity="0.2">
          <g id="Group_7439" data-name="Group 7439">
            <g id="Group_7438" data-name="Group 7438" clip-path="url(#clip-path-19)">
              <path id="Path_12085" data-name="Path 12085" d="M113.625,61.948l-.059-.051-3.5.839c-.2,2.368,2.235,5.2,3.489,6.492a67.214,67.214,0,0,0,.071-7.28" transform="translate(-110.054 -61.897)"/>
            </g>
          </g>
        </g>
        <g id="Group_7443" data-name="Group 7443" transform="translate(38.153 109.253)" opacity="0.2">
          <g id="Group_7442" data-name="Group 7442">
            <g id="Group_7441" data-name="Group 7441" clip-path="url(#clip-path-20)">
              <path id="Path_12086" data-name="Path 12086" d="M100.348,278.676l-.147,3.438H97.32l.147-3.438Z" transform="translate(-97.32 -278.676)"/>
            </g>
          </g>
        </g>
        <g id="Group_7446" data-name="Group 7446" transform="translate(18.244 108.377)" opacity="0.2">
          <g id="Group_7445" data-name="Group 7445">
            <g id="Group_7444" data-name="Group 7444" clip-path="url(#clip-path-21)">
              <path id="Path_12087" data-name="Path 12087" d="M47.993,276.441l2.816.61-1.458,3.2-2.816-.61Z" transform="translate(-46.535 -276.441)"/>
            </g>
          </g>
        </g>
        <path id="Path_12088" data-name="Path 12088" d="M86.088,11.328c.74,2.761,1.033,4.414,2.736,5.563a3.8,3.8,0,0,0,5.854-3.181c.09-2.634-1.135-6.707-4.1-7.263a3.9,3.9,0,0,0-4.492,4.882" transform="translate(-52.253 -3.875)" fill="#ffc3bd"/>
        <path id="Path_12089" data-name="Path 12089" d="M82.5,12.273c1.174.672,5.454-1.573,4.575-4.976a6.538,6.538,0,0,0,1.446-4.124C88.34,1.009,86.854.184,85.275.648c-1.393.409-1.352,1.172-1.352,1.172s-6.582.775-5.177,3.45c-2.679,2.921,2.292,6.164,3.757,7" transform="translate(-47.4 -0.318)" fill="#263238"/>
        <path id="Path_12090" data-name="Path 12090" d="M77.436,11.914s-.784-1.357-1.928-.6a2.933,2.933,0,0,1,1.928.6" transform="translate(-45.906 -6.74)" fill="#263238"/>
        <path id="Path_12091" data-name="Path 12091" d="M103.118,4.28s1.434-3.238-.8-4.28a5.537,5.537,0,0,1,.8,4.28" transform="translate(-62.204)" fill="#263238"/>
        <path id="Path_12092" data-name="Path 12092" d="M98.209,17.193a3.23,3.23,0,0,0,1.162,1.719c.749.557,1.309.009,1.256-.84-.048-.763-.5-1.974-1.322-2.2s-1.311.492-1.1,1.321" transform="translate(-59.676 -9.625)" fill="#ffc3bd"/>
        <path id="Path_12093" data-name="Path 12093" d="M66.992,108.816s-3.268,22.01-5.063,30.256c-1.965,9.03-12.5,38.9-12.5,38.9l-5.156-1.116s7.368-24.346,9.017-36.97c1.267-9.7,3.763-31.075,3.763-31.075Z" transform="translate(-26.915 -66.155)" fill="#263238"/>
        <path id="Path_12094" data-name="Path 12094" d="M50.087,279.076c.022,0-.961,1.865-.961,1.865l-5.8-1.256.489-1.744Z" transform="translate(-26.34 -168.976)" fill="#407bff"/>
        <g id="Group_7449" data-name="Group 7449" transform="translate(34.802 50.474)" opacity="0.3">
          <g id="Group_7448" data-name="Group 7448">
            <g id="Group_7447" data-name="Group 7447" clip-path="url(#clip-path-22)">
              <path id="Path_12095" data-name="Path 12095" d="M91.979,128.774c-3.779.741-3.379,14.835-2.925,22.084,1.09-5.124,2.686-14.984,3.775-21.982a1.291,1.291,0,0,0-.851-.1" transform="translate(-88.77 -128.745)"/>
            </g>
          </g>
        </g>
        <path id="Path_12096" data-name="Path 12096" d="M100.461,108.816s.4,21.534.084,30.317c-.326,9.135-3.517,39.048-3.517,39.048H92.149s-.179-29.379-.4-38.351c-.237-9.781-1.418-31.014-1.418-31.014Z" transform="translate(-54.92 -66.155)" fill="#263238"/>
        <g id="Group_7452" data-name="Group 7452" transform="translate(62.133 27.479)" opacity="0.4">
          <g id="Group_7451" data-name="Group 7451">
            <g id="Group_7450" data-name="Group 7450" clip-path="url(#clip-path-23)">
              <path id="Path_12097" data-name="Path 12097" d="M168.978,70.092h-9.939L158.483,80.2l9.925.265Z" transform="translate(-158.484 -70.092)" fill="#263238"/>
            </g>
          </g>
        </g>
        <path id="Path_12098" data-name="Path 12098" d="M156.489,69.012l-9.954-1.228a86.215,86.215,0,0,0,1.794-10.166l10.013,1.232a86.362,86.362,0,0,1-1.853,10.163" transform="translate(-89.087 -35.029)" fill="#407bff"/>
        <path id="Path_12099" data-name="Path 12099" d="M99.922,280.79c.022,0-.275,2.026-.275,2.026H93.711l-.16-1.808Z" transform="translate(-56.875 -170.708)" fill="#407bff"/>
        <path id="Path_12100" data-name="Path 12100" d="M113.53,52.02c.443.69.948,1.464,1.451,2.18s1.027,1.443,1.568,2.137a29.268,29.268,0,0,0,3.432,3.83c.3.28.613.54.926.779l.235.177a.754.754,0,0,0-.138-.047c-.1-.02-.152,0-.125.012a1.309,1.309,0,0,0,.645-.148,7.506,7.506,0,0,0,.991-.515,34.412,34.412,0,0,0,4.142-3.209l1.682,1.358a19.974,19.974,0,0,1-3.77,4.6,9.249,9.249,0,0,1-1.347.991,5.257,5.257,0,0,1-1.978.735,3.473,3.473,0,0,1-1.5-.127,3.375,3.375,0,0,1-.762-.352l-.34-.216q-.673-.436-1.281-.916a28.435,28.435,0,0,1-4.223-4.239c-.614-.76-1.21-1.529-1.762-2.327s-1.084-1.579-1.6-2.477Z" transform="translate(-66.738 -31.626)" fill="#ffc3bd"/>
        <path id="Path_12101" data-name="Path 12101" d="M104.791,49.5c-.921,3.861,6.065,7.643,6.065,7.643l4.538-5.317a37.692,37.692,0,0,0-4.636-5.6c-3.175-3.047-5.266.332-5.967,3.272" transform="translate(-63.658 -27.375)" fill="#407bff"/>
        <g id="Group_7455" data-name="Group 7455" transform="translate(41.05 17.653)" opacity="0.2">
          <g id="Group_7454" data-name="Group 7454">
            <g id="Group_7453" data-name="Group 7453" clip-path="url(#clip-path-24)">
              <path id="Path_12102" data-name="Path 12102" d="M104.791,49.5c-.921,3.861,6.065,7.643,6.065,7.643l4.538-5.317a37.692,37.692,0,0,0-4.636-5.6c-3.175-3.047-5.266.332-5.967,3.272" transform="translate(-104.708 -45.028)" fill="#fafafa"/>
            </g>
          </g>
        </g>
        <path id="Path_12103" data-name="Path 12103" d="M151.673,61.988l1.071-3.439,2.818,1.4s-.41,2.509-2.462,2.944Z" transform="translate(-92.211 -35.595)" fill="#ffc3bd"/>
        <path id="Path_12104" data-name="Path 12104" d="M155.534,56.117l2.542.7-.854,1.658-2.819-1.4Z" transform="translate(-93.871 -34.117)" fill="#ffc3bd"/>
      </g>
    </g>
  </g>
</svg>
