<svg xmlns="http://www.w3.org/2000/svg" xmlns:xlink="http://www.w3.org/1999/xlink" width="187.607" height="123.301" viewBox="0 0 187.607 123.301">
  <defs>
    <clipPath id="clip-path">
      <rect id="Rectangle_3813" data-name="Rectangle 3813" width="187.607" height="123.3" fill="none"/>
    </clipPath>
    <clipPath id="clip-path-4">
      <path id="Rectangle_3802" data-name="Rectangle 3802" d="M23.918,0H69.081A23.917,23.917,0,0,1,93,23.919v14.93A23.918,23.918,0,0,1,69.079,62.768H23.918A23.918,23.918,0,0,1,0,38.849V23.918A23.918,23.918,0,0,1,23.918,0Z" fill="none"/>
    </clipPath>
    <clipPath id="clip-path-6">
      <rect id="Rectangle_3806" data-name="Rectangle 3806" width="34.066" height="34.067" fill="none"/>
    </clipPath>
    <clipPath id="clip-path-7">
      <path id="Path_12280" data-name="Path 12280" d="M538.595,631.538a17.023,17.023,0,1,0,14.757-8.5,17.023,17.023,0,0,0-14.757,8.5" transform="translate(-536.302 -623.034)" fill="none"/>
    </clipPath>
    <clipPath id="clip-path-8">
      <rect id="Rectangle_3808" data-name="Rectangle 3808" width="35.849" height="20.198" fill="none"/>
    </clipPath>
    <clipPath id="clip-path-9">
      <rect id="Rectangle_3809" data-name="Rectangle 3809" width="40.92" height="22.257" fill="none"/>
    </clipPath>
    <clipPath id="clip-path-10">
      <rect id="Rectangle_3810" data-name="Rectangle 3810" width="39.871" height="18.962" fill="none"/>
    </clipPath>
    <clipPath id="clip-path-12">
      <rect id="Rectangle_3811" data-name="Rectangle 3811" width="47.964" height="65.24" fill="none"/>
    </clipPath>
  </defs>
  <g id="Keyword_Rank" data-name="Keyword Rank" clip-path="url(#clip-path)">
    <g id="Group_7461" data-name="Group 7461">
      <g id="Group_7460" data-name="Group 7460" clip-path="url(#clip-path)">
        <path id="Path_12105" data-name="Path 12105" d="M39.208,318.062H214.043a89.406,89.406,0,0,0,5.717-43.115c-.9-7.526-2.908-15.227-7.606-20.75a29.05,29.05,0,0,0-10.916-7.643,42.689,42.689,0,0,0-31.3-.868c-6.647,2.424-13.341,6.576-20.2,5.046a22,22,0,0,1-8.22-4.288c-13.46-10.188-23.764-26.862-39.689-30.7-10.3-2.482-21.275,1.189-29.848,7.987S56.99,240.193,51.832,250.384c-10.417,20.582-15.713,44.327-12.624,67.678" transform="translate(-35.519 -199.186)" fill="#f4f7fd" opacity="0.21"/>
      </g>
    </g>
    <g id="Group_7468" data-name="Group 7468">
      <g id="Group_7467" data-name="Group 7467" clip-path="url(#clip-path)">
        <path id="Path_12108" data-name="Path 12108" d="M368.992,122.645H279.506a1.756,1.756,0,0,1-1.756-1.756V61.634a1.756,1.756,0,0,1,1.756-1.756h89.486a1.756,1.756,0,0,1,1.756,1.756V120.89a1.756,1.756,0,0,1-1.756,1.756" transform="translate(-257.36 -55.482)" fill="#cce6ff"/>
      </g>
    </g>
    <g id="Group_7470" data-name="Group 7470" transform="translate(20.39 4.396)">
      <g id="Group_7469" data-name="Group 7469" clip-path="url(#clip-path-4)">
        <rect id="Rectangle_3801" data-name="Rectangle 3801" width="101.789" height="10.42" transform="translate(-4.576 -3.568)" fill="#102a54"/>
      </g>
    </g>
    <g id="Group_7475" data-name="Group 7475">
      <g id="Group_7474" data-name="Group 7474" clip-path="url(#clip-path)">
        <path id="Path_12109" data-name="Path 12109" d="M330.015,94.45a1.272,1.272,0,1,1-1.272-1.272,1.272,1.272,0,0,1,1.272,1.272" transform="translate(-303.431 -86.338)" fill="#3c94f8"/>
        <path id="Path_12110" data-name="Path 12110" d="M392.953,94.45a1.272,1.272,0,1,1-1.272-1.272,1.272,1.272,0,0,1,1.272,1.272" transform="translate(-361.749 -86.338)" fill="#fff"/>
        <path id="Path_12111" data-name="Path 12111" d="M455.89,94.45a1.272,1.272,0,1,1-1.272-1.272,1.272,1.272,0,0,1,1.272,1.272" transform="translate(-420.065 -86.338)" fill="#fff"/>
        <path id="Path_12112" data-name="Path 12112" d="M357.02,111.687H268.456a2.329,2.329,0,0,1-2.327-2.327V51.026a2.329,2.329,0,0,1,2.327-2.327H357.02a2.329,2.329,0,0,1,2.327,2.327V109.36a2.329,2.329,0,0,1-2.327,2.327M268.456,48.919a2.109,2.109,0,0,0-2.106,2.106V109.36a2.109,2.109,0,0,0,2.106,2.106H357.02a2.109,2.109,0,0,0,2.106-2.106V51.026a2.109,2.109,0,0,0-2.106-2.106Z" transform="translate(-246.592 -45.124)" fill="#102a54"/>
        <path id="Path_12113" data-name="Path 12113" d="M358.186,273.942H334.958a.9.9,0,0,1-.9-.9V230.623a.9.9,0,0,1,.9-.9h23.228a.9.9,0,0,1,.9.9v42.414a.9.9,0,0,1-.9.9" transform="translate(-309.53 -212.854)" fill="#f4f7fd"/>
        <path id="Path_12114" data-name="Path 12114" d="M363.977,269.869h-8.9a.415.415,0,0,1-.415-.415V257.869a.415.415,0,0,1,.415-.415h8.9a.415.415,0,0,1,.415.415v11.585a.415.415,0,0,1-.415.415" transform="translate(-328.622 -238.554)" fill="#cce6ff"/>
        <path id="Path_12115" data-name="Path 12115" d="M512.1,258.23a.777.777,0,1,1-.777-.777.777.777,0,0,1,.777.777" transform="translate(-473.063 -238.553)" fill="#cce6ff"/>
        <path id="Path_12116" data-name="Path 12116" d="M558.474,260.048h-7.463a.166.166,0,1,1,0-.332h7.463a.166.166,0,1,1,0,.332" transform="translate(-510.407 -240.65)" fill="#cce6ff"/>
        <path id="Path_12117" data-name="Path 12117" d="M558.474,272.179h-7.463a.166.166,0,1,1,0-.332h7.463a.166.166,0,1,1,0,.332" transform="translate(-510.407 -251.89)" fill="#cce6ff"/>
        <path id="Path_12118" data-name="Path 12118" d="M558.474,284.309h-7.463a.166.166,0,1,1,0-.332h7.463a.166.166,0,1,1,0,.332" transform="translate(-510.407 -263.13)" fill="#cce6ff"/>
        <path id="Path_12119" data-name="Path 12119" d="M512.1,302.287a.777.777,0,1,1-.777-.777.777.777,0,0,1,.777.777" transform="translate(-473.063 -279.376)" fill="#cce6ff"/>
        <path id="Path_12120" data-name="Path 12120" d="M558.474,304.105h-7.463a.166.166,0,1,1,0-.332h7.463a.166.166,0,1,1,0,.332" transform="translate(-510.407 -281.473)" fill="#cce6ff"/>
        <path id="Path_12121" data-name="Path 12121" d="M558.474,316.235h-7.463a.166.166,0,1,1,0-.332h7.463a.166.166,0,1,1,0,.332" transform="translate(-510.407 -292.712)" fill="#cce6ff"/>
        <path id="Path_12122" data-name="Path 12122" d="M558.474,328.366h-7.463a.166.166,0,1,1,0-.332h7.463a.166.166,0,1,1,0,.332" transform="translate(-510.407 -303.953)" fill="#cce6ff"/>
        <path id="Path_12123" data-name="Path 12123" d="M512.1,346.344a.777.777,0,1,1-.227-.55.777.777,0,0,1,.227.55" transform="translate(-473.063 -320.198)" fill="#cce6ff"/>
        <path id="Path_12124" data-name="Path 12124" d="M558.474,348.161h-7.463a.166.166,0,1,1,0-.332h7.463a.166.166,0,1,1,0,.332" transform="translate(-510.407 -322.294)" fill="#cce6ff"/>
        <path id="Path_12125" data-name="Path 12125" d="M558.474,360.292h-7.463a.166.166,0,1,1,0-.332h7.463a.166.166,0,1,1,0,.332" transform="translate(-510.407 -333.535)" fill="#cce6ff"/>
        <path id="Path_12126" data-name="Path 12126" d="M558.474,372.422h-7.463a.166.166,0,1,1,0-.332h7.463a.166.166,0,1,1,0,.332" transform="translate(-510.407 -344.774)" fill="#cce6ff"/>
        <path id="Path_12127" data-name="Path 12127" d="M512.1,390.4a.777.777,0,1,1-.777-.777.777.777,0,0,1,.777.777" transform="translate(-473.063 -361.02)" fill="#cce6ff"/>
        <path id="Path_12128" data-name="Path 12128" d="M558.474,392.218h-7.463a.166.166,0,1,1,0-.332h7.463a.166.166,0,1,1,0,.332" transform="translate(-510.407 -363.117)" fill="#cce6ff"/>
        <path id="Path_12129" data-name="Path 12129" d="M558.474,404.349h-7.463a.166.166,0,1,1,0-.332h7.463a.166.166,0,1,1,0,.332" transform="translate(-510.407 -374.358)" fill="#cce6ff"/>
        <path id="Path_12130" data-name="Path 12130" d="M558.474,416.479h-7.463a.166.166,0,1,1,0-.332h7.463a.166.166,0,1,1,0,.332" transform="translate(-510.407 -385.597)" fill="#cce6ff"/>
        <path id="Path_12131" data-name="Path 12131" d="M362.716,456.745h-8.9a.415.415,0,0,1-.415-.415V444.745a.415.415,0,0,1,.415-.415h8.9a.415.415,0,0,1,.415.415V456.33a.415.415,0,0,1-.415.415" transform="translate(-327.454 -411.711)" fill="#cce6ff"/>
        <path id="Path_12132" data-name="Path 12132" d="M510.836,445.107a.777.777,0,1,1-.227-.55.777.777,0,0,1,.227.55" transform="translate(-471.894 -411.711)" fill="#cce6ff"/>
        <path id="Path_12133" data-name="Path 12133" d="M557.214,446.925h-7.463a.166.166,0,1,1,0-.332h7.463a.166.166,0,1,1,0,.332" transform="translate(-509.239 -413.808)" fill="#cce6ff"/>
        <path id="Path_12134" data-name="Path 12134" d="M557.214,459.055h-7.463a.166.166,0,1,1,0-.332h7.463a.166.166,0,1,1,0,.332" transform="translate(-509.239 -425.048)" fill="#cce6ff"/>
        <path id="Path_12135" data-name="Path 12135" d="M557.214,471.186h-7.463a.166.166,0,1,1,0-.332h7.463a.166.166,0,1,1,0,.332" transform="translate(-509.239 -436.288)" fill="#cce6ff"/>
        <path id="Path_12136" data-name="Path 12136" d="M510.836,489.164a.777.777,0,1,1-.777-.777.777.777,0,0,1,.777.777" transform="translate(-471.894 -452.534)" fill="#cce6ff"/>
        <path id="Path_12137" data-name="Path 12137" d="M557.214,490.981h-7.463a.166.166,0,1,1,0-.332h7.463a.166.166,0,1,1,0,.332" transform="translate(-509.239 -454.63)" fill="#cce6ff"/>
        <path id="Path_12138" data-name="Path 12138" d="M557.214,503.112h-7.463a.166.166,0,1,1,0-.332h7.463a.166.166,0,1,1,0,.332" transform="translate(-509.239 -465.87)" fill="#cce6ff"/>
        <path id="Path_12139" data-name="Path 12139" d="M557.214,515.242h-7.463a.166.166,0,0,1,0-.332h7.463a.166.166,0,1,1,0,.332" transform="translate(-509.239 -477.11)" fill="#cce6ff"/>
        <path id="Path_12140" data-name="Path 12140" d="M510.836,533.22a.777.777,0,1,1-.777-.777.777.777,0,0,1,.777.777" transform="translate(-471.894 -493.356)" fill="#cce6ff"/>
        <path id="Path_12141" data-name="Path 12141" d="M557.214,535.038h-7.463a.166.166,0,0,1,0-.332h7.463a.166.166,0,1,1,0,.332" transform="translate(-509.239 -495.453)" fill="#cce6ff"/>
        <path id="Path_12142" data-name="Path 12142" d="M557.214,547.168h-7.463a.166.166,0,0,1,0-.332h7.463a.166.166,0,1,1,0,.332" transform="translate(-509.239 -506.692)" fill="#cce6ff"/>
        <path id="Path_12143" data-name="Path 12143" d="M557.214,559.3h-7.463a.166.166,0,1,1,0-.332h7.463a.166.166,0,0,1,0,.332" transform="translate(-509.239 -517.933)" fill="#cce6ff"/>
        <path id="Path_12144" data-name="Path 12144" d="M510.836,577.277a.777.777,0,1,1-.777-.777.777.777,0,0,1,.777.777" transform="translate(-471.894 -534.178)" fill="#cce6ff"/>
        <path id="Path_12145" data-name="Path 12145" d="M557.214,579.094h-7.463a.166.166,0,0,1,0-.332h7.463a.166.166,0,1,1,0,.332" transform="translate(-509.239 -536.274)" fill="#cce6ff"/>
        <path id="Path_12146" data-name="Path 12146" d="M557.214,591.225h-7.463a.166.166,0,0,1,0-.332h7.463a.166.166,0,1,1,0,.332" transform="translate(-509.239 -547.515)" fill="#cce6ff"/>
        <path id="Path_12147" data-name="Path 12147" d="M557.214,603.356h-7.463a.166.166,0,0,1,0-.332h7.463a.166.166,0,1,1,0,.332" transform="translate(-509.239 -558.755)" fill="#cce6ff"/>
        <path id="Path_12148" data-name="Path 12148" d="M361.456,643.622h-8.9a.415.415,0,0,1-.415-.415V631.622a.415.415,0,0,1,.415-.415h8.9a.415.415,0,0,1,.415.415v11.585a.415.415,0,0,1-.415.415" transform="translate(-326.286 -584.869)" fill="#cce6ff"/>
        <path id="Path_12149" data-name="Path 12149" d="M509.576,631.984a.777.777,0,1,1-.778-.778.777.777,0,0,1,.778.778" transform="translate(-470.727 -584.868)" fill="#cce6ff"/>
        <path id="Path_12150" data-name="Path 12150" d="M555.954,633.8h-7.463a.166.166,0,0,1,0-.332h7.463a.166.166,0,1,1,0,.332" transform="translate(-508.072 -586.965)" fill="#cce6ff"/>
        <path id="Path_12151" data-name="Path 12151" d="M555.954,645.931h-7.463a.166.166,0,0,1,0-.332h7.463a.166.166,0,1,1,0,.332" transform="translate(-508.072 -598.205)" fill="#cce6ff"/>
        <path id="Path_12152" data-name="Path 12152" d="M555.954,658.062h-7.463a.166.166,0,0,1,0-.332h7.463a.166.166,0,1,1,0,.332" transform="translate(-508.072 -609.445)" fill="#cce6ff"/>
        <path id="Path_12153" data-name="Path 12153" d="M509.576,676.04a.777.777,0,1,1-.778-.777.777.777,0,0,1,.778.777" transform="translate(-470.727 -625.691)" fill="#cce6ff"/>
        <path id="Path_12154" data-name="Path 12154" d="M555.954,677.858h-7.463a.166.166,0,0,1,0-.332h7.463a.166.166,0,1,1,0,.332" transform="translate(-508.072 -627.788)" fill="#cce6ff"/>
        <path id="Path_12155" data-name="Path 12155" d="M555.954,689.988h-7.463a.166.166,0,0,1,0-.332h7.463a.166.166,0,1,1,0,.332" transform="translate(-508.072 -639.028)" fill="#cce6ff"/>
        <path id="Path_12156" data-name="Path 12156" d="M555.954,702.119h-7.463a.166.166,0,0,1,0-.332h7.463a.166.166,0,1,1,0,.332" transform="translate(-508.072 -650.268)" fill="#cce6ff"/>
        <path id="Path_12157" data-name="Path 12157" d="M509.576,720.1a.777.777,0,1,1-.228-.55.777.777,0,0,1,.228.55" transform="translate(-470.727 -666.514)" fill="#cce6ff"/>
        <path id="Path_12158" data-name="Path 12158" d="M555.954,721.914h-7.463a.166.166,0,1,1,0-.332h7.463a.166.166,0,0,1,0,.332" transform="translate(-508.072 -668.61)" fill="#cce6ff"/>
        <path id="Path_12159" data-name="Path 12159" d="M555.954,734.045h-7.463a.166.166,0,1,1,0-.332h7.463a.166.166,0,0,1,0,.332" transform="translate(-508.072 -679.85)" fill="#cce6ff"/>
        <path id="Path_12160" data-name="Path 12160" d="M555.954,746.175h-7.463a.166.166,0,0,1,0-.332h7.463a.166.166,0,1,1,0,.332" transform="translate(-508.072 -691.09)" fill="#cce6ff"/>
        <path id="Path_12161" data-name="Path 12161" d="M509.576,764.153a.777.777,0,1,1-.228-.55.777.777,0,0,1,.228.55" transform="translate(-470.727 -707.336)" fill="#cce6ff"/>
        <path id="Path_12162" data-name="Path 12162" d="M555.954,765.971h-7.463a.166.166,0,0,1,0-.332h7.463a.166.166,0,1,1,0,.332" transform="translate(-508.072 -709.432)" fill="#cce6ff"/>
        <path id="Path_12163" data-name="Path 12163" d="M555.954,778.1h-7.463a.166.166,0,1,1,0-.332h7.463a.166.166,0,0,1,0,.332" transform="translate(-508.072 -720.672)" fill="#cce6ff"/>
        <path id="Path_12164" data-name="Path 12164" d="M555.954,790.232h-7.463a.166.166,0,0,1,0-.332h7.463a.166.166,0,1,1,0,.332" transform="translate(-508.072 -731.913)" fill="#cce6ff"/>
        <path id="Path_12165" data-name="Path 12165" d="M380.606,276.851h-6.019a.346.346,0,0,1-.346-.346v-4.719a.346.346,0,0,1,.346-.347h6.019a.346.346,0,0,1,.346.347V276.5a.346.346,0,0,1-.346.346" transform="translate(-346.767 -251.512)" fill="#f4f7fd"/>
        <path id="Path_12166" data-name="Path 12166" d="M380.746,356.6h-6.3a.206.206,0,0,1-.206-.206v-.032a.206.206,0,0,1,.206-.206h6.3a.206.206,0,0,1,.206.206v.032a.206.206,0,0,1-.206.206" transform="translate(-346.767 -330.012)" fill="#f4f7fd"/>
        <path id="Path_12167" data-name="Path 12167" d="M380.746,369.5h-6.3a.206.206,0,0,1-.206-.206v-.032a.206.206,0,0,1,.206-.206h6.3a.206.206,0,0,1,.206.206v.032a.206.206,0,0,1-.206.206" transform="translate(-346.767 -341.965)" fill="#f4f7fd"/>
        <path id="Path_12168" data-name="Path 12168" d="M380.746,382.4h-6.3a.206.206,0,0,1-.206-.206v-.032a.206.206,0,0,1,.206-.206h6.3a.206.206,0,0,1,.206.206v.032a.206.206,0,0,1-.206.206" transform="translate(-346.767 -353.919)" fill="#f4f7fd"/>
        <path id="Path_12169" data-name="Path 12169" d="M380.746,395.3h-6.3a.206.206,0,0,1-.206-.206v-.032a.206.206,0,0,1,.206-.206h6.3a.206.206,0,0,1,.206.206v.032a.206.206,0,0,1-.206.206" transform="translate(-346.767 -365.872)" fill="#f4f7fd"/>
        <path id="Path_12170" data-name="Path 12170" d="M380.746,408.2h-6.3a.206.206,0,0,1-.206-.206v-.032a.206.206,0,0,1,.206-.206h6.3a.206.206,0,0,1,.206.206V408a.206.206,0,0,1-.206.206" transform="translate(-346.767 -377.825)" fill="#f4f7fd"/>
        <path id="Path_12171" data-name="Path 12171" d="M380.606,463.108h-6.019a.346.346,0,0,1-.346-.346v-4.719a.346.346,0,0,1,.346-.346h6.019a.346.346,0,0,1,.346.346v4.719a.346.346,0,0,1-.346.346" transform="translate(-346.767 -424.096)" fill="#f4f7fd"/>
        <path id="Path_12172" data-name="Path 12172" d="M380.746,542.86h-6.3a.206.206,0,0,1-.206-.206v-.032a.206.206,0,0,1,.206-.206h6.3a.206.206,0,0,1,.206.206v.032a.206.206,0,0,1-.206.206" transform="translate(-346.767 -502.596)" fill="#f4f7fd"/>
        <path id="Path_12173" data-name="Path 12173" d="M380.746,555.76h-6.3a.206.206,0,0,1-.206-.206v-.032a.206.206,0,0,1,.206-.206h6.3a.206.206,0,0,1,.206.206v.032a.206.206,0,0,1-.206.206" transform="translate(-346.767 -514.549)" fill="#f4f7fd"/>
        <path id="Path_12174" data-name="Path 12174" d="M380.746,568.661h-6.3a.206.206,0,0,1-.206-.206v-.032a.206.206,0,0,1,.206-.206h6.3a.206.206,0,0,1,.206.206v.032a.206.206,0,0,1-.206.206" transform="translate(-346.767 -526.503)" fill="#f4f7fd"/>
        <path id="Path_12175" data-name="Path 12175" d="M380.746,581.561h-6.3a.206.206,0,0,1-.206-.206v-.032a.206.206,0,0,1,.206-.206h6.3a.206.206,0,0,1,.206.206v.032a.206.206,0,0,1-.206.206" transform="translate(-346.767 -538.456)" fill="#f4f7fd"/>
        <path id="Path_12176" data-name="Path 12176" d="M380.746,594.461h-6.3a.206.206,0,0,1-.206-.206v-.032a.206.206,0,0,1,.206-.206h6.3a.206.206,0,0,1,.206.206v.032a.206.206,0,0,1-.206.206" transform="translate(-346.767 -550.409)" fill="#f4f7fd"/>
        <path id="Path_12177" data-name="Path 12177" d="M380.606,649.365h-6.019a.346.346,0,0,1-.346-.346V644.3a.346.346,0,0,1,.346-.346h6.019a.346.346,0,0,1,.346.346v4.719a.346.346,0,0,1-.346.346" transform="translate(-346.767 -596.68)" fill="#f4f7fd"/>
        <path id="Path_12178" data-name="Path 12178" d="M380.746,729.117h-6.3a.206.206,0,0,1-.206-.206v-.032a.206.206,0,0,1,.206-.206h6.3a.206.206,0,0,1,.206.206v.032a.206.206,0,0,1-.206.206" transform="translate(-346.767 -675.179)" fill="#f4f7fd"/>
        <path id="Path_12179" data-name="Path 12179" d="M380.746,742.017h-6.3a.206.206,0,0,1-.206-.206v-.032a.206.206,0,0,1,.206-.206h6.3a.206.206,0,0,1,.206.206v.032a.206.206,0,0,1-.206.206" transform="translate(-346.767 -687.132)" fill="#f4f7fd"/>
        <path id="Path_12180" data-name="Path 12180" d="M380.746,754.918h-6.3a.206.206,0,0,1-.206-.206v-.032a.206.206,0,0,1,.206-.206h6.3a.206.206,0,0,1,.206.206v.032a.206.206,0,0,1-.206.206" transform="translate(-346.767 -699.086)" fill="#f4f7fd"/>
        <path id="Path_12181" data-name="Path 12181" d="M380.746,767.818h-6.3a.206.206,0,0,1-.206-.206v-.032a.206.206,0,0,1,.206-.206h6.3a.206.206,0,0,1,.206.206v.032a.206.206,0,0,1-.206.206" transform="translate(-346.767 -711.039)" fill="#f4f7fd"/>
        <path id="Path_12182" data-name="Path 12182" d="M380.746,780.718h-6.3a.206.206,0,0,1-.206-.206v-.032a.206.206,0,0,1,.206-.206h6.3a.206.206,0,0,1,.206.206v.032a.206.206,0,0,1-.206.206" transform="translate(-346.767 -722.992)" fill="#f4f7fd"/>
        <path id="Path_12183" data-name="Path 12183" d="M1151.09,273.942h-23.228a.9.9,0,0,1-.9-.9V230.623a.9.9,0,0,1,.9-.9h23.228a.9.9,0,0,1,.9.9v42.414a.9.9,0,0,1-.9.9" transform="translate(-1044.228 -212.854)" fill="#f4f7fd"/>
        <path id="Path_12184" data-name="Path 12184" d="M1343.13,251.415h-7.267a.24.24,0,0,1,0-.48h7.267a.24.24,0,1,1,0,.48" transform="translate(-1237.575 -232.514)" fill="#cce6ff"/>
        <path id="Path_12185" data-name="Path 12185" d="M1343.13,266.374h-7.267a.24.24,0,1,1,0-.48h7.267a.24.24,0,0,1,0,.48" transform="translate(-1237.575 -246.374)" fill="#cce6ff"/>
        <path id="Path_12186" data-name="Path 12186" d="M1343.13,281.334h-7.267a.24.24,0,1,1,0-.48h7.267a.24.24,0,0,1,0,.48" transform="translate(-1237.575 -260.236)" fill="#cce6ff"/>
        <path id="Path_12187" data-name="Path 12187" d="M1343.13,296.293h-7.267a.24.24,0,1,1,0-.48h7.267a.24.24,0,0,1,0,.48" transform="translate(-1237.575 -274.097)" fill="#cce6ff"/>
        <path id="Path_12188" data-name="Path 12188" d="M1343.13,311.253h-7.267a.24.24,0,1,1,0-.48h7.267a.24.24,0,0,1,0,.48" transform="translate(-1237.575 -287.959)" fill="#cce6ff"/>
        <path id="Path_12189" data-name="Path 12189" d="M1343.13,326.212h-7.267a.24.24,0,1,1,0-.48h7.267a.24.24,0,0,1,0,.48" transform="translate(-1237.575 -301.82)" fill="#cce6ff"/>
        <path id="Path_12190" data-name="Path 12190" d="M1343.13,341.172h-7.267a.24.24,0,1,1,0-.48h7.267a.24.24,0,0,1,0,.48" transform="translate(-1237.575 -315.681)" fill="#cce6ff"/>
        <path id="Path_12191" data-name="Path 12191" d="M1343.13,625.6h-7.267a.24.24,0,0,1,0-.48h7.267a.24.24,0,1,1,0,.48" transform="translate(-1237.575 -579.23)" fill="#cce6ff"/>
        <path id="Path_12192" data-name="Path 12192" d="M1343.13,640.56h-7.267a.24.24,0,1,1,0-.48h7.267a.24.24,0,1,1,0,.48" transform="translate(-1237.575 -593.091)" fill="#cce6ff"/>
        <path id="Path_12193" data-name="Path 12193" d="M1343.13,655.52h-7.267a.24.24,0,1,1,0-.48h7.267a.24.24,0,1,1,0,.48" transform="translate(-1237.575 -606.953)" fill="#cce6ff"/>
        <path id="Path_12194" data-name="Path 12194" d="M1343.13,670.479h-7.267a.24.24,0,1,1,0-.48h7.267a.24.24,0,1,1,0,.48" transform="translate(-1237.575 -620.814)" fill="#cce6ff"/>
        <path id="Path_12195" data-name="Path 12195" d="M1343.13,685.439h-7.267a.24.24,0,0,1,0-.48h7.267a.24.24,0,1,1,0,.48" transform="translate(-1237.575 -634.675)" fill="#cce6ff"/>
        <path id="Path_12196" data-name="Path 12196" d="M1343.13,700.4h-7.267a.24.24,0,1,1,0-.48h7.267a.24.24,0,1,1,0,.48" transform="translate(-1237.575 -648.536)" fill="#cce6ff"/>
        <path id="Path_12197" data-name="Path 12197" d="M1343.13,715.358h-7.267a.24.24,0,0,1,0-.48h7.267a.24.24,0,1,1,0,.48" transform="translate(-1237.575 -662.398)" fill="#cce6ff"/>
        <path id="Path_12198" data-name="Path 12198" d="M1343.13,732.151h-7.267a.24.24,0,0,1,0-.48h7.267a.24.24,0,1,1,0,.48" transform="translate(-1237.575 -677.958)" fill="#cce6ff"/>
        <path id="Path_12199" data-name="Path 12199" d="M1343.13,747.11h-7.267a.24.24,0,0,1,0-.48h7.267a.24.24,0,1,1,0,.48" transform="translate(-1237.575 -691.819)" fill="#cce6ff"/>
        <path id="Path_12200" data-name="Path 12200" d="M1343.13,762.069h-7.267a.24.24,0,0,1,0-.48h7.267a.24.24,0,1,1,0,.48" transform="translate(-1237.575 -705.68)" fill="#cce6ff"/>
        <path id="Path_12201" data-name="Path 12201" d="M1343.13,777.029h-7.267a.24.24,0,1,1,0-.48h7.267a.24.24,0,1,1,0,.48" transform="translate(-1237.575 -719.542)" fill="#cce6ff"/>
        <path id="Path_12202" data-name="Path 12202" d="M1343.13,791.988h-7.267a.24.24,0,1,1,0-.48h7.267a.24.24,0,1,1,0,.48" transform="translate(-1237.575 -733.403)" fill="#cce6ff"/>
        <path id="Path_12203" data-name="Path 12203" d="M1343.13,806.948h-7.267a.24.24,0,1,1,0-.48h7.267a.24.24,0,1,1,0,.48" transform="translate(-1237.575 -747.264)" fill="#cce6ff"/>
        <path id="Path_12204" data-name="Path 12204" d="M1343.13,356.131h-7.267a.24.24,0,1,1,0-.48h7.267a.24.24,0,0,1,0,.48" transform="translate(-1237.575 -329.542)" fill="#cce6ff"/>
        <path id="Path_12205" data-name="Path 12205" d="M1343.13,371.09h-7.267a.24.24,0,1,1,0-.48h7.267a.24.24,0,0,1,0,.48" transform="translate(-1237.575 -343.403)" fill="#cce6ff"/>
        <path id="Path_12206" data-name="Path 12206" d="M1343.13,386.05h-7.267a.24.24,0,1,1,0-.48h7.267a.24.24,0,0,1,0,.48" transform="translate(-1237.575 -357.265)" fill="#cce6ff"/>
        <path id="Path_12207" data-name="Path 12207" d="M1343.13,401.009h-7.267a.24.24,0,1,1,0-.48h7.267a.24.24,0,0,1,0,.48" transform="translate(-1237.575 -371.126)" fill="#cce6ff"/>
        <path id="Path_12208" data-name="Path 12208" d="M1343.13,415.969h-7.267a.24.24,0,1,1,0-.48h7.267a.24.24,0,0,1,0,.48" transform="translate(-1237.575 -384.987)" fill="#cce6ff"/>
        <path id="Path_12209" data-name="Path 12209" d="M1343.13,430.928h-7.267a.24.24,0,1,1,0-.48h7.267a.24.24,0,0,1,0,.48" transform="translate(-1237.575 -398.848)" fill="#cce6ff"/>
        <path id="Path_12210" data-name="Path 12210" d="M1343.13,445.888h-7.267a.24.24,0,1,1,0-.48h7.267a.24.24,0,0,1,0,.48" transform="translate(-1237.575 -412.71)" fill="#cce6ff"/>
        <path id="Path_12211" data-name="Path 12211" d="M1343.13,460.847h-7.267a.24.24,0,1,1,0-.48h7.267a.24.24,0,0,1,0,.48" transform="translate(-1237.575 -426.571)" fill="#cce6ff"/>
        <path id="Path_12212" data-name="Path 12212" d="M1343.13,475.807h-7.267a.24.24,0,1,1,0-.48h7.267a.24.24,0,0,1,0,.48" transform="translate(-1237.575 -440.433)" fill="#cce6ff"/>
        <path id="Path_12213" data-name="Path 12213" d="M1164.85,509.69h-10.79a.24.24,0,1,1,0-.48h10.791a.24.24,0,0,1,0,.48" transform="translate(-1069.117 -471.828)" fill="#cce6ff"/>
        <path id="Path_12214" data-name="Path 12214" d="M1164.85,524.649h-10.79a.24.24,0,0,1,0-.48h10.791a.24.24,0,0,1,0,.48" transform="translate(-1069.117 -485.689)" fill="#cce6ff"/>
        <path id="Path_12215" data-name="Path 12215" d="M1164.85,539.609h-10.79a.24.24,0,0,1,0-.48h10.791a.24.24,0,0,1,0,.48" transform="translate(-1069.117 -499.551)" fill="#cce6ff"/>
        <path id="Path_12216" data-name="Path 12216" d="M1164.85,554.568h-10.79a.24.24,0,0,1,0-.48h10.791a.24.24,0,0,1,0,.48" transform="translate(-1069.117 -513.412)" fill="#cce6ff"/>
        <path id="Path_12217" data-name="Path 12217" d="M1164.85,569.528h-10.79a.24.24,0,0,1,0-.48h10.791a.24.24,0,0,1,0,.48" transform="translate(-1069.117 -527.274)" fill="#cce6ff"/>
        <path id="Path_12218" data-name="Path 12218" d="M1164.85,584.487h-10.79a.24.24,0,0,1,0-.48h10.791a.24.24,0,0,1,0,.48" transform="translate(-1069.117 -541.134)" fill="#cce6ff"/>
        <path id="Path_12219" data-name="Path 12219" d="M1164.85,599.447h-10.79a.24.24,0,0,1,0-.48h10.791a.24.24,0,0,1,0,.48" transform="translate(-1069.117 -554.996)" fill="#cce6ff"/>
        <path id="Path_12220" data-name="Path 12220" d="M1164.85,614.406h-10.79a.24.24,0,0,1,0-.48h10.791a.24.24,0,0,1,0,.48" transform="translate(-1069.117 -568.857)" fill="#cce6ff"/>
        <path id="Path_12221" data-name="Path 12221" d="M1164.85,629.365h-10.79a.24.24,0,0,1,0-.48h10.791a.24.24,0,0,1,0,.48" transform="translate(-1069.117 -582.718)" fill="#cce6ff"/>
        <path id="Path_12222" data-name="Path 12222" d="M1164.85,644.325h-10.79a.24.24,0,0,1,0-.48h10.791a.24.24,0,0,1,0,.48" transform="translate(-1069.117 -596.58)" fill="#cce6ff"/>
        <path id="Path_12223" data-name="Path 12223" d="M1164.85,659.284h-10.79a.24.24,0,0,1,0-.48h10.791a.24.24,0,0,1,0,.48" transform="translate(-1069.117 -610.44)" fill="#cce6ff"/>
        <path id="Path_12224" data-name="Path 12224" d="M1164.85,674.244h-10.79a.24.24,0,0,1,0-.48h10.791a.24.24,0,0,1,0,.48" transform="translate(-1069.117 -624.302)" fill="#cce6ff"/>
        <path id="Path_12225" data-name="Path 12225" d="M1164.85,689.2h-10.79a.24.24,0,0,1,0-.48h10.791a.24.24,0,0,1,0,.48" transform="translate(-1069.117 -638.163)" fill="#cce6ff"/>
        <path id="Path_12226" data-name="Path 12226" d="M1164.85,704.163h-10.79a.24.24,0,0,1,0-.48h10.791a.24.24,0,0,1,0,.48" transform="translate(-1069.117 -652.025)" fill="#cce6ff"/>
        <path id="Path_12227" data-name="Path 12227" d="M1164.85,719.122h-10.79a.24.24,0,0,1,0-.48h10.791a.24.24,0,0,1,0,.48" transform="translate(-1069.117 -665.886)" fill="#cce6ff"/>
        <path id="Path_12228" data-name="Path 12228" d="M1164.85,734.082h-10.79a.24.24,0,0,1,0-.48h10.791a.24.24,0,0,1,0,.48" transform="translate(-1069.117 -679.747)" fill="#cce6ff"/>
        <path id="Path_12229" data-name="Path 12229" d="M1164.85,748.053h-10.79a.24.24,0,0,1,0-.48h10.791a.24.24,0,0,1,0,.48" transform="translate(-1069.117 -692.693)" fill="#cce6ff"/>
        <path id="Path_12230" data-name="Path 12230" d="M1164.85,763.013h-10.79a.24.24,0,0,1,0-.48h10.791a.24.24,0,0,1,0,.48" transform="translate(-1069.117 -706.555)" fill="#cce6ff"/>
        <path id="Path_12231" data-name="Path 12231" d="M1164.85,777.972h-10.79a.24.24,0,0,1,0-.48h10.791a.24.24,0,0,1,0,.48" transform="translate(-1069.117 -720.415)" fill="#cce6ff"/>
        <path id="Path_12232" data-name="Path 12232" d="M1164.85,792.932h-10.79a.24.24,0,0,1,0-.48h10.791a.24.24,0,0,1,0,.48" transform="translate(-1069.117 -734.277)" fill="#cce6ff"/>
        <path id="Path_12233" data-name="Path 12233" d="M1164.85,807.891h-10.79a.24.24,0,0,1,0-.48h10.791a.24.24,0,0,1,0,.48" transform="translate(-1069.117 -748.138)" fill="#cce6ff"/>
        <path id="Path_12234" data-name="Path 12234" d="M1343.17,515.58h-7.335a.206.206,0,0,1-.206-.206V508.6a.206.206,0,0,1,.206-.206h7.335a.206.206,0,0,1,.206.206v6.777a.206.206,0,0,1-.206.206" transform="translate(-1237.575 -471.069)" fill="#cce6ff"/>
        <path id="Path_12235" data-name="Path 12235" d="M1164.81,267.887H1154.1a.278.278,0,0,1-.278-.278v-16.4a.278.278,0,0,1,.278-.278h10.716a.278.278,0,0,1,.278.278v16.4a.278.278,0,0,1-.278.278" transform="translate(-1069.118 -232.513)" fill="#cce6ff"/>
        <path id="Path_12236" data-name="Path 12236" d="M1177.24,270.242h-8.816a.168.168,0,0,1-.168-.168V265.5a.168.168,0,0,1,.168-.168h8.816a.168.168,0,0,1,.168.168v4.579a.168.168,0,0,1-.168.168" transform="translate(-1082.494 -245.85)" fill="#f4f7fd"/>
        <path id="Path_12237" data-name="Path 12237" d="M1177.24,345.322h-8.816a.168.168,0,0,1-.168-.168v-4.579a.168.168,0,0,1,.168-.168h8.816a.168.168,0,0,1,.168.168v4.579a.168.168,0,0,1-.168.168" transform="translate(-1082.494 -315.418)" fill="#f4f7fd"/>
        <path id="Path_12238" data-name="Path 12238" d="M1172.42,419.569h-4.02a.145.145,0,0,1-.146-.145v-3.789a.145.145,0,0,1,.146-.145h4.017a.145.145,0,0,1,.145.145v3.789a.145.145,0,0,1-.145.145" transform="translate(-1082.494 -384.987)" fill="#f4f7fd"/>
        <path id="Path_12239" data-name="Path 12239" d="M1237.08,419.569h-4.118a.147.147,0,0,1-.147-.147v-3.786a.147.147,0,0,1,.147-.147h4.118a.147.147,0,0,1,.147.147v3.786a.147.147,0,0,1-.147.147" transform="translate(-1142.31 -384.987)" fill="#f4f7fd"/>
        <path id="Path_12240" data-name="Path 12240" d="M754.638,273.942H731.41a.9.9,0,0,1-.9-.9V230.623a.9.9,0,0,1,.9-.9h23.228a.9.9,0,0,1,.9.9v42.414a.9.9,0,0,1-.9.9" transform="translate(-676.878 -212.854)" fill="#f4f7fd"/>
        <path id="Path_12241" data-name="Path 12241" d="M766.99,267.342h-9.034a.417.417,0,0,1-.417-.417v-9.034a.417.417,0,0,1,.417-.417h9.034a.417.417,0,0,1,.417.417v9.034a.417.417,0,0,1-.417.417" transform="translate(-701.928 -238.573)" fill="#cce6ff"/>
        <path id="Path_12242" data-name="Path 12242" d="M954.056,258.075h-7a.218.218,0,0,1-.218-.218v-.164a.218.218,0,0,1,.218-.218h7a.218.218,0,0,1,.218.218v.164a.218.218,0,0,1-.218.218" transform="translate(-877.328 -238.574)" fill="#cce6ff"/>
        <path id="Path_12243" data-name="Path 12243" d="M954.056,272.319h-7a.218.218,0,0,1-.218-.218v-.164a.218.218,0,0,1,.218-.218h7a.218.218,0,0,1,.218.218v.164a.218.218,0,0,1-.218.218" transform="translate(-877.328 -251.773)" fill="#cce6ff"/>
        <path id="Path_12244" data-name="Path 12244" d="M954.056,286.563h-7a.218.218,0,0,1-.218-.218v-.164a.218.218,0,0,1,.218-.218h7a.218.218,0,0,1,.218.218v.164a.218.218,0,0,1-.218.218" transform="translate(-877.328 -264.971)" fill="#cce6ff"/>
        <path id="Path_12245" data-name="Path 12245" d="M954.056,300.807h-7a.218.218,0,0,1-.218-.218v-.164a.218.218,0,0,1,.218-.218h7a.218.218,0,0,1,.218.218v.164a.218.218,0,0,1-.218.218" transform="translate(-877.328 -278.169)" fill="#cce6ff"/>
        <path id="Path_12246" data-name="Path 12246" d="M954.056,315.052h-7a.218.218,0,0,1-.218-.218v-.164a.218.218,0,0,1,.218-.218h7a.218.218,0,0,1,.218.218v.164a.218.218,0,0,1-.218.218" transform="translate(-877.328 -291.369)" fill="#cce6ff"/>
        <path id="Path_12247" data-name="Path 12247" d="M954.056,329.3h-7a.218.218,0,0,1-.218-.218v-.164a.218.218,0,0,1,.218-.218h7a.218.218,0,0,1,.218.218v.164a.218.218,0,0,1-.218.218" transform="translate(-877.328 -304.567)" fill="#cce6ff"/>
        <path id="Path_12248" data-name="Path 12248" d="M954.056,343.54h-7a.218.218,0,0,1-.218-.218v-.164a.218.218,0,0,1,.218-.218h7a.218.218,0,0,1,.218.218v.164a.218.218,0,0,1-.218.218" transform="translate(-877.328 -317.765)" fill="#cce6ff"/>
        <path id="Path_12249" data-name="Path 12249" d="M954.056,357.784h-7a.218.218,0,0,1-.218-.218V357.4a.218.218,0,0,1,.218-.218h7a.218.218,0,0,1,.218.218v.164a.218.218,0,0,1-.218.218" transform="translate(-877.328 -330.964)" fill="#cce6ff"/>
        <path id="Path_12250" data-name="Path 12250" d="M954.056,372.028h-7a.218.218,0,0,1-.218-.218v-.164a.218.218,0,0,1,.218-.218h7a.218.218,0,0,1,.218.218v.164a.218.218,0,0,1-.218.218" transform="translate(-877.328 -344.162)" fill="#cce6ff"/>
        <path id="Path_12251" data-name="Path 12251" d="M954.056,386.273h-7a.218.218,0,0,1-.218-.218v-.164a.218.218,0,0,1,.218-.218h7a.218.218,0,0,1,.218.218v.164a.218.218,0,0,1-.218.218" transform="translate(-877.328 -357.361)" fill="#cce6ff"/>
        <path id="Path_12252" data-name="Path 12252" d="M911.538,264.035a.523.523,0,1,1-.523-.523.523.523,0,0,1,.523.523" transform="translate(-843.652 -244.167)" fill="#cce6ff"/>
        <path id="Path_12253" data-name="Path 12253" d="M911.538,320.035a.523.523,0,1,1-.523-.523.523.523,0,0,1,.523.523" transform="translate(-843.652 -296.056)" fill="#cce6ff"/>
        <path id="Path_12254" data-name="Path 12254" d="M911.538,376.035a.523.523,0,1,1-.523-.523.523.523,0,0,1,.523.523" transform="translate(-843.652 -347.945)" fill="#cce6ff"/>
        <rect id="Rectangle_3803" data-name="Rectangle 3803" width="21.334" height="1.22" transform="translate(55.612 30.379)" fill="#cce6ff"/>
        <rect id="Rectangle_3804" data-name="Rectangle 3804" width="21.334" height="1.22" transform="translate(55.612 32.495)" fill="#cce6ff"/>
        <rect id="Rectangle_3805" data-name="Rectangle 3805" width="11.228" height="1.22" transform="translate(55.612 34.612)" fill="#cce6ff"/>
        <path id="Path_12255" data-name="Path 12255" d="M778.712,510.292H757.7a.162.162,0,0,1-.162-.162v-.4a.162.162,0,0,1,.162-.162h21.009a.162.162,0,0,1,.162.162v.4a.162.162,0,0,1-.162.162" transform="translate(-701.928 -472.16)" fill="#cce6ff"/>
        <path id="Path_12256" data-name="Path 12256" d="M778.712,530.5H757.7a.162.162,0,0,1-.162-.162v-.4a.162.162,0,0,1,.162-.162h21.009a.162.162,0,0,1,.162.162v.4a.162.162,0,0,1-.162.162" transform="translate(-701.928 -490.881)" fill="#cce6ff"/>
        <path id="Path_12257" data-name="Path 12257" d="M778.712,550.7H757.7a.162.162,0,0,1-.162-.162v-.4a.162.162,0,0,1,.162-.162h21.009a.162.162,0,0,1,.162.162v.4a.162.162,0,0,1-.162.162" transform="translate(-701.928 -509.602)" fill="#cce6ff"/>
        <path id="Path_12258" data-name="Path 12258" d="M778.712,570.9H757.7a.162.162,0,0,1-.162-.162v-.4a.162.162,0,0,1,.162-.162h21.009a.162.162,0,0,1,.162.162v.4a.162.162,0,0,1-.162.162" transform="translate(-701.928 -528.322)" fill="#cce6ff"/>
        <path id="Path_12259" data-name="Path 12259" d="M778.712,591.107H757.7a.162.162,0,0,1-.162-.162v-.4a.162.162,0,0,1,.162-.162h21.009a.162.162,0,0,1,.162.162v.4a.162.162,0,0,1-.162.162" transform="translate(-701.928 -547.042)" fill="#cce6ff"/>
        <path id="Path_12260" data-name="Path 12260" d="M778.712,611.311H757.7a.162.162,0,0,1-.162-.162v-.4a.162.162,0,0,1,.162-.162h21.009a.162.162,0,0,1,.162.162v.4a.162.162,0,0,1-.162.162" transform="translate(-701.928 -565.763)" fill="#cce6ff"/>
        <path id="Path_12261" data-name="Path 12261" d="M768.219,631.515H757.655a.116.116,0,0,1-.116-.115v-.493a.115.115,0,0,1,.116-.115h10.563a.115.115,0,0,1,.115.115v.493a.115.115,0,0,1-.115.115" transform="translate(-701.928 -584.484)" fill="#cce6ff"/>
        <path id="Path_12262" data-name="Path 12262" d="M763.272,676.646h-5.151a.582.582,0,0,1-.582-.582v-5.483a.582.582,0,0,1,.582-.582h5.151a.582.582,0,0,1,.582.582v5.483a.582.582,0,0,1-.582.582" transform="translate(-701.928 -620.814)" fill="#cce6ff"/>
        <path id="Path_12263" data-name="Path 12263" d="M865.571,676.255H860.42a.582.582,0,0,1-.582-.582V670.19a.582.582,0,0,1,.582-.582h5.151a.582.582,0,0,1,.582.582v5.483a.582.582,0,0,1-.582.582" transform="translate(-796.717 -620.451)" fill="#cce6ff"/>
        <path id="Path_12264" data-name="Path 12264" d="M967.871,675.864H962.72a.582.582,0,0,1-.582-.582V669.8a.582.582,0,0,1,.582-.582h5.151a.582.582,0,0,1,.582.582v5.483a.582.582,0,0,1-.582.582" transform="translate(-891.507 -620.089)" fill="#cce6ff"/>
        <path id="Path_12265" data-name="Path 12265" d="M778.778,778.4H757.636a.1.1,0,0,1-.1-.1v-.438a.1.1,0,0,1,.1-.1h21.143a.1.1,0,0,1,.1.1v.438a.1.1,0,0,1-.1.1" transform="translate(-701.928 -720.672)" fill="#cce6ff"/>
        <path id="Path_12266" data-name="Path 12266" d="M778.778,794.394H757.636a.1.1,0,0,1-.1-.1v-.438a.1.1,0,0,1,.1-.1h21.143a.1.1,0,0,1,.1.1v.438a.1.1,0,0,1-.1.1" transform="translate(-701.928 -735.494)" fill="#cce6ff"/>
        <path id="Path_12267" data-name="Path 12267" d="M770.227,810.389H757.614a.074.074,0,0,1-.074-.074v-.481a.074.074,0,0,1,.074-.074h12.613a.074.074,0,0,1,.074.074v.481a.074.074,0,0,1-.074.074" transform="translate(-701.928 -750.315)" fill="#cce6ff"/>
        <path id="Path_12268" data-name="Path 12268" d="M170.634,321.161H154.016a.836.836,0,0,1-.836-.836V309.436a.836.836,0,0,1,.836-.836h16.617a.836.836,0,0,1,.836.836v10.888a.836.836,0,0,1-.836.836" transform="translate(-141.935 -285.945)" fill="#3c94f8"/>
        <path id="Path_12269" data-name="Path 12269" d="M161.672,317.2a.339.339,0,0,1-.271-.136l-2.534-3.309H146.032a.947.947,0,0,1-.946-.946V301.92a.947.947,0,0,1,.946-.946H162.65a.947.947,0,0,1,.946.946v10.888a.947.947,0,0,1-.946.946h-.631v3.1a.34.34,0,0,1-.234.326.352.352,0,0,1-.113.019m-15.64-16a.727.727,0,0,0-.726.726v10.888a.727.727,0,0,0,.726.726h12.943l2.6,3.4a.124.124,0,0,0,.222-.075v-3.32h.851a.727.727,0,0,0,.726-.726v-10.9a.727.727,0,0,0-.726-.726Z" transform="translate(-134.435 -278.879)" fill="#102a54"/>
        <path id="Path_12270" data-name="Path 12270" d="M696.727,20.186H680.109a.836.836,0,0,1-.836-.836V8.461a.836.836,0,0,1,.836-.836h16.617a.836.836,0,0,1,.836.836V19.349a.836.836,0,0,1-.836.836" transform="translate(-629.407 -7.065)" fill="#3c94f8"/>
        <path id="Path_12271" data-name="Path 12271" d="M687.765,16.224a.34.34,0,0,1-.271-.136L684.96,12.78H672.125a.947.947,0,0,1-.946-.946V.945A.947.947,0,0,1,672.125,0h16.617a.947.947,0,0,1,.946.946V11.834a.947.947,0,0,1-.946.946h-.631v3.1a.34.34,0,0,1-.234.326.351.351,0,0,1-.113.019m-15.64-16a.727.727,0,0,0-.726.726V11.834a.727.727,0,0,0,.726.726h12.943l2.6,3.4a.124.124,0,0,0,.222-.075V12.56h.851a.727.727,0,0,0,.726-.726V.945a.727.727,0,0,0-.726-.726Z" transform="translate(-621.907 0.001)" fill="#102a54"/>
        <path id="Path_12272" data-name="Path 12272" d="M1396.73,114.793h16.617a.836.836,0,0,0,.836-.836V103.068a.836.836,0,0,0-.836-.836H1396.73a.836.836,0,0,0-.836.836v10.888a.836.836,0,0,0,.836.836" transform="translate(-1293.42 -94.727)" fill="#3c94f8"/>
        <path id="Path_12273" data-name="Path 12273" d="M1402.91,110.831a.349.349,0,0,1-.113-.019.339.339,0,0,1-.234-.326v-3.1h-.631a.947.947,0,0,1-.946-.946V95.552a.947.947,0,0,1,.946-.946h16.618a.947.947,0,0,1,.946.946V106.44a.947.947,0,0,1-.946.946h-12.835l-2.534,3.309a.339.339,0,0,1-.271.136m-.978-16a.727.727,0,0,0-.726.726v10.888a.727.727,0,0,0,.726.726h.852v3.32a.124.124,0,0,0,.222.075l2.6-3.4h12.943a.727.727,0,0,0,.726-.726V95.552a.727.727,0,0,0-.726-.726Z" transform="translate(-1298.14 -87.661)" fill="#102a54"/>
        <path id="Path_12274" data-name="Path 12274" d="M438.01,604.3a20.069,20.069,0,1,0-29.8,5.717,1.043,1.043,0,0,0-.846.519l-14.476,25.018a1.044,1.044,0,0,0,.381,1.427l3.952,2.286a1.044,1.044,0,0,0,1.427-.381l14.476-25.018a1.043,1.043,0,0,0,.029-.992A20.077,20.077,0,0,0,438.01,604.3m-26.064,4.97a17.355,17.355,0,1,1,13.168,1.746,17.355,17.355,0,0,1-13.168-1.746" transform="translate(-363.921 -532.02)" fill="#102a54"/>
        <path id="Path_12275" data-name="Path 12275" d="M568.077,648.6a17.03,17.03,0,1,1-6.212-23.27,17.03,17.03,0,0,1,6.212,23.27" transform="translate(-496.932 -577.296)" fill="#fff"/>
        <g id="Group_7473" data-name="Group 7473" transform="translate(39.37 45.737)" opacity="0.61">
          <g id="Group_7472" data-name="Group 7472">
            <g id="Group_7471" data-name="Group 7471" clip-path="url(#clip-path-6)">
              <path id="Path_12276" data-name="Path 12276" d="M568.077,648.6a17.03,17.03,0,1,1-6.212-23.27,17.03,17.03,0,0,1,6.212,23.27" transform="translate(-536.303 -623.034)" fill="#cce6ff"/>
            </g>
          </g>
        </g>
      </g>
    </g>
    <g id="Group_7487" data-name="Group 7487" transform="translate(39.37 45.738)">
      <g id="Group_7486" data-name="Group 7486" clip-path="url(#clip-path-7)">
        <g id="Group_7478" data-name="Group 7478" transform="translate(-3.302 0.144)" opacity="0.26">
          <g id="Group_7477" data-name="Group 7477">
            <g id="Group_7476" data-name="Group 7476" clip-path="url(#clip-path-8)">
              <path id="Path_12277" data-name="Path 12277" d="M519.862,625l-28.538,11.957.455,8.241,35.4-13.876Z" transform="translate(-491.324 -625.002)" fill="#3c94f8"/>
            </g>
          </g>
        </g>
        <g id="Group_7481" data-name="Group 7481" transform="translate(-0.95 7.565)" opacity="0.18">
          <g id="Group_7480" data-name="Group 7480">
            <g id="Group_7479" data-name="Group 7479" clip-path="url(#clip-path-9)">
              <path id="Path_12278" data-name="Path 12278" d="M561.621,726.081,523.355,741.4l3.439,6.934,37.481-14.694Z" transform="translate(-523.355 -726.081)" fill="#3c94f8"/>
            </g>
          </g>
        </g>
        <g id="Group_7484" data-name="Group 7484" transform="translate(2.116 17.37)" opacity="0.1">
          <g id="Group_7483" data-name="Group 7483">
            <g id="Group_7482" data-name="Group 7482" clip-path="url(#clip-path-10)">
              <path id="Path_12279" data-name="Path 12279" d="M603.386,859.646,565.12,874.969l3.164,3.64,36.707-14.388Z" transform="translate(-565.12 -859.646)" fill="#3c94f8"/>
            </g>
          </g>
        </g>
      </g>
    </g>
    <g id="Group_7493" data-name="Group 7493">
      <g id="Group_7492" data-name="Group 7492" clip-path="url(#clip-path)">
        <g id="Group_7491" data-name="Group 7491" transform="translate(30.458 43.912)" opacity="0.14">
          <g id="Group_7490" data-name="Group 7490">
            <g id="Group_7489" data-name="Group 7489" clip-path="url(#clip-path-12)">
              <path id="Path_12281" data-name="Path 12281" d="M460.154,628.294a20.069,20.069,0,1,0-29.795,5.717,1.043,1.043,0,0,0-.846.519l-14.476,25.018a1.044,1.044,0,0,0,.381,1.427l3.952,2.286a1.044,1.044,0,0,0,1.427-.381l14.476-25.018a1.043,1.043,0,0,0,.029-.992,20.077,20.077,0,0,0,24.852-8.576m-26.064,4.97a17.355,17.355,0,1,1,13.167,1.746,17.355,17.355,0,0,1-13.167-1.746" transform="translate(-414.897 -598.163)" fill="#3c94f8"/>
            </g>
          </g>
        </g>
        <path id="Path_12282" data-name="Path 12282" d="M1141,464.1h-56.851a7.193,7.193,0,0,1-7.193-7.193h0a7.193,7.193,0,0,1,7.193-7.193H1141a7.192,7.192,0,0,1,7.193,7.194h0A7.192,7.192,0,0,1,1141,464.1" transform="translate(-997.896 -416.699)" fill="#f4f7fd"/>
        <path id="Path_12283" data-name="Path 12283" d="M1124.55,457.055H1067.7a7.413,7.413,0,0,1,0-14.826h56.851a7.413,7.413,0,0,1,0,14.826M1067.7,442.67a6.973,6.973,0,1,0,0,13.945h56.851a6.972,6.972,0,1,0,0-13.945Z" transform="translate(-982.445 -409.764)" fill="#102a54"/>
        <path id="Path_12284" data-name="Path 12284" d="M1163.95,530.58h-.688a.392.392,0,0,1-.392-.392V529.5a.392.392,0,0,1,.392-.392h.688a.392.392,0,0,1,.392.392v.688a.392.392,0,0,1-.392.392" transform="translate(-1077.503 -490.267)" fill="#102a54"/>
        <path id="Path_12285" data-name="Path 12285" d="M1199.08,530.58h-.687a.392.392,0,0,1-.392-.392V529.5a.392.392,0,0,1,.392-.392h.688a.392.392,0,0,1,.392.392v.688a.392.392,0,0,1-.392.392" transform="translate(-1110.058 -490.267)" fill="#102a54"/>
        <path id="Path_12286" data-name="Path 12286" d="M1234.22,530.58h-.688a.392.392,0,0,1-.392-.392V529.5a.392.392,0,0,1,.392-.392h.688a.392.392,0,0,1,.392.392v.688a.392.392,0,0,1-.392.392" transform="translate(-1142.614 -490.267)" fill="#102a54"/>
        <path id="Path_12287" data-name="Path 12287" d="M1269.35,530.58h-.688a.392.392,0,0,1-.392-.392V529.5a.392.392,0,0,1,.392-.392h.688a.392.392,0,0,1,.392.392v.688a.392.392,0,0,1-.392.392" transform="translate(-1175.17 -490.267)" fill="#102a54"/>
        <path id="Path_12288" data-name="Path 12288" d="M1304.49,530.58h-.688a.392.392,0,0,1-.392-.392V529.5a.392.392,0,0,1,.392-.392h.688a.392.392,0,0,1,.392.392v.688a.392.392,0,0,1-.392.392" transform="translate(-1207.725 -490.267)" fill="#102a54"/>
        <path id="Path_12289" data-name="Path 12289" d="M1339.62,530.58h-.687a.392.392,0,0,1-.392-.392V529.5a.392.392,0,0,1,.392-.392h.688a.392.392,0,0,1,.392.392v.688a.392.392,0,0,1-.392.392" transform="translate(-1240.28 -490.267)" fill="#102a54"/>
        <path id="Path_12290" data-name="Path 12290" d="M1374.76,530.58h-.688a.392.392,0,0,1-.392-.392V529.5a.392.392,0,0,1,.392-.392h.688a.392.392,0,0,1,.392.392v.688a.392.392,0,0,1-.392.392" transform="translate(-1272.836 -490.267)" fill="#102a54"/>
        <path id="Path_12291" data-name="Path 12291" d="M1409.89,530.58h-.687a.392.392,0,0,1-.392-.392V529.5a.392.392,0,0,1,.392-.392h.688a.392.392,0,0,1,.392.392v.688a.392.392,0,0,1-.392.392" transform="translate(-1305.392 -490.267)" fill="#102a54"/>
        <path id="Path_12292" data-name="Path 12292" d="M1445.03,530.58h-.688a.392.392,0,0,1-.392-.392V529.5a.392.392,0,0,1,.392-.392h.688a.392.392,0,0,1,.392.392v.688a.392.392,0,0,1-.392.392" transform="translate(-1337.947 -490.267)" fill="#102a54"/>
        <path id="Path_12293" data-name="Path 12293" d="M1480.16,530.58h-.688a.392.392,0,0,1-.392-.392V529.5a.392.392,0,0,1,.392-.392h.688a.392.392,0,0,1,.392.392v.688a.392.392,0,0,1-.392.392" transform="translate(-1370.503 -490.267)" fill="#102a54"/>
        <path id="Path_12294" data-name="Path 12294" d="M1515.3,530.58h-.688a.392.392,0,0,1-.392-.392V529.5a.392.392,0,0,1,.392-.392h.688a.392.392,0,0,1,.392.392v.688a.392.392,0,0,1-.392.392" transform="translate(-1403.059 -490.267)" fill="#102a54"/>
        <path id="Path_12295" data-name="Path 12295" d="M1550.43,530.58h-.687a.392.392,0,0,1-.392-.392V529.5a.392.392,0,0,1,.392-.392h.688a.392.392,0,0,1,.392.392v.688a.392.392,0,0,1-.392.392" transform="translate(-1435.614 -490.267)" fill="#102a54"/>
        <path id="Path_12296" data-name="Path 12296" d="M1585.57,530.58h-.688a.392.392,0,0,1-.392-.392V529.5a.392.392,0,0,1,.392-.392h.688a.392.392,0,0,1,.392.392v.688a.392.392,0,0,1-.392.392" transform="translate(-1468.169 -490.267)" fill="#102a54"/>
        <path id="Path_12297" data-name="Path 12297" d="M1620.7,530.58h-.687a.392.392,0,0,1-.392-.392V529.5a.392.392,0,0,1,.392-.392h.688a.392.392,0,0,1,.392.392v.688a.392.392,0,0,1-.392.392" transform="translate(-1500.725 -490.267)" fill="#102a54"/>
        <path id="Path_12298" data-name="Path 12298" d="M1655.84,530.58h-.688a.392.392,0,0,1-.392-.392V529.5a.392.392,0,0,1,.392-.392h.688a.392.392,0,0,1,.392.392v.688a.392.392,0,0,1-.392.392" transform="translate(-1533.281 -490.267)" fill="#102a54"/>
        <path id="Path_12299" data-name="Path 12299" d="M1690.97,530.58h-.688a.392.392,0,0,1-.392-.392V529.5a.392.392,0,0,1,.392-.392h.688a.392.392,0,0,1,.392.392v.688a.392.392,0,0,1-.392.392" transform="translate(-1565.836 -490.267)" fill="#102a54"/>
        <path id="Path_12300" data-name="Path 12300" d="M1726.11,530.58h-.688a.392.392,0,0,1-.392-.392V529.5a.392.392,0,0,1,.392-.392h.688a.392.392,0,0,1,.392.392v.688a.392.392,0,0,1-.392.392" transform="translate(-1598.392 -490.267)" fill="#102a54"/>
        <path id="Path_12301" data-name="Path 12301" d="M1761.24,530.58h-.687a.392.392,0,0,1-.392-.392V529.5a.392.392,0,0,1,.392-.392h.688a.392.392,0,0,1,.392.392v.688a.392.392,0,0,1-.392.392" transform="translate(-1630.947 -490.267)" fill="#102a54"/>
        <path id="Path_12302" data-name="Path 12302" d="M1796.38,530.58h-.688a.392.392,0,0,1-.392-.392V529.5a.392.392,0,0,1,.392-.392h.688a.392.392,0,0,1,.392.392v.688a.392.392,0,0,1-.392.392" transform="translate(-1663.502 -490.267)" fill="#102a54"/>
        <path id="Path_12303" data-name="Path 12303" d="M1831.51,530.58h-.688a.392.392,0,0,1-.392-.392V529.5a.392.392,0,0,1,.392-.392h.688a.392.392,0,0,1,.392.392v.688a.392.392,0,0,1-.392.392" transform="translate(-1696.058 -490.267)" fill="#102a54"/>
        <path id="Path_12304" data-name="Path 12304" d="M1866.65,530.58h-.687a.392.392,0,0,1-.392-.392V529.5a.392.392,0,0,1,.392-.392h.688a.392.392,0,0,1,.392.392v.688a.392.392,0,0,1-.392.392" transform="translate(-1728.614 -490.267)" fill="#102a54"/>
        <path id="Path_12305" data-name="Path 12305" d="M1901.78,530.58h-.687a.392.392,0,0,1-.392-.392V529.5a.392.392,0,0,1,.392-.392h.688a.392.392,0,0,1,.392.392v.688a.392.392,0,0,1-.392.392" transform="translate(-1761.169 -490.267)" fill="#102a54"/>
        <path id="Path_12306" data-name="Path 12306" d="M1936.92,530.58h-.688a.392.392,0,0,1-.392-.392V529.5a.392.392,0,0,1,.392-.392h.688a.392.392,0,0,1,.392.392v.688a.392.392,0,0,1-.392.392" transform="translate(-1793.725 -490.267)" fill="#102a54"/>
        <path id="Path_12307" data-name="Path 12307" d="M1657.12,809.057s-4.836,9.066-5.613,9.8-11.736,3.748-11.736,3.748l.433,1.588s13.576.315,14.267,0,4.676-3.853,4.676-3.853Z" transform="translate(-1519.391 -749.663)" fill="#3c94f8"/>
        <path id="Path_12308" data-name="Path 12308" d="M1785.11,1546.23l.331,1.992h2.521l-.145-2.281Z" transform="translate(-1654.064 -1432.453)" fill="#ffc0b1"/>
        <path id="Path_12309" data-name="Path 12309" d="M1661.63,1544.41l.138,2.713,2.249-.174.334-2.519Z" transform="translate(-1539.652 -1431.034)" fill="#ffc0b1"/>
        <path id="Path_12310" data-name="Path 12310" d="M1674.46,1083.34s-16.007,5.358-18.393,7.744-1.438,25.141-1.438,25.141h3.423l4.82-18.724s19.4-.431,21.5-4.115c2.766-4.86.654-11.187.654-11.187Z" transform="translate(-1532.989 -1002.754)" fill="#0c203f"/>
        <path id="Path_12311" data-name="Path 12311" d="M1746.76,1077.36s-13.311,7.753-15,10.327,3.35,21.63,3.35,21.63l3.118-.333.8-16.824s17.257-3.978,18.448-7.658c1.572-4.855-1.487-10.118-1.487-10.118Z" transform="translate(-1604.309 -995.509)" fill="#102a54"/>
        <path id="Path_12312" data-name="Path 12312" d="M1598.78,1571.82s-2.038.566-2.981,0l-4.082,2.132a1.675,1.675,0,0,0-.9,1.484v.044h8.032a.4.4,0,0,0,.394-.454Z" transform="translate(-1474.033 -1456.43)" fill="#0c203f"/>
        <path id="Path_12313" data-name="Path 12313" d="M1724.97,1571.82s-2.038.566-2.981,0l-4.082,2.132a1.675,1.675,0,0,0-.9,1.484v.044h8.032a.4.4,0,0,0,.393-.454Z" transform="translate(-1590.96 -1456.43)" fill="#102a54"/>
        <path id="Path_12314" data-name="Path 12314" d="M1814.42,626.807l-1.537-6.262h0a12.831,12.831,0,0,0-.821-4.246,1.984,1.984,0,0,0-2.7-1.134l-2.98,1.365a1.861,1.861,0,0,0-1.034,2.133,29.02,29.02,0,0,1,.646,3.261,4.816,4.816,0,0,0,.816,2.371,3.152,3.152,0,0,0,3.8.988l.371,4.063Z" transform="translate(-1672.767 -569.837)" fill="#ffc0b1"/>
        <path id="Path_12315" data-name="Path 12315" d="M1824.47,667.268a.378.378,0,0,1-.375-.414l.237-2.432a.086.086,0,1,1,.171.017l-.237,2.432a.206.206,0,0,0,.241.223l.741-.129a.086.086,0,0,1,.03.169l-.741.129a.373.373,0,0,1-.066.006" transform="translate(-1690.181 -615.573)" fill="#102a54"/>
        <path id="Path_12316" data-name="Path 12316" d="M1827.82,704.106a5.458,5.458,0,0,1-2.063,1.117s1.682,1.027,2.063-1.117" transform="translate(-1691.725 -652.417)" fill="#fff"/>
        <path id="Path_12317" data-name="Path 12317" d="M1833.46,702.46a.086.086,0,0,1-.033-.165,4.281,4.281,0,0,0,1.453-.994.086.086,0,0,1,.129.113,4.369,4.369,0,0,1-1.517,1.04.081.081,0,0,1-.033.006" transform="translate(-1698.78 -649.79)" fill="#102a54"/>
        <path id="Path_12318" data-name="Path 12318" d="M1813.26,667.093a.3.3,0,1,1-.3-.369.339.339,0,0,1,.3.369" transform="translate(-1679.592 -617.779)" fill="#102a54"/>
        <path id="Path_12319" data-name="Path 12319" d="M1840.4,658.843a.3.3,0,1,1-.3-.369.339.339,0,0,1,.3.369" transform="translate(-1704.743 -610.135)" fill="#102a54"/>
        <path id="Path_12320" data-name="Path 12320" d="M1791.81,586.036s3.293.276,4.734-.828c0,0,.031,2.19.552,2.536s2.119-.006,2.618,2.207a12.041,12.041,0,0,0,.479-5.233c-.4-2.821-2.177-4.169-3.894-4.016s-8.049,2.506-4.489,5.335" transform="translate(-1659.28 -538.061)" fill="#102a54"/>
        <path id="Path_12321" data-name="Path 12321" d="M1877.41,647.538c-.2.822.035,1.582.517,1.7s1.033-.458,1.229-1.28-.035-1.582-.517-1.7-1.033.458-1.229,1.28" transform="translate(-1739.524 -598.802)" fill="#ffc0b1"/>
        <path id="Path_12322" data-name="Path 12322" d="M1883.62,651.286a.086.086,0,0,1-.085-.082,2.7,2.7,0,0,1,.762-1.8.086.086,0,0,1,.122.121,2.572,2.572,0,0,0-.713,1.668.086.086,0,0,1-.081.09h0" transform="translate(-1745.258 -601.71)" fill="#102a54"/>
        <path id="Path_12323" data-name="Path 12323" d="M1872.24,763.382s9.538,4.024,11.281,24.8c0,0-4.112,2.493-14.173,1.046a22.043,22.043,0,0,0,.176-3.167c-.094-.922-3.084-15.013-1.211-19.33Z" transform="translate(-1730.592 -707.341)" fill="#3c94f8"/>
        <path id="Path_12324" data-name="Path 12324" d="M1876.63,729.532a.086.086,0,0,1-.033-.165,3.274,3.274,0,0,0,1.508-1.911.086.086,0,1,1,.161.059,3.372,3.372,0,0,1-1.6,2.01.084.084,0,0,1-.033.007" transform="translate(-1738.785 -674.001)" fill="#102a54"/>
        <path id="Path_12325" data-name="Path 12325" d="M1695.07,824.825s-3,7.668-3.885,8.837-14.43,3.371-14.43,3.371l.8,2.2s13.889.8,15.583,0,5.5-3.536,6.564-7.4-1.261-8.739-4.633-7" transform="translate(-1553.663 -763.94)" fill="#3c94f8"/>
        <path id="Path_12326" data-name="Path 12326" d="M1697.33,931.564c-4.483,0-10.386-.336-10.759-.357a.086.086,0,0,1-.081-.091.085.085,0,0,1,.09-.081c.139.008,13.886.79,15.542.008,1.436-.678,5.407-3.322,6.518-7.35a.086.086,0,0,1,.165.046c-1.129,4.091-5.154,6.772-6.61,7.459a18.3,18.3,0,0,1-4.865.365" transform="translate(-1562.686 -855.826)" fill="#102a54"/>
        <path id="Path_12327" data-name="Path 12327" d="M1675.68,840.6a.086.086,0,0,1-.014-.17c4.672-.76,13.689-2.435,14.375-3.338.871-1.146,3.843-8.74,3.873-8.816a.086.086,0,1,1,.16.062c-.123.314-3.011,7.692-3.9,8.858-.9,1.183-13.93,3.313-14.484,3.4h-.014" transform="translate(-1552.583 -767.416)" fill="#102a54"/>
        <path id="Path_12328" data-name="Path 12328" d="M1875.04,836.7a.086.086,0,0,1-.086-.082,77.5,77.5,0,0,1,0-8.324.086.086,0,1,1,.17.021,77.344,77.344,0,0,0,0,8.295.086.086,0,0,1-.081.09h0" transform="translate(-1737.192 -767.417)" fill="#102a54"/>
        <path id="Path_12329" data-name="Path 12329" d="M1610.9,998.158a5.712,5.712,0,0,0-2.347-.1c-.257.1-3.141,2.429-3.141,2.429h4.262l1.649-.849Z" transform="translate(-1487.552 -924.695)" fill="#ffc0b1"/>
        <path id="Path_12330" data-name="Path 12330" d="M1584.02,997.38a10.229,10.229,0,0,0-1.8,0,14.033,14.033,0,0,0-2.707,1.266c0,.128.23.305.531.234s2.849-.765,2.849-.765a8.512,8.512,0,0,0-1.663,1.013,4.707,4.707,0,0,0-.407.784h2.672l.875-1.266Z" transform="translate(-1463.559 -924.119)" fill="#ffc0b1"/>
        <path id="Path_12331" data-name="Path 12331" d="M1606.01,1004.6a.078.078,0,0,1-.022,0,.073.073,0,0,1-.048-.092,1.423,1.423,0,0,1,.344-.527c.249-.249,2.207-1.593,2.29-1.65a.073.073,0,1,1,.083.121c-.02.014-2.03,1.393-2.269,1.633a1.288,1.288,0,0,0-.307.467.073.073,0,0,1-.07.051" transform="translate(-1488.04 -928.731)" fill="#102a54"/>
        <path id="Path_12332" data-name="Path 12332" d="M1905.54,1303.1l-5.6,23.272h.465l7.138-23.4Z" transform="translate(-1760.457 -1207.322)" fill="#102a54"/>
        <path id="Path_12333" data-name="Path 12333" d="M2058.26,1303.1l5.6,23.272h-.466l-7.138-23.4Z" transform="translate(-1905.306 -1207.322)" fill="#102a54"/>
        <path id="Path_12334" data-name="Path 12334" d="M1887.14,1011.33s8.228-4.142,12.147-10.338c2.056-3.25,2.3-11.749,3.994-11.88s3.264,2.611,3.786,5.613.522,14.54-3.264,16.6-16.877,2.978-17.772,2.586-1.194-1.256,1.109-2.586" transform="translate(-1746.958 -916.496)" fill="#7fc0ff"/>
        <path id="Path_12335" data-name="Path 12335" d="M1215.51,1047.33H1157.3a.664.664,0,1,1,0-1.329h58.213a.664.664,0,0,1,0,1.329" transform="translate(-1071.726 -969.215)" fill="#7fc0ff"/>
        <path id="Path_12336" data-name="Path 12336" d="M1199.14,1105.03h-1.028l7.916-40.932h1.028Z" transform="translate(-1110.156 -985.985)" fill="#7fc0ff"/>
        <path id="Path_12337" data-name="Path 12337" d="M1812.31,1105.03h1.028l-7.916-40.932H1804.4Z" transform="translate(-1671.936 -985.985)" fill="#7fc0ff"/>
        <path id="Path_12338" data-name="Path 12338" d="M1358.51,830.93l-6.727-15.7a.44.44,0,0,0-.809.347l7,16.347h16.631a.5.5,0,0,0,0-1Z" transform="translate(-1251.761 -755.137)" fill="#102a54"/>
        <path id="Path_12339" data-name="Path 12339" d="M685.614,753.232a7.484,7.484,0,1,0-12.416,5.629,4.945,4.945,0,0,1,3.677-4.465,2.828,2.828,0,1,1,2.509,0,4.945,4.945,0,0,1,3.677,4.465,7.466,7.466,0,0,0,2.552-5.629" transform="translate(-621.413 -691.002)" fill="#80c0ff"/>
        <path id="Path_12340" data-name="Path 12340" d="M711.6,795.865a2.828,2.828,0,1,0-2.509,0,4.945,4.945,0,0,0-3.677,4.465,7.483,7.483,0,0,0,9.863,0,4.945,4.945,0,0,0-3.677-4.465" transform="translate(-653.627 -732.47)" fill="#3c94f8"/>
      </g>
    </g>
  </g>
</svg>
