<svg id="quarterly-targets" xmlns="http://www.w3.org/2000/svg" xmlns:xlink="http://www.w3.org/1999/xlink" width="518.993" height="487.11" viewBox="0 0 518.993 487.11">
  <defs>
    <clipPath id="clip-path">
      <rect id="Rectangle_3466" data-name="Rectangle 3466" width="518.993" height="487.11" fill="none"/>
    </clipPath>
    <clipPath id="clip-path-2">
      <rect id="Rectangle_3465" data-name="Rectangle 3465" width="518.992" height="487.11" fill="none"/>
    </clipPath>
    <clipPath id="clip-path-3">
      <rect id="Rectangle_3455" data-name="Rectangle 3455" width="44.406" height="23.005" fill="none"/>
    </clipPath>
    <clipPath id="clip-path-4">
      <rect id="Rectangle_3458" data-name="Rectangle 3458" width="77.279" height="142.394" fill="none"/>
    </clipPath>
    <clipPath id="clip-path-5">
      <rect id="Rectangle_3462" data-name="Rectangle 3462" width="18.53" height="7.898" fill="none"/>
    </clipPath>
  </defs>
  <g id="Group_6460" data-name="Group 6460" clip-path="url(#clip-path)">
    <rect id="Rectangle_3448" data-name="Rectangle 3448" width="333.697" height="298.835" transform="translate(184.811 13.222)" fill="#f8f9fd"/>
    <path id="Path_11779" data-name="Path 11779" d="M571.646.975H904.368V313.93H571.646ZM570.673,314.9H905.341V0H570.673Z" transform="translate(-386.349 -0.001)" fill="#febd54"/>
    <rect id="Rectangle_3449" data-name="Rectangle 3449" width="52.965" height="206.798" transform="translate(428.098 83.01)" fill="#d1e8ff"/>
    <rect id="Rectangle_3450" data-name="Rectangle 3450" width="52.965" height="127.352" transform="translate(428.098 162.455)" fill="#1b78fe"/>
    <rect id="Rectangle_3451" data-name="Rectangle 3451" width="52.96" height="254.338" transform="translate(330.81 35.47)" fill="#d1e8ff"/>
    <rect id="Rectangle_3452" data-name="Rectangle 3452" width="52.96" height="161.309" transform="translate(330.81 128.499)" fill="#1b78fe"/>
    <rect id="Rectangle_3453" data-name="Rectangle 3453" width="52.96" height="226.333" transform="translate(233.236 63.476)" fill="#d1e8ff"/>
    <rect id="Rectangle_3454" data-name="Rectangle 3454" width="52.96" height="143.547" transform="translate(233.236 146.262)" fill="#1b78fe"/>
    <path id="Path_11780" data-name="Path 11780" d="M673.46,190.407h-.973V167.763h21.03v.973H673.46Z" transform="translate(-455.278 -113.576)" fill="#8da6eb"/>
    <path id="Path_11781" data-name="Path 11781" d="M7.431,928.3v7.068H0v.081H7.511V928.3Z" transform="translate(0 -628.468)" fill="#8da6eb"/>
    <path id="Path_11782" data-name="Path 11782" d="M1207.027,345.7l-.491-.492,13.859-13.857h41.953v.7h-41.665Z" transform="translate(-816.832 -224.327)" fill="#4956bd"/>
    <g id="Group_6459" data-name="Group 6459" transform="translate(0 0)">
      <g id="Group_6458" data-name="Group 6458" clip-path="url(#clip-path-2)">
        <path id="Path_11783" data-name="Path 11783" d="M1266.544,305.737H1314.1a.963.963,0,0,0,.964-.963V302.76a.963.963,0,0,0-.964-.963h-47.556a.963.963,0,0,0-.963.963v2.014a.963.963,0,0,0,.963.963" transform="translate(-856.807 -204.319)" fill="#84a4fd"/>
        <path id="Path_11784" data-name="Path 11784" d="M1266.544,278.1h58.983a.963.963,0,0,0,.963-.963v-2.014a.963.963,0,0,0-.963-.963h-58.983a.963.963,0,0,0-.963.963v2.014a.963.963,0,0,0,.963.963" transform="translate(-856.807 -185.607)" fill="#84a4fd"/>
        <path id="Path_11785" data-name="Path 11785" d="M842.827,401.756h43.93a.941.941,0,0,0,.94-.94v-2.06a.94.94,0,0,0-.94-.94h-43.93a.94.94,0,0,0-.94.94v2.06a.94.94,0,0,0,.94.94" transform="translate(-569.963 -269.324)" fill="#84a4fd"/>
        <path id="Path_11786" data-name="Path 11786" d="M842.73,429.4h16.085a.843.843,0,0,0,.843-.844V426.3a.843.843,0,0,0-.843-.844H842.73a.843.843,0,0,0-.843.844v2.253a.843.843,0,0,0,.843.844" transform="translate(-569.963 -288.036)" fill="#84a4fd"/>
        <path id="Path_11787" data-name="Path 11787" d="M842.827,374.117h35.4a.94.94,0,0,0,.94-.94v-2.06a.94.94,0,0,0-.94-.941h-35.4a.94.94,0,0,0-.94.941v2.06a.94.94,0,0,0,.94.94" transform="translate(-569.963 -250.612)" fill="#84a4fd"/>
        <path id="Path_11788" data-name="Path 11788" d="M552.028,1101.317l-1.4-.056,7.041-176.73H435.894l-7.043,176.786-1.4-.056,7.1-178.13H559.126Z" transform="translate(-289.388 -624.966)" fill="#2a4387"/>
        <path id="Path_11789" data-name="Path 11789" d="M575.393,1101.317,568.35,924.531H446.575l7.041,176.73-1.4.056-7.1-178.186H569.7l7.1,178.13Z" transform="translate(-301.348 -624.966)" fill="#2a4387"/>
        <path id="Path_11790" data-name="Path 11790" d="M454.442,924.826H577.619L570.55,747.368H447.373Z" transform="translate(-302.874 -505.973)" fill="#4d78eb"/>
        <path id="Path_11791" data-name="Path 11791" d="M542.038,924.826H418.862l7.069-177.458H549.108Z" transform="translate(-283.572 -505.973)" fill="#f7f7f7"/>
        <path id="Path_11792" data-name="Path 11792" d="M509.62,848.886H477.038a2.727,2.727,0,0,1-2.727-2.727v-2.425a2.726,2.726,0,0,1,2.727-2.727H509.62a2.727,2.727,0,0,1,2.727,2.727v2.425a2.727,2.727,0,0,1-2.727,2.727" transform="translate(-321.112 -569.368)" fill="#ded7d5"/>
        <path id="Path_11793" data-name="Path 11793" d="M509.62,806.244H477.038a2.727,2.727,0,0,1-2.727-2.727v-2.425a2.727,2.727,0,0,1,2.727-2.727H509.62a2.727,2.727,0,0,1,2.727,2.727v2.425a2.727,2.727,0,0,1-2.727,2.727" transform="translate(-321.112 -540.499)" fill="#88a3eb"/>
        <path id="Path_11794" data-name="Path 11794" d="M517.541,1057.609H495.907a1.811,1.811,0,0,1-1.811-1.811v-1.61a1.811,1.811,0,0,1,1.811-1.811h21.634a1.81,1.81,0,0,1,1.81,1.811v1.61a1.811,1.811,0,0,1-1.81,1.811" transform="translate(-334.506 -712.467)" fill="#88a3eb"/>
        <path id="Path_11795" data-name="Path 11795" d="M553.436,1054.964h-39.85v-.792h39.058v-12.511h.792Z" transform="translate(-347.701 -705.211)" fill="#88a3eb"/>
        <path id="Path_11796" data-name="Path 11796" d="M716.966,796.563A16.176,16.176,0,1,0,686.5,807.456c.122.342.255.679.4,1.008a16.176,16.176,0,0,0,30.064-11.9m-11.147,16.864a12.113,12.113,0,0,1-15.2-6.578q-.161-.37-.3-.756a12.128,12.128,0,1,1,15.5,7.335" transform="translate(-464.125 -532.013)" fill="#88a3eb"/>
        <path id="Path_11797" data-name="Path 11797" d="M691.706,798.41l-3.865-1.207a16.2,16.2,0,0,1,14.958-11.35l.121,4.046a12.147,12.147,0,0,0-11.214,8.51" transform="translate(-465.673 -532.029)" fill="#fe5454"/>
        <path id="Path_11798" data-name="Path 11798" d="M690.615,830.652l-3.712,1.616q-.214-.494-.4-1.008a16.1,16.1,0,0,1-.211-10.267l3.865,1.207a12.071,12.071,0,0,0,.158,7.7q.138.386.3.756" transform="translate(-464.125 -555.817)" fill="#4d78eb"/>
        <path id="Path_11799" data-name="Path 11799" d="M692.234,856.541a16.093,16.093,0,0,1-2.508-4.026l3.712-1.616a12.059,12.059,0,0,0,1.88,3.019Z" transform="translate(-466.949 -576.065)" fill="#4d78eb"/>
        <path id="Path_11800" data-name="Path 11800" d="M418.085,923.37h-1.417l7.1-178.2h126v1.417H425.128Z" transform="translate(-282.087 -504.488)" fill="#aebeeb"/>
        <path id="Path_11801" data-name="Path 11801" d="M800.221,923.341l7.07-178.167h2.139L816.5,923.341Z" transform="translate(-541.754 -504.488)" fill="#88a3eb"/>
        <path id="Path_11802" data-name="Path 11802" d="M464.467,1109.81l-.7-1.232,30.665-17.41,17.788,12.074,51.15-28.321.687,1.24L512.145,1104.9l-17.779-12.068Z" transform="translate(-313.974 -727.728)" fill="#88a3eb"/>
        <path id="Path_11803" data-name="Path 11803" d="M629.128,909.423A21.338,21.338,0,1,0,610.874,948c.434.205.872.4,1.312.569a21.338,21.338,0,0,0,16.942-39.143m5.336,26.129a15.984,15.984,0,0,1-20.322,8.044q-.5-.2-.985-.426a16,16,0,1,1,21.307-7.618" transform="translate(-405.293 -614.294)" fill="#88a3eb"/>
        <path id="Path_11804" data-name="Path 11804" d="M605.829,950.2l-4.731,2.479a21.363,21.363,0,0,1,3.365-24.54l3.888,3.662a16.021,16.021,0,0,0-2.522,18.4" transform="translate(-405.294 -628.355)" fill="#4d78eb"/>
        <path id="Path_11805" data-name="Path 11805" d="M619.262,1003.9l-1.956,4.97q-.66-.261-1.312-.569a21.244,21.244,0,0,1-9.776-9.381l4.731-2.479a15.929,15.929,0,0,0,7.329,7.033q.488.231.985.426" transform="translate(-410.413 -674.595)" fill="#fe5454"/>
        <path id="Path_11806" data-name="Path 11806" d="M646.644,1025.921a21.217,21.217,0,0,1-6.1-1.417l1.956-4.969a15.908,15.908,0,0,0,4.57,1.063Z" transform="translate(-433.655 -690.231)" fill="#fe5454"/>
        <path id="Path_11807" data-name="Path 11807" d="M458.5,1195.041l-.737-1.211,32.275-19.658,13.406,11.789,22.377-6.781,19.88,1.088,12.1-11.316.969,1.036-12.542,11.729-20.234-1.107-22.893,6.937-13.214-11.621Z" transform="translate(-309.908 -791.389)" fill="#88a3eb"/>
        <path id="Path_11808" data-name="Path 11808" d="M506.467,1005.646a3.1,3.1,0,0,1-1.156-.214,2.969,2.969,0,0,1-.942-.587,2.769,2.769,0,0,1-.634-.876,2.626,2.626,0,0,1,0-2.162,2.883,2.883,0,0,1,1.576-1.482,3.225,3.225,0,0,1,2.312,0,2.883,2.883,0,0,1,1.576,1.482,2.627,2.627,0,0,1,0,2.162,2.79,2.79,0,0,1-.634.876,2.977,2.977,0,0,1-.942.587,3.1,3.1,0,0,1-1.156.214m-2.125,7.139,5.238-6.207,4.922-6.393.969.839-5.146,6.133-5.034,6.487Zm2.125-8.2a1.261,1.261,0,0,0,.587-.14,1.628,1.628,0,0,0,.476-.373,1.829,1.829,0,0,0,.326-.54,1.734,1.734,0,0,0,.121-.643,1.858,1.858,0,0,0-.121-.671,1.8,1.8,0,0,0-.326-.55,1.475,1.475,0,0,0-.485-.363,1.367,1.367,0,0,0-1.65.382,1.87,1.87,0,0,0-.317,1.864,1.815,1.815,0,0,0,.326.541,1.5,1.5,0,0,0,.475.363,1.331,1.331,0,0,0,.588.13m6.861,9.134a3.114,3.114,0,0,1-1.156-.214,2.883,2.883,0,0,1-1.576-1.482,2.623,2.623,0,0,1,0-2.162,2.777,2.777,0,0,1,.634-.876,2.972,2.972,0,0,1,.942-.587,3.225,3.225,0,0,1,2.312,0,2.978,2.978,0,0,1,.941.587,2.786,2.786,0,0,1,.634.876,2.624,2.624,0,0,1,0,2.162,2.884,2.884,0,0,1-1.575,1.482,3.118,3.118,0,0,1-1.156.214m0-1.063a1.369,1.369,0,0,0,1.072-.5,1.885,1.885,0,0,0,.317-1.873,1.738,1.738,0,0,0-.336-.541,1.6,1.6,0,0,0-.485-.363,1.291,1.291,0,0,0-.568-.13,1.255,1.255,0,0,0-.587.14,1.619,1.619,0,0,0-.476.373,1.82,1.82,0,0,0-.326.54,1.734,1.734,0,0,0-.121.643,1.855,1.855,0,0,0,.121.671,1.786,1.786,0,0,0,.326.55,1.49,1.49,0,0,0,.476.363,1.328,1.328,0,0,0,.587.13" transform="translate(-340.875 -677.081)" fill="#88a3eb"/>
        <g id="Group_6451" data-name="Group 6451" transform="translate(138.869 288.3)" opacity="0.15" style="mix-blend-mode: multiply;isolation: isolate">
          <g id="Group_6450" data-name="Group 6450">
            <g id="Group_6449" data-name="Group 6449" clip-path="url(#clip-path-3)">
              <path id="Path_11809" data-name="Path 11809" d="M473.959,900.514c-.589-.188-9.453.1-12.273.2-.012-.05-.037-.113-.05-.163,2.207-.527,8.274-1.98,9.051-2.181.953-.251.9-.828.138-1.266-.69-.4-9.1,1.316-10.719,1.642-1.579.113-5.14,1.479-4.789.526.4-1.09,3.134-5.728,2.181-6.555s-2.181,2.443-2.858,3.258a12.2,12.2,0,0,0-2.545,4.286,2.586,2.586,0,0,1-.677,1.191l-.025-.213s-1.993.613-5.04,1.215a62.292,62.292,0,0,1-7.171,1.04c-.4.038-.84.076-1.3.125-.539.063-1.1.126-1.692.213-.414.05-.84.1-1.279.163-1.041.138-2.094.288-3.1.413-.251.038-.489.063-.727.1s-.477.063-.7.088l-.439,10.994c.225-.026.464-.05.7-.088s.489-.062.727-.087c1.266-.176,2.6-.389,3.961-.627l.414-.075c.326-.05.652-.113.978-.176l.426-.076c.389-.075.765-.151,1.153-.225,7.309-1.443,14.43-3.31,14.43-3.31l-.389-2.783a2.745,2.745,0,0,0,.363-.151c.552-.276,4.538.966,7.848.038l.151-.076v.025s5.178-.238,7.346-.1,1.993-.815,1.83-1.178c-.2-.476-5.491-.739-7.71-.827a.534.534,0,0,0,.025-.138c2.7-.251,9.941-.927,10.643-1a.849.849,0,0,0,.777-.89.72.72,0,0,0-.276-.589c-.439-.3-8.274-.088-11.107,0a.158.158,0,0,1-.013-.075c1.567-.151,4.689-.452,7.334-.727,2.319-.225,4.287-.451,4.475-.526.5-.175.351-1.291-.075-1.416" transform="translate(-429.943 -892.588)" fill="#243973"/>
            </g>
          </g>
        </g>
        <path id="Path_11810" data-name="Path 11810" d="M186.926,1452.95a39.857,39.857,0,0,1-3.4,5.365c-1.345,1.524-6.5,4.249-6.524,8.776-.03,4.909,8.683,3.547,12.091,3.367s3.666-2.8,5.1-5.582,2.881-2.309,3.15-4.551-1.39-7.376-1.39-7.376Z" transform="translate(-119.829 -983.657)" fill="#202338"/>
        <path id="Path_11811" data-name="Path 11811" d="M215.853,1446.63a18.737,18.737,0,0,1,.321,2.146c-.077.051-9.658,1.761-9.6.022a8.392,8.392,0,0,1,.884-2.993Z" transform="translate(-139.849 -978.82)" fill="#81807e"/>
        <path id="Path_11812" data-name="Path 11812" d="M506.962,885.872s10.05-2.115,10.8-1.679.8,1-.136,1.243-9.669,2.333-9.669,2.333,12.186-.444,12.885-.231c.409.125.564,1.215.072,1.39s-12.585,1.334-12.585,1.334,11.378-.393,11.9-.031a.846.846,0,0,1-.489,1.459c-.845.089-11.419,1.076-11.419,1.076s8.269.256,8.523.844c.155.36.331,1.294-1.8,1.158s-7.21.1-7.21.1Z" transform="translate(-343.217 -598.565)" fill="#eea886"/>
        <path id="Path_11813" data-name="Path 11813" d="M346.563,1448.963s4.2,4.688,8.463,5.67,7.245,2.235,7.277,4.925-12.269,4.463-17.147,1.751c-7.281-4.047-8.022-2.827-8.829-4.85s.969-7.433.917-8.077c-.065-.795,9.319.581,9.319.581" transform="translate(-227.553 -980.397)" fill="#202338"/>
        <path id="Path_11814" data-name="Path 11814" d="M348.441,1440.987a19.436,19.436,0,0,1,.472,2.243c-.082.047-9.607,1.181-9.319-.581.234-1.429.567-2.983.567-2.983Z" transform="translate(-229.903 -974.663)" fill="#81807e"/>
        <path id="Path_11815" data-name="Path 11815" d="M242.748,1015.556s3.464,33.634,5.266,45.148c2.106,13.462,2.82,24.585,3.408,31.554.739,8.764.881,51.875,1.4,54.437s-11.474.708-11.474.708-5.9-56.33-8.1-65.663c-2.049-8.69-9.654-46.108-11.523-43.734s-4.188,43.665-5.573,50.519-5.6,60.516-5.6,60.516-9.543,1.9-12.081-.248c0,0-1.156-46.245-.274-59.1.336-4.9-5.739-58.721,2.051-80.389,4.117-11.451,42.5,6.25,42.5,6.25" transform="translate(-132.87 -680.697)" fill="#292c47"/>
        <path id="Path_11816" data-name="Path 11816" d="M153.892,865.244s5.841,1.774,8.286,1.324,1.21-30.456,1.307-36.7c.074-5.064,2.846-18.436,2.846-18.436a.1.1,0,0,0,0,.022.025.025,0,0,1,0,.015c0,.007,0,.015,0,.022.275,1,4.015,14.878,4.145,21.545.137,6.92-.9,33.387-.9,33.387l10.31,1,29.63.726,6.181-.729s-.738-11.319-1.013-16.694c-.171-3.417-.835-9.535-.664-15.494,0,0-.108-6.281.516-8.986.067-11.939.791-23.764.791-23.764q.6-8.119.838-15.2c-1.306-.69-2.876-1.5-4.134-2.1-3.889-1.851-9.306-4.345-12.783-5.94-2.037-.935-4.029-1.618-4.029-1.618s-13.9-1.331-15.025-1.261a35.488,35.488,0,0,0-4.371,1.5c-4.928,1.87-14.427,5.677-15.941,6.764-2.219,1.588-6.909,39.327-7.12,41.969-.382,4.76,1.124,38.641,1.124,38.641" transform="translate(-103.383 -525.609)" fill="#cac7d1"/>
        <path id="Path_11817" data-name="Path 11817" d="M265.031,1043.631s-20.337,1.731-38.148,0v5.844s26.749,3.862,39.04-1.114Z" transform="translate(-153.601 -706.545)" fill="#1d2033"/>
        <path id="Path_11818" data-name="Path 11818" d="M291.29,782.915s3.308,7.771,5.79,25.138c.954,6.671,2.721,17.9,4.005,29.36v0c1.013,9.034,3.325,18.306,4.059,25.222.761,7.164,3.054,28.271,3.054,28.271l5.562-3.506c.794-.735,1.908-1.688,1.585-2.72-1.529-4.938-4.456-21.263-6.186-35.491,0-.011,0-.019,0-.03q-.123-1.03-.241-2.041c0-.033-.007-.07-.011-.108-.327-2.846-.6-5.573-.79-8.069a25.425,25.425,0,0,1,.249-5.614c.775-12.771,1.16-26.236,1.16-26.236.408-5.513.642-10.663.8-15.464a30.221,30.221,0,0,0-4.285-2.415s-12.42-5.629-14.744-6.3" transform="translate(-197.205 -530.039)" fill="#1b78fe"/>
        <path id="Path_11819" data-name="Path 11819" d="M262.49,794.036s.371,5.318-4.128,5.441-8.071-4.2-8.071-4.2l7.468,1.926,4.545-3.852Z" transform="translate(-169.449 -537.107)" fill="#cac7d1"/>
        <path id="Path_11820" data-name="Path 11820" d="M472.025,881.012s3.277-.912,3.714-2.871a12.114,12.114,0,0,1,2.495-4.205c.667-.8,1.878-4,2.81-3.191s-1.757,5.361-2.144,6.422,4.152-.8,5.2-.478,3.167,8.16-.069,9.071-7.153-.307-7.7-.031a20.629,20.629,0,0,1-2.336.759Z" transform="translate(-319.564 -589.412)" fill="#eea886"/>
        <path id="Path_11821" data-name="Path 11821" d="M243.029,669.1S253.348,670.844,251.6,687s-10.858,14.727-11.468,14.7-9.161.2-9.612-19.554c0,0-.132-14.6,12.511-13.043" transform="translate(-156.062 -452.909)" fill="#eea987"/>
        <path id="Path_11822" data-name="Path 11822" d="M254.846,751.854s0,6.655.272,8.094c.294,1.549-8.286,6.025-13.824.81,0,0,1.12-7.266.772-9.832s12.78.927,12.78.927" transform="translate(-163.358 -507.745)" fill="#eea987"/>
        <path id="Path_11823" data-name="Path 11823" d="M294.493,712s1.145-1.2,1.547.032-1.451,6.42-1.69,6.919c0,0-.212.472-.481.208s.624-7.159.624-7.159" transform="translate(-198.917 -481.676)" fill="#eea987"/>
        <path id="Path_11824" data-name="Path 11824" d="M227.478,708.082s-1.095-1.243-1.547-.032,1.2,6.647,1.4,6.983c0,0,.355.558.635.3s-.492-7.256-.492-7.256" transform="translate(-152.904 -478.996)" fill="#eea987"/>
        <path id="Path_11825" data-name="Path 11825" d="M250.951,675.419c-.356,2.21-.692,3.852-.692,3.852l-1.5,1.961a39.57,39.57,0,0,0-.141-5.017c-.087-.258-.189-.715-.294-1.21-.172-.817-.349-1.74-.47-2.046-.193-.491-8.844-3.017-16.548.529,0,0,.065.667.06,1.412,0,.865-.1,1.835-.495,1.981-.739.27-.43,5.075-.43,5.075l-1.2-1.386s-.348-2.51-.689-5.394c0,0,0-.007,0-.021-.077-.673-.156-1.364-.232-2.051-.172-2.9.115-8.169,3.894-11.265,2.549-1.091,6.62-2.019,13.407.058a7.985,7.985,0,0,1,2.128.9c4.226,4.65,3.207,12.62,3.207,12.62" transform="translate(-154.546 -447.27)" fill="#353a3d"/>
        <path id="Path_11826" data-name="Path 11826" d="M245.876,763.583a6.572,6.572,0,0,0,5.473,2.2c3.826-.087,5.488-2.081,5.488-2.081s-1.812,3.788-5.505,3.748-5.455-3.867-5.455-3.867" transform="translate(-166.46 -516.951)" fill="#c78d71"/>
        <path id="Path_11827" data-name="Path 11827" d="M277.261,782.31l-3.85,2.847s3.234-6.855,3.3-9.6Z" transform="translate(-185.101 -525.057)" fill="#a09ea6"/>
        <path id="Path_11828" data-name="Path 11828" d="M283.631,775.557l2.618,2.435L289,786.206l-4.824-3.9Z" transform="translate(-192.02 -525.057)" fill="#eae6f2"/>
        <path id="Path_11829" data-name="Path 11829" d="M373.309,844.791s-22.721,5.981-28.276,4.615c-2.567-.631-5.95-4.175-9.164-8.342-1.059-1.372-2.1-2.812-3.087-4.237a.01.01,0,0,1,0-.006c-3.943-5.692-7.033-11.148-7.033-11.148s-11.655-13.656-2.3-19.744c0,0,3.941-.4,6.184,1.256,2.07,1.527,7.106,11.141,7.924,12.923s9.674,18.33,10.267,18.7,8.187-.985,12.2-1.318a64.033,64.033,0,0,0,11.978-2.209Z" transform="translate(-216.514 -545.59)" fill="#1b78fe"/>
        <path id="Path_11830" data-name="Path 11830" d="M264.835,783.141a45.4,45.4,0,0,1-2.805,7.151s-4.04-3.539-5.312-4.8,8.117-2.351,8.117-2.351" transform="translate(-173.719 -530.192)" fill="#eea987"/>
        <path id="Path_11831" data-name="Path 11831" d="M256.753,793.032l4.227,3.956s-5-.332-5.931-1.164Z" transform="translate(-172.67 -536.888)" fill="#a09ea6"/>
        <path id="Path_11832" data-name="Path 11832" d="M234.25,770.463s3.382,5.5,5.608,7.289l-3.751,6.226-6.014-10.922Z" transform="translate(-155.774 -521.609)" fill="#eae6f2"/>
        <path id="Path_11833" data-name="Path 11833" d="M160.768,831.586c-.431,5.795,2.021,37.858-.425,38.31s-11.438-1.527-11.438-1.527-1.128-34.577-.766-38.2c.263-2.638,4.464-42.211,6.682-43.8,1.281-.919,10.773-4.283,15.43-6.118.852-.337,3.548-1.468,4.31-1.758.988,1.1,9.595,21.293,10.413,37.043.249,4.8-.875,14.917-1.729,23.188-.912,8.823-1.922,15.71-2.662,23.088-1.459,14.538-2.479,26.105-2.479,26.105l-14.47-6.442c-2.341-1.171-5.584-5.977-4.7-8.443,3.345-9.368,7.557-25.374,7.562-33.594,0,0-1.614-20.129-2.893-24.554a124.006,124.006,0,0,0-2.83,16.7" transform="translate(-100.242 -527.044)" fill="#1b78fe"/>
        <rect id="Rectangle_3456" data-name="Rectangle 3456" width="9.586" height="7.126" transform="translate(87.37 337.444)" fill="#3a4066"/>
        <path id="Path_11834" data-name="Path 11834" d="M137.873,1117.222H106.337l7.4-21h31.536Z" transform="translate(-71.991 -742.151)" fill="#eddad3"/>
        <path id="Path_11835" data-name="Path 11835" d="M137.873,1117.222H106.337l7.4-21h31.536Z" transform="translate(-71.991 -742.151)" fill="#f7f7f7"/>
        <path id="Path_11836" data-name="Path 11836" d="M113.737,1182.232h31.536l-7.4-21H106.337Z" transform="translate(-71.991 -786.163)" fill="#c1c5db"/>
        <path id="Path_11837" data-name="Path 11837" d="M137.873,1247.242H106.337l7.4-21h31.536Z" transform="translate(-71.991 -830.175)" fill="#f7f7f7"/>
        <path id="Path_11838" data-name="Path 11838" d="M113.737,1312.252h31.536l-7.4-21H106.337Z" transform="translate(-71.991 -874.188)" fill="#c1c5db"/>
        <path id="Path_11839" data-name="Path 11839" d="M152.955,1107.86H134.969l.253-.778h17.985Z" transform="translate(-91.375 -749.502)" fill="#aebdf2"/>
        <path id="Path_11840" data-name="Path 11840" d="M149.644,1116.588H131.659l.253-.778H149.9Z" transform="translate(-89.134 -755.411)" fill="#aebdf2"/>
        <path id="Path_11841" data-name="Path 11841" d="M142.6,1125.315H128.047l.253-.777h14.55Z" transform="translate(-86.688 -761.32)" fill="#aebdf2"/>
        <path id="Path_11842" data-name="Path 11842" d="M152.955,1237.421H134.969l.253-.778h17.985Z" transform="translate(-91.375 -837.215)" fill="#aebdf2"/>
        <path id="Path_11843" data-name="Path 11843" d="M140.652,1246.148h-8.993l.253-.777H140.9Z" transform="translate(-89.134 -843.124)" fill="#aebdf2"/>
        <path id="Path_11844" data-name="Path 11844" d="M162.072,1056.005s.17.537.466,1.435c.512,1.552,2.16,3.324,1.144,5.442s-8.647.787-9.808-.2-.682-4.232,1.983-8.392,6.214,1.716,6.214,1.716" transform="translate(-103.772 -712.752)" fill="#eea886"/>
        <path id="Path_11845" data-name="Path 11845" d="M162.672,1074.076a67.752,67.752,0,0,1-.637,7.372c-.494,3.4-1.581,7.558-2.439,7.444-1.3-.172-.021-3.477.24-6.883.24-3.136-.339-2.557-.339-2.557s.174-.156-.76,3.212c-1,3.62-2.233,7.467-2.938,7.388-.873-.1-.974-.185-.827-1.558-.256.771-.506.811-.841.735-1.735-.392-1.1-5.94-.845-8.143-.205,1.692-.539,2.911-1.446,1.985-1.037-1.059.221-8.864.4-11.7.2-3.1,10.429,2.708,10.429,2.708" transform="translate(-102.523 -724.708)" fill="#eea886"/>
        <path id="Path_11846" data-name="Path 11846" d="M161.885,965.254l-.148,25.482a44.361,44.361,0,0,1-12.1-2.814l-.486-35.934Z" transform="translate(-100.978 -644.502)" fill="#4d78eb"/>
        <path id="Path_11847" data-name="Path 11847" d="M382.212,549.37h-38.48v33.76l5.875-5.874h32.606Z" transform="translate(-232.709 -371.927)" fill="#febd54"/>
        <path id="Path_11848" data-name="Path 11848" d="M700.844,730.027a7.27,7.27,0,1,1-7.27-7.269,7.27,7.27,0,0,1,7.27,7.269" transform="translate(-464.632 -489.312)" fill="#c3d2fd"/>
        <path id="Path_11849" data-name="Path 11849" d="M98.561,543.871a7.27,7.27,0,1,1-7.27-7.269,7.27,7.27,0,0,1,7.27,7.269" transform="translate(-56.883 -363.283)" fill="#c3d2fd"/>
        <path id="Path_11850" data-name="Path 11850" d="M796.123,183.579a7.27,7.27,0,1,1-7.27-7.269,7.269,7.269,0,0,1,7.27,7.269" transform="translate(-529.137 -119.363)" fill="#c3d2fd"/>
        <path id="Path_11851" data-name="Path 11851" d="M496.961,343.756l-1.827-1.827.228-.228,1.827,1.827Zm-3.654-3.654-1.827-1.827.228-.228,1.827,1.827Zm-3.655-3.654-1.827-1.827.228-.228,1.827,1.827ZM486,332.794l-1.827-1.827.228-.228,1.828,1.827Zm-3.655-3.654-1.827-1.827.228-.228,1.827,1.827Zm-3.654-3.654-1.827-1.827.228-.228,1.827,1.827Zm-3.654-3.654-1.827-1.827.228-.228,1.827,1.827Zm-3.655-3.654-1.243-1.243v-.96h.323v.826l1.149,1.148Zm-.92-4.787h-.323v-2.584h.323Zm0-5.168h-.323V305.64h.323Zm0-5.168h-.323v-2.584h.323Zm0-5.168h-.323V295.3h.323Zm0-5.168h-.323v-2.584h.323Zm0-5.168h-.323v-2.584h.323Zm0-5.168h-.323V279.8h.323Zm0-5.168h-.323v-2.584h.323Zm0-5.168h-.323v-2.584h.323Zm0-5.168h-.323V264.3h.323Zm0-5.168h-.323v-2.584h.323Zm0-5.168h-.323v-2.584h.323Zm0-5.168h-.323v-2.584h.323Zm0-5.168h-.323v-2.584h.323Zm0-5.168h-.323v-2.584h.323Zm0-5.168h-.323v-2.584h.323Zm0-5.168h-.323v-2.584h.323Zm-1.293-4.633-1.827-1.827.228-.228,1.827,1.827Zm-3.654-3.654-1.827-1.827.228-.228,1.827,1.827Zm-3.654-3.654-1.827-1.827.228-.228,1.827,1.827Zm-3.655-3.654-1.827-1.827.228-.228,1.827,1.827Zm-3.654-3.654-1.828-1.827.229-.228,1.828,1.827Zm-3.655-3.654-1.827-1.827.228-.228,1.827,1.827Zm-3.654-3.654-1.827-1.827.228-.228,1.827,1.827Zm-3.655-3.654-1.827-1.827.228-.228,1.827,1.827Zm-3.654-3.654-1.827-1.827.228-.228,1.827,1.827Zm-3.655-3.654-1.827-1.827.228-.228,1.828,1.827Zm-3.654-3.654-1.828-1.827.228-.228,1.827,1.827Zm-3.655-3.654-1.827-1.827.228-.228,1.827,1.827Zm-3.655-3.654-1.827-1.827.228-.228L425.54,182Zm-3.654-3.654-1.827-1.827.229-.228,1.827,1.827ZM418,174.917l-1.827-1.827.228-.228,1.827,1.827Zm-3.654-3.654-1.827-1.827.228-.228,1.827,1.827Zm-3.655-3.654-1.827-1.827.228-.228,1.827,1.827Zm-3.655-3.654-1.827-1.827.228-.228,1.827,1.827Zm-3.655-3.654-1.827-1.827.228-.228,1.827,1.827Zm-3.654-3.654L397.9,154.82l.228-.228,1.827,1.827Z" transform="translate(-269.383 -104.66)" fill="#c3d2fd"/>
        <path id="Path_11852" data-name="Path 11852" d="M1121.21,412.678a24.273,24.273,0,1,1,24.277-24.273,24.3,24.3,0,0,1-24.277,24.273m0-47.156A22.883,22.883,0,1,0,1144.1,388.4a22.911,22.911,0,0,0-22.887-22.883" transform="translate(-742.631 -246.519)" fill="#4956bd"/>
        <path id="Path_11853" data-name="Path 11853" d="M94.982,422.218l-.229-.228,1.827-1.827.228.228Zm3.654-3.654-.228-.228,1.827-1.827.228.228Zm3.654-3.654-.228-.228,1.827-1.827.228.228Zm3.655-3.654-.228-.228,1.827-1.827.228.228ZM109.6,407.6l-.228-.228,1.828-1.827.228.228Zm3.655-3.654-.228-.228,1.827-1.827.228.228Zm3.654-3.654-.228-.228,1.827-1.827.228.228Zm3.655-3.654-.228-.228,1.827-1.827.228.228Zm3.654-3.654-.228-.228,1.827-1.827.228.228Zm3.655-3.654-.228-.228.858-.857h1.505v.323h-1.371Zm72.914-.763h-1.013v-.323h.879l1.111-1.111.228.228Zm-3.6,0h-2.584v-.323h2.584Zm-5.168,0h-2.584v-.323h2.584Zm-5.168,0H184.27v-.323h2.584Zm-5.168,0H179.1v-.323h2.584Zm-5.168,0h-2.584v-.323h2.584Zm-5.168,0h-2.584v-.323h2.584Zm-5.168,0H163.6v-.323h2.584Zm-5.168,0H158.43v-.323h2.584Zm-5.168,0h-2.584v-.323h2.584Zm-5.168,0h-2.584v-.323h2.584Zm-5.168,0h-2.584v-.323h2.584Zm-5.168,0h-2.584v-.323h2.584Zm-5.168,0h-2.584v-.323h2.584Zm68.644-3.033-.228-.228,1.828-1.827.228.228Zm3.655-3.654-.228-.228,1.827-1.827.228.228Zm3.654-3.654L210.9,378l1.827-1.827.228.228Zm3.655-3.654-.228-.228,1.827-1.827.228.228Zm3.654-3.654-.228-.228,1.827-1.827.228.228Zm3.655-3.654-.228-.228,1.827-1.827.228.228Zm3.655-3.654-.228-.228,1.827-1.827.228.228Zm3.655-3.654-.229-.228L231,357.9l.228.228Zm3.654-3.654-.228-.228,1.827-1.827.228.228Z" transform="translate(-64.148 -239.83)" fill="#c3d2fd"/>
        <rect id="Rectangle_3457" data-name="Rectangle 3457" width="333.697" height="19.457" transform="translate(184.811 0.491)" fill="#1b78fe"/>
        <path id="Path_11854" data-name="Path 11854" d="M658.115,29.184H617.942a1.071,1.071,0,0,1-1.071-1.071V26.3a1.071,1.071,0,0,1,1.071-1.071h40.173a1.071,1.071,0,0,1,1.07,1.071v1.811a1.07,1.07,0,0,1-1.07,1.071" transform="translate(-417.626 -17.082)" fill="#f7f7f7"/>
        <path id="Path_11855" data-name="Path 11855" d="M533.038,94.019l-.559-.559.228-.228.559.559Zm-2.387-2.386-1.827-1.827.228-.228L530.88,91.4ZM527,87.979l-1.827-1.827.228-.228,1.827,1.827Zm-3.655-3.654L521.515,82.5l.228-.228L523.57,84.1Zm-3.654-3.654-1.827-1.827.228-.228,1.827,1.827Zm-49.108-.145-.228-.228,1.827-1.827.228.228Zm-62.127-.379-.228-.228,1.827-1.827.228.228Zm60.072-.884L466.7,77.437l.229-.228,1.827,1.827Zm47.509-2.247-1.828-1.827.228-.228,1.827,1.827Zm-41.8-.145-.229-.228,1.827-1.827.228.228Zm-62.128-.379-.228-.228,1.827-1.827.228.228Zm52.762-.884-1.827-1.827.228-.228,1.827,1.827Zm47.509-2.247-1.827-1.827.228-.228,1.827,1.827Zm-34.49-.145-.228-.228,1.827-1.827.228.228Zm-62.128-.378-.228-.228,1.827-1.827.229.228Zm45.454-.884-1.827-1.827.228-.228,1.827,1.827Zm47.509-2.247L506.9,67.882l.229-.228,1.827,1.827Zm-27.181-.145-.228-.228,1.827-1.827.228.228Zm-62.127-.378-.228-.228,1.827-1.827.228.228ZM457.56,68.3l-1.827-1.827.228-.228,1.827,1.827Zm47.509-2.247-1.827-1.827.228-.228,1.827,1.827ZM485.2,65.91l-.228-.228,1.827-1.827.228.228Zm-62.127-.379-.228-.228,1.827-1.827.228.228Zm30.835-.884-1.827-1.827.228-.228,1.827,1.827ZM501.415,62.4l-1.827-1.827.228-.228,1.827,1.827Zm-12.562-.145-.228-.228,1.827-1.827.228.228Zm-62.127-.379-.228-.228,1.827-1.827.228.228Zm23.526-.884-1.828-1.827.228-.228,1.827,1.827Zm47.509-2.247-1.827-1.827.228-.228,1.827,1.827Zm-5.253-.145-.228-.228,1.827-1.827.228.228Zm-62.128-.379L430.151,58l1.827-1.827.228.228ZM446.6,57.34l-1.827-1.827.228-.228,1.827,1.827Zm-12.562-2.77-.228-.229,1.828-1.827.228.228Zm8.908-.884-1.828-1.827.228-.228,1.828,1.827Zm-5.254-2.77-.228-.228,1.47-1.47.586.586-.228.228-.357-.357Z" transform="translate(-276.37 -33.321)" fill="#c3d2fd"/>
        <path id="Path_11856" data-name="Path 11856" d="M1424.97,313.825h-.323V190.949h-53.4v-.323h53.719Z" transform="translate(-928.345 -129.056)" fill="#4d78eb"/>
        <g id="Group_6454" data-name="Group 6454" transform="translate(372.454 251.76)" opacity="0.15" style="mix-blend-mode: multiply;isolation: isolate">
          <g id="Group_6453" data-name="Group 6453">
            <g id="Group_6452" data-name="Group 6452" clip-path="url(#clip-path-4)">
              <path id="Path_11857" data-name="Path 11857" d="M1153.127,1219.621c.046.129.084.209.089.225-.029-.073-.059-.151-.089-.225" transform="translate(-1153.128 -1077.452)" fill="#243973"/>
              <path id="Path_11858" data-name="Path 11858" d="M1250.627,832.855l-.837,8.772-.087.973h-66.71c.166-.32.35-.641.555-.973.477-.817,1.031-1.653,1.615-2.5-.2-9.415,4.056-14.044,7.5-16.825s3.667-11.107,2.081-16.573-2.072-13.315-.214-17.623,11.683-12.284,23.258-6.769,5.506,23.293,5.506,23.293c-.749,7.256-2.646,11.195-4.621,13.334a29.706,29.706,0,0,0,.2,7.44c.584.078,1.187.185,1.809.3.214.029.438.048.651.087,5.194.72,10.019,2.685,13.035,5.592,1.926.1,3.842.224,5.661.369,3.726.243,7.305.593,10.593,1.1" transform="translate(-1173.348 -779.46)" fill="#243973"/>
            </g>
          </g>
        </g>
        <path id="Path_11859" data-name="Path 11859" d="M981.049,698.467l52.116.24-.174,37.768-.037,7.955-7.919-7.992-44.16-.2Z" transform="translate(-664.059 -472.867)" fill="#ffc655"/>
        <path id="Path_11860" data-name="Path 11860" d="M1391.625,1029.261a4.617,4.617,0,0,0-3.557-.284l.373-2.674h-14.227l2.278,16.341h9.673l.213-1.526.2-1.467a5.745,5.745,0,0,0,3.836-1.513,8.376,8.376,0,0,0,2.42-6.226,2.949,2.949,0,0,0-1.213-2.65m-2.255,7.731a4.134,4.134,0,0,1-2.57,1.1l1.033-7.424c.76-.258,2.2-.6,2.933-.11.129.086.52.346.52,1.357a6.837,6.837,0,0,1-1.916,5.081" transform="translate(-930.351 -694.813)" fill="#febd54"/>
        <path id="Path_11861" data-name="Path 11861" d="M1386.164,1042.643h-9.673l-2.278-16.341h5.238s-1.882,14.748,6.713,16.341h0" transform="translate(-930.351 -694.813)" fill="#dea549"/>
        <path id="Path_11862" data-name="Path 11862" d="M1390.015,991.468s-2.992,1-1.884,3.656,3.015,4.333,1.219,7.6c0,0,3.324-2,1.773-5.324s-2.493-4.265-1.108-5.927" transform="translate(-939.607 -671.23)" fill="#fdfdfd"/>
        <path id="Path_11863" data-name="Path 11863" d="M1404.486,1000.75s-2.194.732-1.381,2.682,2.211,3.179.894,5.571c0,0,2.439-1.467,1.3-3.905s-1.828-3.129-.813-4.348" transform="translate(-949.788 -677.514)" fill="#fdfdfd"/>
        <path id="Path_11864" data-name="Path 11864" d="M1379.786,1000.75s-2.195.732-1.382,2.682,2.211,3.179.894,5.571c0,0,2.438-1.467,1.3-3.905s-1.829-3.129-.812-4.348" transform="translate(-933.066 -677.514)" fill="#fdfdfd"/>
        <path id="Path_11865" data-name="Path 11865" d="M1316.4,1290.2l-11.328-75.33,2.182-.336,11.328,75.33Z" transform="translate(-883.538 -822.248)" fill="#2a4387"/>
        <path id="Path_11866" data-name="Path 11866" d="M1273.567,1290.2l-11.328-75.33,2.182-.336,11.328,75.33Z" transform="translate(-854.544 -822.248)" fill="#2a4387"/>
        <path id="Path_11867" data-name="Path 11867" d="M1081.781,1290.2l-2.182-.336,11.328-75.33,2.182.336Z" transform="translate(-730.896 -822.248)" fill="#2a4387"/>
        <path id="Path_11868" data-name="Path 11868" d="M1252.906,1018.916l8.874-93.349s-15.521-2.03-24.9-1.53l-14.1,94.879Z" transform="translate(-827.833 -625.525)" fill="#baafa3"/>
        <rect id="Rectangle_3459" data-name="Rectangle 3459" width="30.121" height="4.743" transform="translate(394.952 388.646)" fill="#baafa3"/>
        <path id="Path_11869" data-name="Path 11869" d="M1151.91,1015.353l-4.708-88.958s39.281-4.266,63.408-.588Z" transform="translate(-776.663 -625.765)" fill="#baafa3"/>
        <path id="Path_11870" data-name="Path 11870" d="M1178.956,788.811s6.066-17.785-5.509-23.3-21.4,2.456-23.259,6.769-1.365,12.155.218,17.623,1.353,13.793-2.087,16.577-7.7,7.408-7.493,16.82c.131,5.839,22.981-14.937,22.981-14.937Z" transform="translate(-772.341 -516.987)" fill="#292c47"/>
        <path id="Path_11871" data-name="Path 11871" d="M1201.408,1392.039s-.36,12.568,1.435,13.324,8.588-3.614,11.585-7.936-3.755-14.382-4.862-19.932c-.464-2.323-5.743-6.5-8.317-5.305a12.574,12.574,0,0,0-4.453,4.267s6.55,4.487,4.613,15.583" transform="translate(-810.238 -928.838)" fill="#d4c3bd"/>
        <path id="Path_11872" data-name="Path 11872" d="M1196.8,1376.9a69.287,69.287,0,0,1,3.375,7.617c1.146,3.328,1.36,12.543,2.083,13.183s6.415-2.232,7.175-5.678-1.549-10.334-3.746-13.955a22.507,22.507,0,0,0-4.433-5.434s-3.881.754-4.453,4.267" transform="translate(-810.238 -929.282)" fill="#de9673"/>
        <path id="Path_11873" data-name="Path 11873" d="M1236.333,1389.06l6.117,8.927-1.158.793-4.728-6.9Z" transform="translate(-837.005 -940.402)" fill="#d4c3bd"/>
        <path id="Path_11874" data-name="Path 11874" d="M1120.033,1076.456s2.992,5.05,0,8.728-23.1,13.778-22.957,19.613,3.832,14.967,5.156,17.284,6.208,11.93,8.746,17.557,17.212,32.543,20.081,38.611,1.1-24.269,1.1-24.269l-14.675-43.023,34.286-33.4s-4.15-9.235-31.741-1.1" transform="translate(-742.727 -726.5)" fill="#de9673"/>
        <path id="Path_11875" data-name="Path 11875" d="M1155.193,906.072s-9.514,2.108-13.29,4.315-12.162,12.356-12.162,16.72,36.673,8.441,36.673,8.441l6.951,25.373s18.536-4.523,20.742-8.273-7.3-30.447-8.623-36.073-8.258-9.42-15.981-10.5a53.049,53.049,0,0,0-14.311,0" transform="translate(-764.842 -613.092)" fill="#fe5454"/>
        <path id="Path_11876" data-name="Path 11876" d="M1191.217,1086.058s-.662,4.339,1.1,6.178,9.9,12.56,5.591,23.094c-3.954,9.671-11.623,9.487-11.623,9.487h-11.868s3.446,17.41,2.333,28.883-6.347,37.672-6.457,39-5.017,5.462-6.452,3.366c0,0-.133-15.775-.905-21.732s-4.06-29.786-5.053-33.316-6.841-14.231-6.841-15.334-5.711-18.374,6.756-22.786,16.874-16.744,33.415-16.836" transform="translate(-778.382 -735.268)" fill="#eea886"/>
        <path id="Path_11877" data-name="Path 11877" d="M1159.737,1431.3s-8.185,9.546-7.265,11.262,8.951,2.59,14,1.113,6.126-13.542,8.755-18.554c1.1-2.1-.375-8.668-3.13-9.355a12.576,12.576,0,0,0-6.146.517s2.27,7.608-6.214,15.016" transform="translate(-780.182 -958.341)" fill="#e6d3cc"/>
        <path id="Path_11878" data-name="Path 11878" d="M1175.821,1415.284a69.309,69.309,0,0,1-2.166,8.044c-1.2,3.308-6.832,10.608-6.672,11.56s6.391,2.3,9.149.1,5.3-9.009,5.864-13.206a22.486,22.486,0,0,0-.029-7.012s-3.491-1.854-6.146.517" transform="translate(-790.052 -957.339)" fill="#eea886"/>
        <path id="Path_11879" data-name="Path 11879" d="M1218.34,1445.175l-.858,10.787-1.4-.112.664-8.337Z" transform="translate(-823.295 -978.393)" fill="#e6d3cc"/>
        <path id="Path_11880" data-name="Path 11880" d="M1162.151,1106.563c-3.733,9.8-11.622,9.488-11.622,9.488h-11.868s-4.95-7.844-17.072-9.191a35.86,35.86,0,0,0-9.142.217l-.123.018c-16.106,2.386-13,8.3-12.948,8.451-1.338-3.268-2.744-8.465-2.405-11.263,1.545-12.748,19.965-15.421,22.957-19.1s0-8.727,0-8.727c27.591-8.133,31.741,1.1,31.741,1.1,1.209-.168,4.309-1.953,5.627-1.96,0,0,1.381,3.016,2.354,5.737.858,2.4,6.552,14.592,2.5,25.227" transform="translate(-742.621 -726.501)" fill="#292c47"/>
        <path id="Path_11881" data-name="Path 11881" d="M1150.811,959.4l4.083,37.949h-53.733l-4.082-37.949Z" transform="translate(-742.729 -649.522)" fill="#2a4387"/>
        <rect id="Rectangle_3460" data-name="Rectangle 3460" width="8.974" height="3.414" transform="translate(407.466 344.415)" fill="#2a4387"/>
        <rect id="Rectangle_3461" data-name="Rectangle 3461" width="142.783" height="5.167" transform="translate(323.754 347.829)" fill="#dbd5d2"/>
        <path id="Path_11882" data-name="Path 11882" d="M1198.893,778.331s12.038,3.562,10.318,20.265-9.582,15.844-10.318,15.967-10.073.737-13.021-19.528,13.021-16.7,13.021-16.7" transform="translate(-802.597 -526.772)" fill="#eea886"/>
        <path id="Path_11883" data-name="Path 11883" d="M1216.233,873.547s-.638,5.531.427,8.97-14.022,3.534-14.013.706c.01-3.212,1.544-5.9.1-11.4s13.488,1.726,13.488,1.726" transform="translate(-814.2 -588.829)" fill="#eea886"/>
        <path id="Path_11884" data-name="Path 11884" d="M1193.955,783.624s6.541,10.4,13.426,12.817c0,0,3.759-17.457-11.768-21.114s-13.094,17.632-11.935,23.31a46.134,46.134,0,0,1,10.277-15.012" transform="translate(-800.766 -524.617)" fill="#292c47"/>
        <path id="Path_11885" data-name="Path 11885" d="M1208.479,883.685a8.146,8.146,0,0,0,10.854.518s-.5,3.171-4.884,3.58-5.97-4.1-5.97-4.1" transform="translate(-818.148 -598.261)" fill="#a77860"/>
        <g id="Group_6457" data-name="Group 6457" transform="translate(384.414 249.542)" opacity="0.72">
          <g id="Group_6456" data-name="Group 6456">
            <g id="Group_6455" data-name="Group 6455" clip-path="url(#clip-path-5)">
              <path id="Path_11886" data-name="Path 11886" d="M1190.162,780.49s3.443-6.667,9.258-6.965,9.272,4.745,9.272,4.745a9.885,9.885,0,0,0-9.265-5.679c-7,0-9.265,7.9-9.265,7.9" transform="translate(-1190.161 -772.592)" fill="#fff"/>
            </g>
          </g>
        </g>
        <path id="Path_11887" data-name="Path 11887" d="M1215.568,905.393s-.214,11.561-9.384,11.9-7.262-11.089-7.262-11.089,6.708-2.717,16.646-.815" transform="translate(-811.566 -612.5)" fill="#eea886"/>
        <rect id="Rectangle_3463" data-name="Rectangle 3463" width="3.801" height="118.656" transform="translate(462.737 352.996)" fill="#7c95d6"/>
        <rect id="Rectangle_3464" data-name="Rectangle 3464" width="3.801" height="118.656" transform="translate(323.754 352.996)" fill="#7c95d6"/>
      </g>
    </g>
  </g>
</svg>
