<svg id="calls-Monthly-Meetings" xmlns="http://www.w3.org/2000/svg" xmlns:xlink="http://www.w3.org/1999/xlink" width="574.42" height="465.857" viewBox="0 0 574.42 465.857">
  <defs>
    <clipPath id="clip-path">
      <rect id="Rectangle_3447" data-name="Rectangle 3447" width="574.42" height="465.857" fill="none"/>
    </clipPath>
    <clipPath id="clip-path-2">
      <rect id="Rectangle_3446" data-name="Rectangle 3446" width="574.42" height="465.859" fill="none"/>
    </clipPath>
    <clipPath id="clip-path-3">
      <rect id="Rectangle_3398" data-name="Rectangle 3398" width="552.741" height="360.397" fill="none"/>
    </clipPath>
    <clipPath id="clip-path-4">
      <rect id="Rectangle_3400" data-name="Rectangle 3400" width="235.561" height="141.408" fill="none"/>
    </clipPath>
    <clipPath id="clip-path-5">
      <rect id="Rectangle_3402" data-name="Rectangle 3402" width="72.856" height="19.053" fill="none"/>
    </clipPath>
    <clipPath id="clip-path-6">
      <rect id="Rectangle_3403" data-name="Rectangle 3403" width="11.426" height="11.669" fill="none"/>
    </clipPath>
    <clipPath id="clip-path-7">
      <rect id="Rectangle_3406" data-name="Rectangle 3406" width="15.484" height="7.722" fill="none"/>
    </clipPath>
    <clipPath id="clip-path-8">
      <rect id="Rectangle_3410" data-name="Rectangle 3410" width="5.902" height="5.901" fill="none"/>
    </clipPath>
    <clipPath id="clip-path-10">
      <rect id="Rectangle_3432" data-name="Rectangle 3432" width="12.625" height="27.023" fill="none"/>
    </clipPath>
    <clipPath id="clip-path-12">
      <rect id="Rectangle_3438" data-name="Rectangle 3438" width="6.989" height="6.989" fill="none"/>
    </clipPath>
    <clipPath id="clip-path-13">
      <rect id="Rectangle_3439" data-name="Rectangle 3439" width="59.592" height="128.874" fill="none"/>
    </clipPath>
    <clipPath id="clip-path-14">
      <rect id="Rectangle_3440" data-name="Rectangle 3440" width="9.37" height="17.982" fill="none"/>
    </clipPath>
    <clipPath id="clip-path-16">
      <rect id="Rectangle_3442" data-name="Rectangle 3442" width="7.103" height="7.214" fill="none"/>
    </clipPath>
    <clipPath id="clip-path-17">
      <rect id="Rectangle_3443" data-name="Rectangle 3443" width="9.368" height="17.982" fill="none"/>
    </clipPath>
    <clipPath id="clip-path-18">
      <rect id="Rectangle_3444" data-name="Rectangle 3444" width="9.372" height="17.982" fill="none"/>
    </clipPath>
  </defs>
  <g id="Group_6448" data-name="Group 6448" clip-path="url(#clip-path)">
    <g id="Group_6447" data-name="Group 6447" transform="translate(0 -0.001)">
      <g id="Group_6446" data-name="Group 6446" clip-path="url(#clip-path-2)">
        <g id="Group_6400" data-name="Group 6400" transform="translate(12.12 105.011)" opacity="0.4">
          <g id="Group_6399" data-name="Group 6399">
            <g id="Group_6398" data-name="Group 6398" clip-path="url(#clip-path-3)">
              <path id="Path_11666" data-name="Path 11666" d="M580.118,526.38c12.077-59.284,7.714-114.074-23.231-166.233-22.048-37.16-60.345-68.2-104.15-69.022-41.32-.772-78.513,24.635-119.337,31.061-67.154,10.571-136.564-30.979-201.789-11.985-34.9,10.164-63.285,37.212-79.314,69.342s-20.569,68.9-18.047,104.563c4.483,63.374,32.917,126.4,81.486,167.4H511.369c33.234-38.055,60.937-86.778,68.749-125.126" transform="translate(-33.599 -291.109)" fill="#e0e0ff"/>
            </g>
          </g>
        </g>
        <path id="Path_11667" data-name="Path 11667" d="M581.875,1112.856H549.681a2.448,2.448,0,0,1-2.448-2.448v-8.658a2.448,2.448,0,0,1,2.448-2.448h32.194a2.448,2.448,0,0,1,2.448,2.448v8.658a2.448,2.448,0,0,1-2.448,2.448" transform="translate(-349.834 -702.759)" fill="#e0e0ff"/>
        <path id="Path_11668" data-name="Path 11668" d="M698.542,1112.856H666.348a2.448,2.448,0,0,1-2.448-2.448v-8.658a2.448,2.448,0,0,1,2.448-2.448h32.194a2.448,2.448,0,0,1,2.448,2.448v8.658a2.448,2.448,0,0,1-2.448,2.448" transform="translate(-424.417 -702.759)" fill="#e0e0ff"/>
        <path id="Path_11669" data-name="Path 11669" d="M639.375,1061.189H607.181a2.448,2.448,0,0,1-2.448-2.448v-8.658a2.448,2.448,0,0,1,2.448-2.448h32.194a2.448,2.448,0,0,1,2.448,2.448v8.658a2.448,2.448,0,0,1-2.448,2.448" transform="translate(-386.593 -669.729)" fill="#e0e0ff"/>
        <path id="Path_11670" data-name="Path 11670" d="M670.143,189.428a8.434,8.434,0,0,0-8.434-8.434H380.982a8.434,8.434,0,0,0-8.434,8.434v6.915h297.6Z" transform="translate(-238.162 -115.704)" fill="#fff"/>
        <path id="Path_11671" data-name="Path 11671" d="M669.8,196H371.31v-7.361a8.891,8.891,0,0,1,8.881-8.88H660.917a8.89,8.89,0,0,1,8.88,8.88Zm-297.6-.892h296.7v-6.468a8,8,0,0,0-7.988-7.988H380.191a8,8,0,0,0-7.988,7.988Z" transform="translate(-237.371 -114.913)" fill="#5254cf"/>
        <path id="Path_11672" data-name="Path 11672" d="M372.547,223.544V402.633a8.434,8.434,0,0,0,8.434,8.434H661.708a8.434,8.434,0,0,0,8.434-8.434V223.544Z" transform="translate(-238.161 -142.905)" fill="#fff"/>
        <path id="Path_11673" data-name="Path 11673" d="M660.917,410.722H380.191a8.891,8.891,0,0,1-8.881-8.88V222.306H669.8V401.842a8.89,8.89,0,0,1-8.88,8.88M372.2,223.2V401.842a8,8,0,0,0,7.988,7.988H660.917a8,8,0,0,0,7.988-7.988V223.2Z" transform="translate(-237.371 -142.114)" fill="#5254cf"/>
        <path id="Path_11674" data-name="Path 11674" d="M410.226,196.941a3.006,3.006,0,1,1-3.006-3.006,3.006,3.006,0,0,1,3.006,3.006" transform="translate(-258.405 -123.977)" fill="#fff"/>
        <path id="Path_11675" data-name="Path 11675" d="M406.421,199.6a3.457,3.457,0,1,1,3.457-3.457,3.461,3.461,0,0,1-3.457,3.457m0-6.012a2.555,2.555,0,1,0,2.555,2.555,2.558,2.558,0,0,0-2.555-2.555" transform="translate(-257.606 -123.178)" fill="#5254cf"/>
        <path id="Path_11676" data-name="Path 11676" d="M442.726,196.941a3.006,3.006,0,1,1-3.006-3.006,3.006,3.006,0,0,1,3.006,3.006" transform="translate(-279.182 -123.977)" fill="#fff"/>
        <path id="Path_11677" data-name="Path 11677" d="M438.921,199.6a3.457,3.457,0,1,1,3.457-3.457,3.461,3.461,0,0,1-3.457,3.457m0-6.012a2.555,2.555,0,1,0,2.555,2.555,2.558,2.558,0,0,0-2.555-2.555" transform="translate(-278.383 -123.178)" fill="#5254cf"/>
        <path id="Path_11678" data-name="Path 11678" d="M475.226,196.941a3.006,3.006,0,1,1-3.006-3.006,3.006,3.006,0,0,1,3.006,3.006" transform="translate(-299.958 -123.977)" fill="#fff"/>
        <path id="Path_11679" data-name="Path 11679" d="M471.421,199.6a3.457,3.457,0,1,1,3.457-3.457,3.461,3.461,0,0,1-3.457,3.457m0-6.012a2.555,2.555,0,1,0,2.555,2.555,2.558,2.558,0,0,0-2.555-2.555" transform="translate(-299.159 -123.178)" fill="#5254cf"/>
        <g id="Group_6403" data-name="Group 6403" transform="translate(165.403 100.167)" opacity="0.4">
          <g id="Group_6402" data-name="Group 6402">
            <g id="Group_6401" data-name="Group 6401" clip-path="url(#clip-path-4)">
              <rect id="Rectangle_3399" data-name="Rectangle 3399" width="235.562" height="141.408" transform="translate(0 0)" fill="#e0e0ff"/>
            </g>
          </g>
        </g>
        <path id="Path_11680" data-name="Path 11680" d="M762.87,593.409H685.964c-2.841-26.558-3.571-50.366-1.028-66.192a53.463,53.463,0,0,1,2.823-11.047l32.384-6.592,37.65,3.373c6.331,16.377,7.323,45.821,5.077,80.459" transform="translate(-436.869 -325.76)" fill="#ffb147"/>
        <rect id="Rectangle_3401" data-name="Rectangle 3401" width="0.902" height="30.661" transform="translate(285.212 191.185)" fill="#1b1b43"/>
        <g id="Group_6406" data-name="Group 6406" transform="translate(248.067 183.817)" opacity="0.2">
          <g id="Group_6405" data-name="Group 6405">
            <g id="Group_6404" data-name="Group 6404" clip-path="url(#clip-path-5)">
              <path id="Path_11681" data-name="Path 11681" d="M760.554,512.95s-30.319,21.265-72.857,14.267a53.463,53.463,0,0,1,2.823-11.047l32.384-6.592Z" transform="translate(-687.697 -509.577)" fill="#1b1b43"/>
            </g>
          </g>
        </g>
        <path id="Path_11682" data-name="Path 11682" d="M722.355,183.418s-14.6,18.624-11.089,34.448l51.307-2.141s.44-30.988-10.769-33.625Z" transform="translate(-454.348 -116.411)" fill="#1b1b43"/>
        <path id="Path_11683" data-name="Path 11683" d="M844.966,216.332h-.9c0-20.3-10.558-29.627-10.665-29.718l.588-.683c.11.095,10.979,9.693,10.979,30.4" transform="translate(-532.774 -118.86)" fill="#1b1b43"/>
        <path id="Path_11684" data-name="Path 11684" d="M611.4,423.8a19.224,19.224,0,0,1-11.967,17.188,17.917,17.917,0,0,1-3.824,1.082,50.6,50.6,0,0,1-8.54.649c-16.593,0-28.641-12.6-30.066-16.445s2.593-2.48,2.593-2.48c1.465-3.269,4.73-.636,4.73-.636.983-3.409,4.067-.225,4.067-.225s.108-1.867,1.867-1.758c1.082.072,4.626,2.227,7.187,3.869a8.12,8.12,0,0,0,4.365,1.272,7.862,7.862,0,0,0,1.831-.207,8.106,8.106,0,0,0,6.15-6.43l4.969-27.072h11.76l3.77,4.834c1.479,5.961,1.389,18.171,1.109,26.36" transform="translate(-355.887 -250.981)" fill="#ffbc96"/>
        <g id="Group_6409" data-name="Group 6409" transform="translate(242.9 178.334)" opacity="0.4">
          <g id="Group_6408" data-name="Group 6408">
            <g id="Group_6407" data-name="Group 6407" clip-path="url(#clip-path-6)">
              <path id="Path_11685" data-name="Path 11685" d="M684.8,494.927a19.062,19.062,0,0,1-10.776,11.119A8.429,8.429,0,0,1,684.8,494.927" transform="translate(-673.373 -494.377)" fill="#fe5b52"/>
            </g>
          </g>
        </g>
        <path id="Path_11686" data-name="Path 11686" d="M692.849,248.822l-24.183,4.928a22.778,22.778,0,0,0-17.737,17.605l-6.577,31.092,21.977,3.077Z" transform="translate(-411.921 -159.065)" fill="#2280fc"/>
        <path id="Path_11687" data-name="Path 11687" d="M802.151,248.822l24.183,4.928a22.778,22.778,0,0,1,17.737,17.605l2.987,22.081-21.318,3.736Z" transform="translate(-512.798 -159.065)" fill="#2280fc"/>
        <path id="Path_11688" data-name="Path 11688" d="M699.047,305.522s-1.172,35.457-3.516,43.955c0,0,32.819,11.428,70.034-3.223l-2.93-65.346-28.644-32.087h-8.425L697,285.889Z" transform="translate(-444.638 -159.064)" fill="#2280fc"/>
        <path id="Path_11689" data-name="Path 11689" d="M914.567,248.485c.135,2.318-3.679,9.334-6.61,14.357a31.178,31.178,0,0,0-4.04,12.039c-3.779,31.743-6.277,58.3-17.324,65.741a12.69,12.69,0,0,1-9.162,1.93,11.673,11.673,0,0,1-6.322-2.895c-11.633-10.353-5.988-43.7-5.988-43.7l14.429-2.489s3.228-27.253,5.276-36.631,5.276-4.392,5.276-4.392c1.172-2.931,4.392-1.172,4.392-1.172,2.345-3.806,5.276-.884,5.276-.884,1.758-3.508,6.745,2.642,6.745,2.642,3.219-1.47,7.765-9.415,8.053-4.545" transform="translate(-552.178 -157.852)" fill="#ffbc96"/>
        <rect id="Rectangle_3404" data-name="Rectangle 3404" width="29.781" height="0.902" transform="translate(253.96 146.437) rotate(-87.272)" fill="#1b1b43"/>
        <path id="Path_11690" data-name="Path 11690" d="M863.143,342.21,861.3,318.516l.9-.07,1.764,22.706,13.944-2.406.153.889Z" transform="translate(-550.612 -203.575)" fill="#1b1b43"/>
        <rect id="Rectangle_3405" data-name="Rectangle 3405" width="50.336" height="0.902" transform="translate(323.773 160.239) rotate(-82.461)" fill="#d28572"/>
        <g id="Group_6412" data-name="Group 6412" transform="translate(318.931 177.134)" opacity="0.4">
          <g id="Group_6411" data-name="Group 6411">
            <g id="Group_6410" data-name="Group 6410" clip-path="url(#clip-path-7)">
              <path id="Path_11691" data-name="Path 11691" d="M899.632,496.688a12.69,12.69,0,0,1-9.162,1.93,11.673,11.673,0,0,1-6.322-2.895,8.418,8.418,0,0,1,15.484.965" transform="translate(-884.148 -491.052)" fill="#fe5b52"/>
            </g>
          </g>
        </g>
        <rect id="Rectangle_3407" data-name="Rectangle 3407" width="0.902" height="5.461" transform="translate(337.477 94.661) rotate(-8.788)" fill="#d28572"/>
        <rect id="Rectangle_3408" data-name="Rectangle 3408" width="0.902" height="5.562" transform="matrix(0.95, -0.312, 0.312, 0.95, 342.004, 93.606)" fill="#d28572"/>
        <rect id="Rectangle_3409" data-name="Rectangle 3409" width="0.902" height="5.849" transform="translate(347.193 92.264) rotate(-19.593)" fill="#d28572"/>
        <path id="Path_11692" data-name="Path 11692" d="M824.675,316.708h-9.4a.543.543,0,0,1-.543-.543v-2.183a.543.543,0,0,1,.543-.543h9.4a.543.543,0,0,1,.543.543v2.183a.543.543,0,0,1-.543.543" transform="translate(-520.843 -200.373)" fill="#cbcbff"/>
        <path id="Path_11693" data-name="Path 11693" d="M769.751,286.243a17.193,17.193,0,0,1-10.542-3.834l.6-.67c.37.333,9.182,8.06,19.867-.025l.544.719a17.126,17.126,0,0,1-10.473,3.81" transform="translate(-485.346 -180.092)" fill="#1b1b43"/>
        <path id="Path_11694" data-name="Path 11694" d="M593.586,480.65a16.8,16.8,0,0,1-6.035-4.63l.674-.6a15.916,15.916,0,0,0,5.688,4.389Z" transform="translate(-375.609 -303.925)" fill="#d28572"/>
        <path id="Path_11695" data-name="Path 11695" d="M581.143,482.507a15.466,15.466,0,0,1-5-5.8l.789-.438a14.612,14.612,0,0,0,4.694,5.474Z" transform="translate(-368.315 -304.468)" fill="#d28572"/>
        <path id="Path_11696" data-name="Path 11696" d="M568.943,484.933a25.99,25.99,0,0,1-6.2-6.995l.759-.487a25.126,25.126,0,0,0,5.977,6.758Z" transform="translate(-359.751 -305.223)" fill="#d28572"/>
        <path id="Path_11697" data-name="Path 11697" d="M772.128,234.444h0a9.157,9.157,0,0,1-9.157-9.157V209.829h18.314v15.457a9.157,9.157,0,0,1-9.157,9.157" transform="translate(-487.751 -134.138)" fill="#ffbc96"/>
        <path id="Path_11698" data-name="Path 11698" d="M762.964,214.169c5.662,9.515,11.738,10.3,18.337.075Z" transform="translate(-487.747 -136.912)" fill="#d28572"/>
        <path id="Path_11699" data-name="Path 11699" d="M765.844,164.57h0a12.7,12.7,0,0,1-12.7-12.7V130.437h25.407v21.429a12.7,12.7,0,0,1-12.7,12.7" transform="translate(-481.466 -83.384)" fill="#ffbc96"/>
        <path id="Path_11700" data-name="Path 11700" d="M784.492,177.681c-1.485-1.4-2.044-2.511-1.708-3.389a2.359,2.359,0,0,1,1.965-1.2l-.032-2.77.9-.01.041,3.631-.444.011c-.441.013-1.411.19-1.59.657-.085.223-.11.9,1.485,2.41Z" transform="translate(-500.357 -108.877)" fill="#1b1b43"/>
        <path id="Path_11701" data-name="Path 11701" d="M785.331,195.58a8.765,8.765,0,0,0,.829-1.591c-3.077.256-9.6.256-9.6.256a6,6,0,0,0,.73,1.606,49.273,49.273,0,0,0,8.038-.272" transform="translate(-496.44 -124.012)" fill="#fff"/>
        <path id="Path_11702" data-name="Path 11702" d="M778.587,198.671a4.684,4.684,0,0,0,3.921,2.276,4.889,4.889,0,0,0,4.117-2.548,49.311,49.311,0,0,1-8.038.272" transform="translate(-497.734 -126.831)" fill="#1b1b43"/>
        <path id="Path_11703" data-name="Path 11703" d="M769.4,127.853c.011.488.451-10.145-16.12-12.4,0,0-9.356,5.355-8.285,13.076l-5.082-.96c-1.964-5.353-1.287-19.669,10.211-18.655,0,0,2.479-3.54,6.538-3.607,20.629-.338,17.371,22.537,16.876,23.2Z" transform="translate(-472.468 -67.317)" fill="#1b1b43"/>
        <path id="Path_11704" data-name="Path 11704" d="M825.056,169.073c-.971,2.945-3.737,4.679-6.179,3.873s-3.633-3.845-2.662-6.788,3.737-4.678,6.178-3.873,3.634,3.845,2.662,6.788" transform="translate(-521.573 -103.618)" fill="#ffbc96"/>
        <path id="Path_11705" data-name="Path 11705" d="M825.669,174.988l-.895-.112c.155-1.243,1.048-3.63,3.314-3.764l.053.9c-2.091.123-2.469,2.947-2.472,2.976" transform="translate(-527.26 -109.387)" fill="#1b1b43"/>
        <path id="Path_11706" data-name="Path 11706" d="M734.558,169.073c.971,2.945,3.737,4.679,6.179,3.873s3.633-3.845,2.662-6.788-3.737-4.678-6.178-3.873-3.634,3.845-2.662,6.788" transform="translate(-469.371 -103.618)" fill="#ffbc96"/>
        <path id="Path_11707" data-name="Path 11707" d="M744.844,174.989c-.015-.117-.39-2.854-2.473-2.976l.053-.9c2.266.133,3.159,2.52,3.315,3.764Z" transform="translate(-474.582 -109.387)" fill="#1b1b43"/>
        <path id="Path_11708" data-name="Path 11708" d="M801.667,160.389a1.372,1.372,0,1,1-1.369-1.472,1.424,1.424,0,0,1,1.369,1.472" transform="translate(-510.739 -101.591)" fill="#1b1b43"/>
        <path id="Path_11709" data-name="Path 11709" d="M800.9,150.23l-4.223-.508a.73.73,0,0,1-.638-.812l.024-.2a.73.73,0,0,1,.813-.638l4.223.508a.731.731,0,0,1,.638.812l-.024.2a.73.73,0,0,1-.812.638" transform="translate(-508.884 -94.655)" fill="#1b1b43"/>
        <path id="Path_11710" data-name="Path 11710" d="M769.962,160.389a1.372,1.372,0,1,0,1.369-1.472,1.424,1.424,0,0,0-1.369,1.472" transform="translate(-492.22 -101.591)" fill="#1b1b43"/>
        <path id="Path_11711" data-name="Path 11711" d="M765.469,150.23l4.223-.508a.73.73,0,0,0,.638-.812l-.024-.2a.73.73,0,0,0-.813-.638l-4.223.508a.73.73,0,0,0-.638.812l.024.2a.73.73,0,0,0,.812.638" transform="translate(-488.81 -94.655)" fill="#1b1b43"/>
        <g id="Group_6415" data-name="Group 6415" transform="translate(289.165 61.663)" opacity="0.4">
          <g id="Group_6414" data-name="Group 6414">
            <g id="Group_6413" data-name="Group 6413" clip-path="url(#clip-path-8)">
              <path id="Path_11712" data-name="Path 11712" d="M807.533,173.889a2.951,2.951,0,1,1-2.951-2.951,2.951,2.951,0,0,1,2.951,2.951" transform="translate(-801.631 -170.939)" fill="#fe5b52"/>
            </g>
          </g>
        </g>
        <g id="Group_6418" data-name="Group 6418" transform="translate(273.603 61.663)" opacity="0.4">
          <g id="Group_6417" data-name="Group 6417">
            <g id="Group_6416" data-name="Group 6416" clip-path="url(#clip-path-8)">
              <path id="Path_11713" data-name="Path 11713" d="M758.488,173.889a2.951,2.951,0,1,0,2.951-2.951,2.951,2.951,0,0,0-2.951,2.951" transform="translate(-758.488 -170.939)" fill="#fe5b52"/>
            </g>
          </g>
        </g>
        <path id="Path_11714" data-name="Path 11714" d="M393.292,359.942h-88.06a4.541,4.541,0,0,1-4.541-4.541V319.191a4.541,4.541,0,0,1,4.541-4.541h88.06a4.541,4.541,0,0,1,4.541,4.541V355.4a4.541,4.541,0,0,1-4.541,4.541" transform="translate(-192.226 -201.148)" fill="#fff"/>
        <path id="Path_11715" data-name="Path 11715" d="M392.524,359.608h-88.06a4.98,4.98,0,0,1-4.974-4.975V318.422a4.98,4.98,0,0,1,4.974-4.974h88.06a4.98,4.98,0,0,1,4.975,4.974v36.211a4.981,4.981,0,0,1-4.975,4.975m-88.06-45.292a4.111,4.111,0,0,0-4.107,4.107v36.211a4.112,4.112,0,0,0,4.107,4.107h88.06a4.112,4.112,0,0,0,4.107-4.107V318.422a4.111,4.111,0,0,0-4.107-4.107Z" transform="translate(-191.458 -200.379)" fill="#5254cf"/>
        <rect id="Rectangle_3412" data-name="Rectangle 3412" width="75.526" height="0.902" transform="translate(119.274 124.651)" fill="#e0e0ff"/>
        <rect id="Rectangle_3413" data-name="Rectangle 3413" width="75.526" height="0.902" transform="translate(119.274 135.698)" fill="#e0e0ff"/>
        <rect id="Rectangle_3414" data-name="Rectangle 3414" width="75.526" height="0.902" transform="translate(119.274 146.745)" fill="#e0e0ff"/>
        <path id="Path_11716" data-name="Path 11716" d="M332.9,360.232l-.707-.561,5.383-6.787,9.267,3.164,7.978-8.661,8.111,6.534,9.525-10.659,8.637,9.966,7.717-19.973,8.005,12.581,9.308-13.42.741.514-10.081,14.536-7.776-12.219-7.614,19.707-8.948-10.325-9.413,10.533-8.121-6.542-7.8,8.473-9.22-3.148Z" transform="translate(-212.364 -212.504)" fill="#5254cf"/>
        <path id="Path_11717" data-name="Path 11717" d="M946.315,37.168l-4.348-35.16a35.431,35.431,0,1,0,39.782,35.16c0-1.036-.054-2.059-.141-3.073Z" transform="translate(-582.307 -1.282)" fill="#fff"/>
        <path id="Path_11718" data-name="Path 11718" d="M945.516,72.162A35.882,35.882,0,0,1,941.113.67l.447-.055L945.91,35.79l35.31-3.074.039.45c.1,1.117.142,2.135.142,3.111a35.926,35.926,0,0,1-35.885,35.885m-4.739-70.54A34.98,34.98,0,1,0,980.5,36.277c0-.818-.034-1.667-.1-2.584l-35.275,3.071Z" transform="translate(-581.507 -0.392)" fill="#5254cf"/>
        <path id="Path_11719" data-name="Path 11719" d="M1060.363,42.523l35.293-3.073a35.233,35.233,0,0,0-6.65-17.78Z" transform="translate(-677.867 -13.852)" fill="#2280fc"/>
        <path id="Path_11720" data-name="Path 11720" d="M1030.051,15.828a35.322,35.322,0,0,0-32.99-14.307l4.347,35.16Z" transform="translate(-637.4 -0.795)" fill="#e0e0ff"/>
        <path id="Path_11721" data-name="Path 11721" d="M1000.164,36.7,995.667.329l.448-.054a35.769,35.769,0,0,1,33.41,14.489l.266.365ZM996.673,1.117l4.2,33.949,27.657-20.134A35.123,35.123,0,0,0,1000.517.9a34.541,34.541,0,0,0-3.844.219" transform="translate(-636.509 0.004)" fill="#5254cf"/>
        <path id="Path_11722" data-name="Path 11722" d="M1131,462.043h-64.729a5.6,5.6,0,0,1-5.6-5.6V385.433a5.6,5.6,0,0,1,5.6-5.6H1131a5.6,5.6,0,0,1,5.6,5.6v71.015a5.6,5.6,0,0,1-5.6,5.6" transform="translate(-678.065 -242.82)" fill="#fff"/>
        <path id="Path_11723" data-name="Path 11723" d="M1130.23,461.709H1065.5a6.035,6.035,0,0,1-6.029-6.028V384.666a6.035,6.035,0,0,1,6.029-6.028h64.729a6.035,6.035,0,0,1,6.028,6.028v71.015a6.035,6.035,0,0,1-6.028,6.028M1065.5,379.5a5.168,5.168,0,0,0-5.163,5.163v71.015a5.169,5.169,0,0,0,5.163,5.163h64.729a5.169,5.169,0,0,0,5.163-5.163V384.666a5.168,5.168,0,0,0-5.163-5.163Z" transform="translate(-677.298 -242.054)" fill="#5254cf"/>
        <rect id="Rectangle_3415" data-name="Rectangle 3415" width="58.617" height="0.949" transform="translate(391.259 148.787)" fill="#e0e0ff"/>
        <rect id="Rectangle_3416" data-name="Rectangle 3416" width="58.617" height="0.949" transform="translate(391.259 163.216)" fill="#e0e0ff"/>
        <rect id="Rectangle_3417" data-name="Rectangle 3417" width="58.617" height="0.949" transform="translate(391.259 177.645)" fill="#e0e0ff"/>
        <rect id="Rectangle_3418" data-name="Rectangle 3418" width="58.617" height="0.949" transform="translate(391.259 192.074)" fill="#e0e0ff"/>
        <rect id="Rectangle_3419" data-name="Rectangle 3419" width="58.617" height="0.949" transform="translate(391.259 206.503)" fill="#e0e0ff"/>
        <rect id="Rectangle_3420" data-name="Rectangle 3420" width="4.992" height="39.273" transform="translate(391.259 168.179)" fill="#cbcbff"/>
        <rect id="Rectangle_3421" data-name="Rectangle 3421" width="4.992" height="24.68" transform="translate(402.113 182.772)" fill="#e0e0ff"/>
        <rect id="Rectangle_3422" data-name="Rectangle 3422" width="4.992" height="33.747" transform="translate(412.967 173.705)" fill="#cbcbff"/>
        <rect id="Rectangle_3423" data-name="Rectangle 3423" width="4.992" height="39.84" transform="translate(423.821 167.612)" fill="#e0e0ff"/>
        <rect id="Rectangle_3424" data-name="Rectangle 3424" width="4.992" height="47.194" transform="translate(434.675 160.258)" fill="#cbcbff"/>
        <rect id="Rectangle_3425" data-name="Rectangle 3425" width="4.992" height="55.026" transform="translate(445.529 152.426)" fill="#e0e0ff"/>
        <path id="Path_11724" data-name="Path 11724" d="M570.314,15.627H526.1a5.254,5.254,0,0,0-5.254,5.255v17.9a5.254,5.254,0,0,0,5.254,5.255h30.194l11.608,9.92v-9.92h2.411a5.254,5.254,0,0,0,5.254-5.255v-17.9a5.254,5.254,0,0,0-5.254-5.255" transform="translate(-332.966 -9.989)" fill="#fff"/>
        <path id="Path_11725" data-name="Path 11725" d="M567.536,54.142,555.28,43.668H525.26a5.735,5.735,0,0,1-5.728-5.728v-17.9a5.735,5.735,0,0,1,5.728-5.728h44.213a5.735,5.735,0,0,1,5.728,5.728v17.9a5.735,5.735,0,0,1-5.728,5.728h-1.937ZM525.26,15.261a4.787,4.787,0,0,0-4.781,4.781v17.9a4.787,4.787,0,0,0,4.781,4.781h30.369l10.96,9.366V42.721h2.884a4.787,4.787,0,0,0,4.781-4.781v-17.9a4.787,4.787,0,0,0-4.781-4.781Z" transform="translate(-332.126 -9.149)" fill="#5254cf"/>
        <rect id="Rectangle_3426" data-name="Rectangle 3426" width="35.396" height="0.902" transform="translate(194.581 12.853)" fill="#9192ff"/>
        <rect id="Rectangle_3427" data-name="Rectangle 3427" width="40.13" height="0.902" transform="translate(194.581 18.94)" fill="#9192ff"/>
        <rect id="Rectangle_3428" data-name="Rectangle 3428" width="28.181" height="0.902" transform="translate(194.581 25.027)" fill="#9192ff"/>
        <rect id="Rectangle_3429" data-name="Rectangle 3429" width="12.625" height="153.307" transform="translate(212.93 312.068)" fill="#b0b0d2"/>
        <rect id="Rectangle_3430" data-name="Rectangle 3430" width="12.625" height="153.307" transform="translate(341.437 312.068)" fill="#b0b0d2"/>
        <g id="Group_6421" data-name="Group 6421" transform="translate(212.93 311.648)" opacity="0.3">
          <g id="Group_6420" data-name="Group 6420">
            <g id="Group_6419" data-name="Group 6419" clip-path="url(#clip-path-10)">
              <rect id="Rectangle_3431" data-name="Rectangle 3431" width="12.625" height="27.023" transform="translate(0 0)" fill="#1b1b43"/>
            </g>
          </g>
        </g>
        <g id="Group_6424" data-name="Group 6424" transform="translate(341.437 311.648)" opacity="0.3">
          <g id="Group_6423" data-name="Group 6423">
            <g id="Group_6422" data-name="Group 6422" clip-path="url(#clip-path-10)">
              <rect id="Rectangle_3433" data-name="Rectangle 3433" width="12.625" height="27.023" transform="translate(0 0)" fill="#1b1b43"/>
            </g>
          </g>
        </g>
        <rect id="Rectangle_3435" data-name="Rectangle 3435" width="283.547" height="12.704" transform="translate(141.723 306.841)" fill="#b0b0d2"/>
        <rect id="Rectangle_3436" data-name="Rectangle 3436" width="32.836" height="4.354" transform="translate(359.087 302.501)" fill="#1b1b43"/>
        <path id="Path_11726" data-name="Path 11726" d="M965.764,754.725h-4.858l-19.354-51.06a2.271,2.271,0,0,1,4.248-1.61Z" transform="translate(-601.819 -447.869)" fill="#1b1b43"/>
        <rect id="Rectangle_3437" data-name="Rectangle 3437" width="32.835" height="4.354" transform="translate(182.553 302.501)" fill="#1b1b43"/>
        <path id="Path_11727" data-name="Path 11727" d="M583.638,754.725H588.5l19.354-51.06a2.271,2.271,0,0,0-4.248-1.61Z" transform="translate(-373.107 -447.869)" fill="#1b1b43"/>
        <path id="Path_11728" data-name="Path 11728" d="M327.125,639.121,345.038,642l.2-9.816.189-9.771.164-8.354-4.968-2.345-8.512,9.973Z" transform="translate(-209.124 -391.055)" fill="#d28572"/>
        <path id="Path_11729" data-name="Path 11729" d="M357.044,641.091a41.94,41.94,0,0,0,7.318,9.873l.189-9.771Z" transform="translate(-228.251 -409.834)" fill="#925d4f"/>
        <path id="Path_11730" data-name="Path 11730" d="M408.113,607.6c.208.117,5.672,8.484,3.217,9.241a16.833,16.833,0,0,1-5.554.466Z" transform="translate(-259.404 -388.425)" fill="#925d4f"/>
        <path id="Path_11731" data-name="Path 11731" d="M375.675,581.771l-2.26,20.8a4.756,4.756,0,0,1-6.585,3.864l-12.872-5.462-1.737-11.725,10.421-10.915Z" transform="translate(-225.167 -369.712)" fill="#d28572"/>
        <path id="Path_11732" data-name="Path 11732" d="M320.48,656.044l-6.162,13.677,23.9,3.757,1.653-10.671Z" transform="translate(-200.936 -419.393)" fill="#fed3d1"/>
        <path id="Path_11733" data-name="Path 11733" d="M316.489,573.208s10.566-1.783,15.268-7.446c0,0,1.743-10.951-14.368-12.4-17.478-1.575-33.868,23.156-33.868,23.156l21.352,18.65Z" transform="translate(-181.249 -353.703)" fill="#1b1b43"/>
        <path id="Path_11734" data-name="Path 11734" d="M362.846,604.731c1.2,2.338,3.631,3.486,5.424,2.564s2.273-3.565,1.071-5.9-3.631-3.486-5.424-2.564-2.273,3.565-1.07,5.9" transform="translate(-231.536 -382.613)" fill="#d28572"/>
        <path id="Path_11735" data-name="Path 11735" d="M370.781,609.509a4.112,4.112,0,0,0-1.205-2.44,1.219,1.219,0,0,0-1.011-.173l-.2-.88a2.108,2.108,0,0,1,1.722.311,5.055,5.055,0,0,1,1.585,3.052Z" transform="translate(-235.488 -387.372)" fill="#1b1b43"/>
        <g id="Group_6427" data-name="Group 6427" transform="translate(139.402 221.226)" opacity="0.3">
          <g id="Group_6426" data-name="Group 6426">
            <g id="Group_6425" data-name="Group 6425" clip-path="url(#clip-path-12)">
              <path id="Path_11736" data-name="Path 11736" d="M393.442,616.778a3.495,3.495,0,1,1-3.495-3.495,3.495,3.495,0,0,1,3.495,3.495" transform="translate(-386.453 -613.283)" fill="#be443d"/>
            </g>
          </g>
        </g>
        <path id="Path_11737" data-name="Path 11737" d="M272.762,715.856a17.606,17.606,0,0,1-10.208,11.768c-.307.126-.613.244-.929.361s-.6.225-.9.334a34.036,34.036,0,0,0-20.2,21.661c-.171.577-.316,1.127-.433,1.641a70.179,70.179,0,0,1-40.356-8.342s11.182-39.67,35.865-58.545a22.044,22.044,0,0,1,20.056-3.454A29.509,29.509,0,0,1,270.6,692.039l.442.613,2.182,15.926a18.4,18.4,0,0,1-.46,7.278" transform="translate(-127.686 -434.861)" fill="#fe5b52"/>
        <path id="Path_11738" data-name="Path 11738" d="M370.779,765.92a17.606,17.606,0,0,1-10.208,11.769c-.307.126-.613.243-.929.361s-.6.225-.9.334c-3.12-7.656-5.681-19.831-5.681-19.831l15.033,1.993Z" transform="translate(-225.703 -484.925)" fill="#be443d"/>
        <path id="Path_11739" data-name="Path 11739" d="M492.234,708.606s13.2-14.115,17.36-13.076c1.8.451-3.607,6.087-3.607,6.087s5.161.1,13.433-4.172a1.739,1.739,0,0,1,2.157,2.636c-1.751,2.17-6.969,8.01-14.238,10.553l-3.084,3.986-7.737,3.679Z" transform="translate(-314.675 -444.601)" fill="#d28572"/>
        <path id="Path_11740" data-name="Path 11740" d="M415.283,726.88l-17.27,30.788a12.1,12.1,0,0,1-19.713,1.993l-25.241-29.173,16-15.836,17.522,24.024,16.683-17.811Z" transform="translate(-225.703 -456.86)" fill="#fe5b52"/>
        <path id="Path_11741" data-name="Path 11741" d="M405.034,732.631c-10.13-15.815-23.582-34.535-30.8-40.707l.586-.685c8.328,7.121,23.388,29.063,30.973,40.906Z" transform="translate(-239.24 -441.893)" fill="#1b1b43"/>
        <path id="Path_11742" data-name="Path 11742" d="M387.284,785.99a12,12,0,0,1-5.7-1.555c-5.525-2.984-28.522-31.18-29.5-32.379l.7-.569c.238.292,23.858,29.255,29.227,32.154,6.107,3.3,10.252.3,12.179-1.781,3.07-3.316,19.9-33.609,20.074-33.915l.788.438c-.7,1.252-17.057,30.695-20.2,34.09a10.185,10.185,0,0,1-7.573,3.517" transform="translate(-225.084 -478.144)" fill="#1b1b43"/>
        <path id="Path_11743" data-name="Path 11743" d="M343.422,1188.962l-15.552,30.667,3.4.481,5.638-8.006,17.676,12.479,10.364-.043s2.1-2.087-3.28-7.682a34.081,34.081,0,0,1-9.782-24.2l.014-.776-4.239-4.325Z" transform="translate(-209.6 -759.176)" fill="#1b1b43"/>
        <path id="Path_11744" data-name="Path 11744" d="M366.706,1202.876l-3.431,25.984h3.431l4.46-8.717,16.469,8.382h13.038s1.79-2.361-4.325-7.146a34.08,34.08,0,0,1-13.079-22.594l-.095-.77-4.8-3.688Z" transform="translate(-232.234 -763.506)" fill="#393a8f"/>
        <path id="Path_11745" data-name="Path 11745" d="M411.749,1027.485l24.137-84.876a14.624,14.624,0,0,0-7.727-17.179l-21.737-10.455-1.295,100.768Z" transform="translate(-258.989 -584.922)" fill="#1b1b43"/>
        <path id="Path_11746" data-name="Path 11746" d="M190.279,855l-4.863,23.149a21.753,21.753,0,0,0,21.289,26.224h45.5c-4.552,22.242-1.594,52.837,0,84.319l18.787.451,12.96-80.913a28.9,28.9,0,0,0-18.287-31.6l-35.029-13.292Z" transform="translate(-118.231 -546.583)" fill="#2280fc"/>
        <g id="Group_6430" data-name="Group 6430" transform="translate(95.443 313.746)" opacity="0.4">
          <g id="Group_6429" data-name="Group 6429">
            <g id="Group_6428" data-name="Group 6428" clip-path="url(#clip-path-13)">
              <path id="Path_11747" data-name="Path 11747" d="M316.492,998.645l-.894-.116c.1-.763,9.879-76.442,7.219-90.338-2.749-14.358-30.43-18.5-45.3-20.73-1.323-.2-2.541-.38-3.626-.553-3.725-.593-6.375-2.2-7.876-4.78-2.961-5.087-.4-12.062-.291-12.357l.844.316c-.025.069-2.519,6.876.228,11.59,1.358,2.332,3.793,3.792,7.237,4.34,1.083.172,2.3.354,3.618.552,15.092,2.26,43.183,6.466,46.053,21.452,1.13,5.9.26,22.95-2.587,50.669-2.118,20.622-4.6,39.764-4.623,39.954" transform="translate(-264.59 -869.771)" fill="#fff"/>
            </g>
          </g>
        </g>
        <path id="Path_11748" data-name="Path 11748" d="M185.393,1002.027l-3.111,17.982-14.889,86.059h-6.259l14.889-86.059,3.111-17.982Z" transform="translate(-103.01 -640.573)" fill="#b0b0d2"/>
        <path id="Path_11749" data-name="Path 11749" d="M300.393,1106.068h-6.259l-14.889-86.059-3.111-17.982h6.259l3.111,17.982Z" transform="translate(-176.527 -640.573)" fill="#b0b0d2"/>
        <g id="Group_6433" data-name="Group 6433" transform="translate(73.013 361.454)" opacity="0.3">
          <g id="Group_6432" data-name="Group 6432">
            <g id="Group_6431" data-name="Group 6431" clip-path="url(#clip-path-14)">
              <path id="Path_11750" data-name="Path 11750" d="M211.779,1002.027l-3.111,17.982h-6.259l3.111-17.982Z" transform="translate(-202.409 -1002.027)" fill="#1b1b43"/>
            </g>
          </g>
        </g>
        <g id="Group_6436" data-name="Group 6436" transform="translate(99.607 361.454)" opacity="0.3">
          <g id="Group_6435" data-name="Group 6435">
            <g id="Group_6434" data-name="Group 6434" clip-path="url(#clip-path-14)">
              <path id="Path_11751" data-name="Path 11751" d="M285.5,1020.009h-6.259l-3.111-17.982h6.259Z" transform="translate(-276.134 -1002.027)" fill="#1b1b43"/>
            </g>
          </g>
        </g>
        <path id="Path_11752" data-name="Path 11752" d="M225.1,1000.444H166.529v-8.567H225.1a4.284,4.284,0,1,1,0,8.567" transform="translate(-106.458 -634.084)" fill="#cbcbff"/>
        <path id="Path_11753" data-name="Path 11753" d="M124.8,884.874h-8.267L88.614,816.43a3.871,3.871,0,1,1,7.17-2.92Z" transform="translate(-56.465 -518.514)" fill="#cbcbff"/>
        <path id="Path_11754" data-name="Path 11754" d="M1236.595,605.965c-.212.107-6.005,8.183-3.6,9.042a16.755,16.755,0,0,0,5.5.7Z" transform="translate(-787.854 -387.379)" fill="#d28572"/>
        <path id="Path_11755" data-name="Path 11755" d="M1290.919,640.107l-19.293,2.284.357-9.78.364-9.736.308-8.323,5.44-2.173,8.511,10.207Z" transform="translate(-812.923 -391.479)" fill="#ffbc96"/>
        <path id="Path_11756" data-name="Path 11756" d="M1281,641.622a43.656,43.656,0,0,1-8.385,9.593l.364-9.735Z" transform="translate(-813.556 -410.082)" fill="#d28572"/>
        <path id="Path_11757" data-name="Path 11757" d="M1239.912,581.087l1.341,20.763a4.73,4.73,0,0,0,6.375,4.126l13.028-4.867,2.235-11.575-9.879-11.3Z" transform="translate(-792.649 -369.651)" fill="#ffbc96"/>
        <path id="Path_11758" data-name="Path 11758" d="M1242.4,574.989s-3.2-6.211-6.531-7.161c0,0-12.827,4.18-15.652-5.658a25.555,25.555,0,0,0,13.422-4.268c6.194-4.337,12.657-2.255,17.131,1.792,0,0,14.618.721,3.093,26.511,0,0-2.9.961-10.273-9.342Z" transform="translate(-780.055 -355.113)" fill="#1b1b43"/>
        <path id="Path_11759" data-name="Path 11759" d="M1279.2,604.317c-1.3,2.271-3.747,3.313-5.475,2.327s-2.076-3.626-.78-5.9,3.748-3.312,5.475-2.327,2.077,3.626.78,5.9" transform="translate(-813.265 -382.318)" fill="#ffbc96"/>
        <g id="Group_6439" data-name="Group 6439" transform="translate(451.255 220.042)" opacity="0.4">
          <g id="Group_6438" data-name="Group 6438">
            <g id="Group_6437" data-name="Group 6437" clip-path="url(#clip-path-16)">
              <path id="Path_11760" data-name="Path 11760" d="M1258.086,613.609a3.551,3.551,0,1,1-3.551-3.607,3.579,3.579,0,0,1,3.551,3.607" transform="translate(-1250.983 -610.002)" fill="#fe5b52"/>
            </g>
          </g>
        </g>
        <path id="Path_11761" data-name="Path 11761" d="M1279.989,607.3a3.767,3.767,0,0,1,2.633-4.277l.248.867a2.905,2.905,0,0,0-1.989,3.275Z" transform="translate(-818.244 -385.496)" fill="#1b1b43"/>
        <path id="Path_11762" data-name="Path 11762" d="M1271.626,670.039l.219-10.053,16.984-4.359,4.96,12.475Z" transform="translate(-812.923 -419.127)" fill="#cbcbff"/>
        <path id="Path_11763" data-name="Path 11763" d="M1178.548,684.377c-8.525,8.3-14.729,20.742-22.545,33.367,0,0-26.49,6.839-34.081,14.429l13.64,6.914,46.593-12.926Z" transform="translate(-717.221 -437.506)" fill="#1b1b43"/>
        <path id="Path_11764" data-name="Path 11764" d="M1010.185,1194.842l-10.626,30.172-33.249-8.3s5.173-7.074,20.776-5.04l8.3-23.318Z" transform="translate(-617.741 -759.692)" fill="#1b1b43"/>
        <path id="Path_11765" data-name="Path 11765" d="M1112.414,875.627l-48.021,15.607a34.572,34.572,0,0,0-22.815,24.339l-19.344,79.993,26.152,6.764a552.615,552.615,0,0,0,27.054-81.463Z" transform="translate(-653.492 -559.768)" fill="#0e56a5"/>
        <path id="Path_11766" data-name="Path 11766" d="M1166.366,1212.663l3.908,27.956H1133.9s3.307-8.116,18.938-9.92l-.9-16.834Z" transform="translate(-724.879 -775.228)" fill="#1b1b43"/>
        <path id="Path_11767" data-name="Path 11767" d="M1226.266,853.536l4.863,23.149c2.839,13.518-7.3,26.979-21.117,26.979h-43.738c2.458,22.473,4.825,52.083,3.231,83.564l-23.95.451-12.96-80.913a28.9,28.9,0,0,1,18.287-31.6l31.85-13.664Z" transform="translate(-723.809 -545.646)" fill="#2280fc"/>
        <path id="Path_11768" data-name="Path 11768" d="M1309.932,747.571c-3.938-37.627-9.574-73.131-37.916-71.5a6.892,6.892,0,0,0-4.45,2.04,23.54,23.54,0,0,0-6.82,18.516l4.1,51.393s22.094,4.058,45.09-.451" transform="translate(-805.92 -432.163)" fill="#1b1b43"/>
        <path id="Path_11769" data-name="Path 11769" d="M1087.56,815.939s-16.683,3.156-19.389,12.625h23.672l4.509-3.156Z" transform="translate(-682.859 -521.611)" fill="#ffbc96"/>
        <path id="Path_11770" data-name="Path 11770" d="M1183.469,699.064l-21.643,33.592-39.9,8.567,4.284,12.625,33.458-.171c8.984-.175,16.67-4.872,21.665-12.341l18.6-26.716Z" transform="translate(-717.22 -446.895)" fill="#1b1b43"/>
        <path id="Path_11771" data-name="Path 11771" d="M1121.849,730.987l-.189-.881,39.659-8.514c1.057-2.982,2.106-6.07,3.121-9.06,4.166-12.261,8.1-23.843,12.982-30.169l.714.551c-4.788,6.208-8.7,17.72-12.842,29.909-1.043,3.071-2.122,6.247-3.21,9.308l-.084.237-.246.053Z" transform="translate(-717.053 -436.219)" fill="#5254cf"/>
        <path id="Path_11772" data-name="Path 11772" d="M1153.416,799.121c-9.28,0-18.915-.163-19.641-.176l.016-.9c.325.005,32.57.553,36.53-.328l.122-.027a30.059,30.059,0,0,0,21.242-17.916l4.47-10.871.834.343-4.47,10.872a30.961,30.961,0,0,1-21.88,18.453l-.121.027c-1.85.412-9.352.525-17.1.525" transform="translate(-724.798 -491.541)" fill="#5254cf"/>
        <path id="Path_11773" data-name="Path 11773" d="M1387.739,1106.061H1394l-18-104.04h-6.26Z" transform="translate(-875.644 -640.569)" fill="#b0b0d2"/>
        <path id="Path_11774" data-name="Path 11774" d="M1261,1106.061h-6.26l18-104.04H1279Z" transform="translate(-802.127 -640.569)" fill="#b0b0d2"/>
        <g id="Group_6442" data-name="Group 6442" transform="translate(467.491 361.452)" opacity="0.3">
          <g id="Group_6441" data-name="Group 6441">
            <g id="Group_6440" data-name="Group 6440" clip-path="url(#clip-path-17)">
              <path id="Path_11775" data-name="Path 11775" d="M1305.358,1002.021,1302.247,1020h-6.259l3.111-17.982Z" transform="translate(-1295.989 -1002.021)" fill="#1b1b43"/>
            </g>
          </g>
        </g>
        <g id="Group_6445" data-name="Group 6445" transform="translate(494.084 361.452)" opacity="0.3">
          <g id="Group_6444" data-name="Group 6444">
            <g id="Group_6443" data-name="Group 6443" clip-path="url(#clip-path-18)">
              <path id="Path_11776" data-name="Path 11776" d="M1379.083,1020h-6.259l-3.111-17.982h6.259Z" transform="translate(-1369.712 -1002.021)" fill="#1b1b43"/>
            </g>
          </g>
        </g>
        <path id="Path_11777" data-name="Path 11777" d="M1261.646,1000.444h58.566v-8.567h-58.566a4.284,4.284,0,1,0,0,8.567" transform="translate(-803.805 -634.084)" fill="#cbcbff"/>
        <path id="Path_11778" data-name="Path 11778" d="M1408.679,884.874h8.267l27.922-68.444a3.871,3.871,0,1,0-7.17-2.92Z" transform="translate(-900.538 -518.514)" fill="#cbcbff"/>
        <rect id="Rectangle_3445" data-name="Rectangle 3445" width="574.42" height="0.902" transform="translate(0 464.957)" fill="#1b1b43"/>
      </g>
    </g>
  </g>
</svg>
