<svg version="1.1"
    xmlns="http://www.w3.org/2000/svg"
    xmlns:xlink="http://www.w3.org/1999/xlink" viewBox="0 0 156 34">
    <path fill="#0072bc" d="M52.33.39c3.32,0,5.52.74,7,2.15,1.59,1.54,2.2,4,2.2,7.15v.57c0,1.9-.3,3.52-1.58,4.8a5.83,5.83,0,0,1-1.54,1.12,6.39,6.39,0,0,1,1.49,1.17,7.39,7.39,0,0,1,1.6,4.51l0,.54c0,.18,0,.35,0,.52v.5h0c0,3.6-.56,6.31-2.24,8-1.4,1.45-3.6,2.2-6.92,2.2H42.71V.39ZM72,.39V33.66H65.38V.39Zm10.93,0V14.68L89.25.39h6.64L89.25,14.22,97,33.66h-7.1L85.09,21.51,82.94,26v7.67H76.31V.39ZM115,.39v6h-8.69v7.52h7.47v6h-7.47v7.81H115v6H99.67V.39ZM51.44,19.08h-2.1v8.6h2.1c2.67,0,3.41-1.27,3.41-4.3S54,19.08,51.44,19.08ZM51.35,6.37h-2v7.1h2c2.62,0,3.5-1.07,3.5-3.55S54,6.37,51.35,6.37Z"/>
    <path id="Bike" data-name="Shape" fill="#fcb913" d="M127.26,0A8.09,8.09,0,0,1,133,1.93a8.13,8.13,0,0,1,2.47,6.26,14.92,14.92,0,0,1-1.82,7L126.1,28.05h9.34v5.61H119.37V28.33l8.55-15A11.24,11.24,0,0,0,129.18,8c0-1.55-.79-2.34-1.92-2.34s-2,.75-2,2.29v2H119V8.14c0-2.89.8-4.58,2.29-6A8.63,8.63,0,0,1,127.26,0Zm25,.38-8.17,22.8h3v-4h6.26v4h2.3V28.8h-2.3v4.86h-6.26V28.8h-9.48V23.19l8.6-22.8Z"/>
    <path id="24" data-name="Shape" fill="#0072bc" d="M26.57,22.38A6.84,6.84,0,0,1,30.83,22a6.73,6.73,0,0,0,2.68-.06l.33-.09v7.41A4.75,4.75,0,0,1,29.34,34H4.71A4.76,4.76,0,0,1,0,29.46v-.94a7,7,0,0,0,2.38.32,6.94,6.94,0,0,0,3.55-1.16,7,7,0,0,1,7.65-.79,7,7,0,0,0,10.3-2.47A6.79,6.79,0,0,1,26.57,22.38ZM2.09,19.82A2.05,2.05,0,1,1,.12,22,2,2,0,0,1,2.09,19.82Zm15.48-.64a2.05,2.05,0,1,1-2,2.13A2.06,2.06,0,0,1,17.57,19.18Zm13.58-5.93a2,2,0,1,1-1.09,2.69A2,2,0,0,1,31.15,13.25ZM29.13.06a4.75,4.75,0,0,1,4.71,4.53v3.9a6.95,6.95,0,0,0-7.57,2.81A6.91,6.91,0,0,1,23,14.11a6.78,6.78,0,0,1-3.5.5,7,7,0,0,0-2.11-.24,6.2,6.2,0,0,0-.62.06l-.44.07h0A6.81,6.81,0,0,0,13.19,16a6.89,6.89,0,0,1-7.74-.13A7,7,0,0,0,1.82,15a7.77,7.77,0,0,0-1.47.22L0,15.34V4.81A4.76,4.76,0,0,1,4.5.06H29.13Z"/>
</svg>
