<svg xmlns="http://www.w3.org/2000/svg" width="103" height="103" viewBox="0 0 103 103">
  <g id="expansion-team" transform="translate(-325 -4280)">
    <circle id="Ellipse_340" data-name="Ellipse 340" cx="51.5" cy="51.5" r="51.5" transform="translate(325 4280)" fill="#fff"/>
    <g id="Group_7555" data-name="Group 7555" transform="translate(13062.828 21824.811)">
      <path id="Path_12471" data-name="Path 12471" d="M246.645,197.573H231.587a1.007,1.007,0,0,1-.9-1.453l7.527-15.231a1.049,1.049,0,0,1,1.805,0l7.532,15.231a1.007,1.007,0,0,1-.9,1.453Zm-13.439-2.014h11.817l-5.91-11.951Z" transform="translate(-12932.954 -17693.053)" fill="#005fff"/>
      <path id="Path_12472" data-name="Path 12472" d="M173.371,323.554H151.007a1.007,1.007,0,0,1-.9-1.453l10.14-20.51a1.007,1.007,0,0,1,.9-.56H176.21a1.006,1.006,0,0,1,.9.561l3.645,7.381a1.006,1.006,0,0,1,0,.891l-6.485,13.13a1.007,1.007,0,0,1-.9.56Zm-20.743-2.014h20.117l5.987-12.122-3.148-6.374H161.772Z" transform="translate(-12862.517 -17798.523)" fill="#005fff"/>
      <path id="Path_12473" data-name="Path 12473" d="M388.826,271.913h-14.46a1.007,1.007,0,0,1-.9-1.452l7.23-14.632a1.007,1.007,0,0,1,1.805,0l7.229,14.631a1.007,1.007,0,0,1-.9,1.453Zm-12.84-2.014h11.219L381.6,258.547Z" transform="translate(-13057.764 -17758.521)" fill="#ffd565"/>
      <path id="Path_12474" data-name="Path 12474" d="M354.655,385.157H328.687a1.007,1.007,0,0,1-.9-1.453l5.75-11.64a1.007,1.007,0,0,1,.9-.56H348.9a1.008,1.008,0,0,1,.9.56l5.76,11.64a1.007,1.007,0,0,1-.9,1.453Zm-24.349-2.014h22.726l-4.764-9.626H335.061Z" transform="translate(-13017.833 -17860.127)" fill="#005fff"/>
      <path id="Path_12475" data-name="Path 12475" d="M291.387,94.62a1.007,1.007,0,0,1-1.007-1.007V81.027a1.007,1.007,0,1,1,2.014,0V93.614A1.007,1.007,0,0,1,291.387,94.62Z" transform="translate(-12985.228 -17605.33)" fill="#005fff"/>
      <path id="Path_12476" data-name="Path 12476" d="M294.132,95.066a5.372,5.372,0,0,1-3.361-1.171,1,1,0,0,1-.4-.8V84.779a1.006,1.006,0,0,1,1.617-.8c1.736,1.323,3.516.644,5.579-.141,2.291-.873,4.888-1.862,7.516.14a1.008,1.008,0,0,1-.253,1.743,7.135,7.135,0,0,0-2.588,2.176,23.09,23.09,0,0,1,3.128,4.74,1.007,1.007,0,0,1-1.507,1.259c-1.738-1.324-3.518-.645-5.578.14a11.9,11.9,0,0,1-4.155,1.031Zm-1.744-2.5c1.611.951,3.277.318,5.182-.408a10.708,10.708,0,0,1,4.611-1.012,18.493,18.493,0,0,0-1.993-2.514,1,1,0,0,1-.063-1.311,15.584,15.584,0,0,1,2.256-2.42,7.76,7.76,0,0,0-4.094.824c-1.82.694-3.832,1.459-5.9.743Z" transform="translate(-12985.224 -17607.768)" fill="#005fff"/>
    </g>
  </g>
</svg>
