<svg xmlns="http://www.w3.org/2000/svg" width="80" height="80" viewBox="0 0 80 80">
  <g id="Affiliate-Marketer" transform="translate(-204 -8034)">
    <circle id="Ellipse_367" data-name="Ellipse 367" cx="40" cy="40" r="40" transform="translate(204 8034)" fill="#34d4b3"/>
    <g id="Link_Building" data-name="Link Building" transform="translate(221.646 8056.393)">
      <g id="Group_2202" data-name="Group 2202" transform="translate(0 0)">
        <g id="Group_2201" data-name="Group 2201" transform="translate(0 0)">
          <g id="Group_2190" data-name="Group 2190" transform="translate(0 29.493)">
            <g id="Group_2189" data-name="Group 2189">
              <g id="Group_2188" data-name="Group 2188">
                <path id="Path_5446" data-name="Path 5446" d="M48.157,54.7H16.3A6.055,6.055,0,0,1,10,48.473a.889.889,0,0,1,.889-.889H53.572a.889.889,0,0,1,.889.889,5.574,5.574,0,0,1-1.9,4.688A6.858,6.858,0,0,1,48.157,54.7Zm-36.31-5.335A4.241,4.241,0,0,0,16.3,52.919H48.157A5.076,5.076,0,0,0,51.419,51.8a3.375,3.375,0,0,0,1.215-2.434Z" transform="translate(-10 -47.583)" fill="#fff"/>
              </g>
            </g>
          </g>
          <g id="Group_2192" data-name="Group 2192" transform="translate(1.992 0)">
            <g id="Group_2191" data-name="Group 2191">
              <path id="Path_5447" data-name="Path 5447" d="M51.7,45.688H13.129a.889.889,0,0,1-.889-.889V15.306a.889.889,0,0,1,.889-.889H51.7a.889.889,0,0,1,.889.889V44.8A.889.889,0,0,1,51.7,45.688ZM14.018,43.91h36.8V16.195h-36.8Z" transform="translate(-12.24 -14.417)" fill="#fff"/>
            </g>
          </g>
          <g id="Group_2200" data-name="Group 2200" transform="translate(12.264 5.733)">
            <g id="Group_2197" data-name="Group 2197">
              <g id="Group_2194" data-name="Group 2194" transform="translate(0 9.206)">
                <g id="Group_2193" data-name="Group 2193">
                  <path id="Path_5448" data-name="Path 5448" d="M27.827,41.816h0a4.032,4.032,0,0,1-2.852-6.885L27.51,32.4a4.039,4.039,0,0,1,5.7,0h0a4.03,4.03,0,0,1,0,5.7l-2.535,2.534A4,4,0,0,1,27.827,41.816Zm2.534-8.822a2.248,2.248,0,0,0-1.594.659l-2.534,2.535a2.255,2.255,0,0,0,1.595,3.85h0a2.236,2.236,0,0,0,1.593-.661l2.535-2.534a2.254,2.254,0,0,0-1.594-3.849Z" transform="translate(-23.792 -31.217)" fill="#fff"/>
                </g>
              </g>
              <g id="Group_2196" data-name="Group 2196" transform="translate(9.204)">
                <g id="Group_2195" data-name="Group 2195">
                  <path id="Path_5449" data-name="Path 5449" d="M38.178,31.465a4.032,4.032,0,0,1-2.852-6.885l2.534-2.534a4.032,4.032,0,0,1,5.7,0h0a4.029,4.029,0,0,1,0,5.7l-2.535,2.534A4.005,4.005,0,0,1,38.178,31.465Zm2.534-8.823a2.24,2.24,0,0,0-1.595.661l-2.534,2.534a2.251,2.251,0,0,0,0,3.189,2.307,2.307,0,0,0,3.189,0l2.534-2.534a2.251,2.251,0,0,0,0-3.189h0A2.24,2.24,0,0,0,40.712,22.642Z" transform="translate(-34.143 -20.864)" fill="#fff"/>
                </g>
              </g>
            </g>
            <g id="Group_2199" data-name="Group 2199" transform="translate(6.515 6.514)">
              <g id="Group_2198" data-name="Group 2198">
                <path id="Path_5450" data-name="Path 5450" d="M32.008,34.969a.889.889,0,0,1-.629-1.518l5-5a.889.889,0,0,1,1.257,1.257l-5,5A.887.887,0,0,1,32.008,34.969Z" transform="translate(-31.119 -28.189)" fill="#fff"/>
              </g>
            </g>
          </g>
        </g>
      </g>
    </g>
  </g>
</svg>
