<svg xmlns="http://www.w3.org/2000/svg" width="80" height="80" viewBox="0 0 80 80">
  <g id="Blogger" transform="translate(-1279 -7779)">
    <circle id="Ellipse_368" data-name="Ellipse 368" cx="40" cy="40" r="40" transform="translate(1279 7779)" fill="#4232a8"/>
    <g id="Technical_SEO" data-name="Technical SEO" transform="translate(1293.202 7798.74)">
      <g id="Group_2206" data-name="Group 2206" transform="translate(0 0)">
        <path id="Path_5452" data-name="Path 5452" d="M15.334,970.362a1.22,1.22,0,0,0-1.068,1.177v22.018L6.2,1006.212a1.242,1.242,0,0,0,.994,1.821H56.686a1.242,1.242,0,0,0,.994-1.821l-8.064-12.655V971.539a1.224,1.224,0,0,0-1.178-1.177h-33.1Zm1.289,2.354H47.259v20.013H16.622Zm8.12,2.925a1.22,1.22,0,0,0-1.049,1.2v10.595H21.814a1.179,1.179,0,1,0,.11,2.354H41.957a1.177,1.177,0,1,0,0-2.354H40.189v-5.886a1.179,1.179,0,1,0-2.357,0v5.886H33.119v-8.241a1.179,1.179,0,1,0-2.357,0v8.241H26.049v-10.6a1.23,1.23,0,0,0-1.307-1.2Zm-8.654,19.443H47.793l6.757,10.595H9.331Zm11.618,6.475a1.179,1.179,0,1,0,.11,2.354h8.248a1.177,1.177,0,1,0,0-2.354H27.706Z" transform="translate(-6.042 -970.362)" fill="#fff"/>
      </g>
    </g>
  </g>
</svg>
