<svg xmlns="http://www.w3.org/2000/svg" width="80" height="80" viewBox="0 0 80 80">
  <g id="Agency-Owners" transform="translate(-204 -7779)">
    <circle id="Ellipse_366" data-name="Ellipse 366" cx="40" cy="40" r="40" transform="translate(204 7779)" fill="#005fff"/>
    <g id="Government" transform="translate(220.879 7797.693)">
      <path id="Path_5490" data-name="Path 5490" d="M27.083,12a.96.96,0,0,0-.465.15L8.851,23.165a.96.96,0,0,0-.45.825v2.416a.96.96,0,0,0,.96.96h2.881V40.811H9.361q-.045,0-.09,0a.96.96,0,0,0-.585.285l-2.4,2.4A.96.96,0,0,0,6,44.172v3.361a.96.96,0,0,0,.96.96H47.3a.96.96,0,0,0,.96-.96V44.172a.96.96,0,0,0-.285-.675l-2.4-2.4a.96.96,0,0,0-.675-.285H42.014V27.366h2.881a.96.96,0,0,0,.96-.96V23.99a.96.96,0,0,0-.45-.825L27.638,12.151A.96.96,0,0,0,27.083,12Zm.045,2.086L43.934,24.515v.93H10.322v-.93ZM14.163,27.366h7.2V40.811h-7.2Zm9.123,0h7.683V40.811H23.287Zm9.6,0h7.2V40.811h-7.2ZM9.751,42.732H44.5l1.831,1.831v2.011H7.921V44.563l1.831-1.831Z" transform="translate(-6 -12)" fill="#fff"/>
    </g>
  </g>
</svg>
