<svg xmlns="http://www.w3.org/2000/svg" width="80" height="80" viewBox="0 0 80 80">
  <g id="SEO-Manager" transform="translate(-1279 -8034)">
    <circle id="Ellipse_365" data-name="Ellipse 365" cx="40" cy="40" r="40" transform="translate(1279 8034)" fill="#ff5800"/>
    <g id="Organic_SEO" data-name="Organic SEO" transform="translate(1299.529 8052.988)">
      <g id="Group_2204" data-name="Group 2204" transform="translate(0 0)">
        <path id="Path_5451" data-name="Path 5451" d="M20.924,1.038a1.052,1.052,0,0,0,.983,1.039l3.97.631L2.634,15.841a1.089,1.089,0,0,0-.5,1.484,1.086,1.086,0,0,0,1.521.334L26.823,4.581,26.267,8.05a1.055,1.055,0,1,0,2.078.334l.965-6.2A1.109,1.109,0,0,0,28.437.964L22.223,0c-.723-.019-1.28.334-1.3,1.039ZM32.462,8.384A1.15,1.15,0,0,0,31.4,9.423V35.615a1.092,1.092,0,0,0,1.057,1.039h5.231a1.075,1.075,0,0,0,1.039-1.039V9.423a1.075,1.075,0,0,0-1.039-1.039Zm1.039,2.1h3.153V34.558H33.5Zm-11.519,2.1a1.148,1.148,0,0,0-1.039,1.039v22a1.088,1.088,0,0,0,1.039,1.039h5.25a1.088,1.088,0,0,0,1.039-1.039v-22a1.088,1.088,0,0,0-1.039-1.039Zm1.057,2.1h3.135V34.558H23.039Zm-11.519,2.1a1.15,1.15,0,0,0-1.057,1.039V35.615a1.092,1.092,0,0,0,1.057,1.039h5.231a1.092,1.092,0,0,0,1.057-1.039V17.807a1.078,1.078,0,0,0-1.057-1.039Zm1.039,2.078h3.153V34.558H12.558Zm-11.519,2.1A1.15,1.15,0,0,0,0,22V35.615a1.088,1.088,0,0,0,1.039,1.039h5.25a1.088,1.088,0,0,0,1.039-1.039V22a1.092,1.092,0,0,0-1.039-1.057Zm1.057,2.1H5.231V34.558H2.1Z" transform="translate(0 0.001)" fill="#fff"/>
      </g>
    </g>
  </g>
</svg>
