<svg xmlns="http://www.w3.org/2000/svg" width="80" height="80" viewBox="0 0 80 80">
  <g id="CPA-Marketing" transform="translate(-718 -8034)">
    <circle id="Ellipse_364" data-name="Ellipse 364" cx="40" cy="40" r="40" transform="translate(718 8034)" fill="#0c3986"/>
    <g id="CPA_Marketing" data-name="CPA Marketing" transform="translate(735.726 8052.533)">
      <g id="Group_2209" data-name="Group 2209" transform="translate(0 0)">
        <path id="Path_5453" data-name="Path 5453" d="M7.4,959.346a.494.494,0,0,0-.4.54l.987,8.889a.494.494,0,0,0,.849.293l2.129-2.13,5.57,5.108a.5.5,0,0,0,.139.092,14.283,14.283,0,0,0,0,16.884.489.489,0,0,0-.139.077l-5.57,5.108-2.129-2.13a.494.494,0,0,0-.849.293L7,1001.262a.494.494,0,0,0,.555.54l8.887-.988a.494.494,0,0,0,.293-.833l-2.1-2.1,5.539-5.093a.5.5,0,0,0,.154-.278,14.279,14.279,0,0,0,15.8.015.5.5,0,0,0,.154.262l5.539,5.093-2.1,2.1a.494.494,0,0,0,.293.833l8.887.988a.494.494,0,0,0,.555-.54l-.987-8.89a.494.494,0,0,0-.849-.293l-2.129,2.13-5.57-5.108a.5.5,0,0,0-.139-.077,14.283,14.283,0,0,0,0-16.884.494.494,0,0,0,.139-.093l5.57-5.108,2.129,2.13a.494.494,0,0,0,.849-.293l.987-8.889a.494.494,0,0,0-.555-.54l-8.887.988a.494.494,0,0,0-.293.833l2.1,2.1-5.539,5.093a.5.5,0,0,0-.154.293,14.279,14.279,0,0,0-15.8-.016.5.5,0,0,0-.154-.278l-5.539-5.093,2.1-2.1a.494.494,0,0,0-.293-.833l-8.887-.988a.5.5,0,0,0-.154,0Zm.648,1.034,7.252.818-1.744,1.744a.494.494,0,0,0,.015.71l5.925,5.432a.5.5,0,0,0,.108.077,14.4,14.4,0,0,0-2.345,2.222.481.481,0,0,0-.046-.062l-5.925-5.433a.494.494,0,0,0-.694.015l-1.728,1.728-.818-7.254Zm40.363,0-.818,7.254L45.863,965.9a.494.494,0,0,0-.694-.015l-5.925,5.433a.489.489,0,0,0-.046.062,14.417,14.417,0,0,0-2.33-2.222.49.49,0,0,0,.093-.077l5.925-5.432a.494.494,0,0,0,.015-.71L41.157,961.2l7.252-.818Zm-20.181,6.868a13.326,13.326,0,0,1,9.335,22.841c-.363-4.091-3.216-8-7.051-9.152a4.444,4.444,0,1,0-4.567,0c-3.836,1.149-6.688,5.061-7.051,9.152a13.326,13.326,0,0,1,9.335-22.841Zm0,6.42a3.457,3.457,0,1,1-3.456,3.457A3.449,3.449,0,0,1,28.227,973.668Zm0,7.9c.164,0,.332,0,.494.015a.5.5,0,0,0,.015.108l1.481,5.432a.5.5,0,0,0,.062.139L28.227,989.7l-2.052-2.438a.5.5,0,0,0,.062-.139l1.481-5.432a.5.5,0,0,0,.015-.108c.162-.012.33-.015.494-.015Zm-1.558.185-1.25,4.615-2.253-2.655-.015-.015a8.038,8.038,0,0,1,3.518-1.945Zm3.117,0a8.045,8.045,0,0,1,3.518,1.929l-.015.031-2.253,2.655-1.25-4.615Zm-7.329,2.624,5.4,6.389a.494.494,0,0,0,.741,0l5.4-6.389a10.046,10.046,0,0,1,2.623,6.575,13.37,13.37,0,0,1-16.787,0A10.046,10.046,0,0,1,22.457,984.378Zm-5.2,5.4A14.416,14.416,0,0,0,19.587,992a.493.493,0,0,0-.093.062L13.57,997.5a.494.494,0,0,0-.015.71L15.3,999.95l-7.252.818.818-7.254,1.728,1.728a.494.494,0,0,0,.694.015l5.925-5.433a.5.5,0,0,0,.046-.046Zm21.94,0a.491.491,0,0,0,.046.046l5.925,5.433a.494.494,0,0,0,.694-.015l1.728-1.729.818,7.253-7.252-.818,1.743-1.744a.494.494,0,0,0-.015-.71l-5.925-5.432a.5.5,0,0,0-.108-.062A14.406,14.406,0,0,0,39.2,989.78Z" transform="translate(-6.994 -959.34)" fill="#fff" stroke="#fff" stroke-width="1"/>
      </g>
    </g>
  </g>
</svg>
