<svg xmlns="http://www.w3.org/2000/svg" width="80" height="80" viewBox="0 0 80 80">
  <g id="Website-Owners" transform="translate(-718 -7779)">
    <circle id="Ellipse_363" data-name="Ellipse 363" cx="40" cy="40" r="40" transform="translate(718 7779)" fill="#ffba00"/>
    <g id="Group_6355" data-name="Group 6355" transform="translate(730 7792.748)">
      <path id="Path_6632" data-name="Path 6632" d="M29.637,2H29.57A27.654,27.654,0,1,0,49.257,49.155h0A27.5,27.5,0,0,0,57.3,29.636v-.063A27.67,27.67,0,0,0,29.637,2ZM46.389,29.607a16.729,16.729,0,0,1-16.48,16.775c-.071,0-.141.011-.212.011a16.736,16.736,0,0,1-.227-33.471c.045,0,.089-.007.134-.007h.048A16.754,16.754,0,0,1,46.389,29.607ZM29.575,3.728A25.933,25.933,0,0,1,47.309,10.68l-5.265,5.294A18.5,18.5,0,0,0,29.6,11.186h0c-.057,0-.113.008-.17.009a18.347,18.347,0,0,0-12.243,4.841l-5.287-5.259A25.655,25.655,0,0,1,29.575,3.728ZM10.677,12l5.288,5.258a18.466,18.466,0,0,0,.075,24.861l-5.265,5.293A25.914,25.914,0,0,1,10.677,12ZM29.668,55.579A25.733,25.733,0,0,1,12,48.636l5.267-5.3a18.443,18.443,0,0,0,24.852-.068l5.294,5.267A25.822,25.822,0,0,1,29.668,55.579ZM55.576,29.636a25.771,25.771,0,0,1-6.944,17.676l-5.294-5.266a18.442,18.442,0,0,0-.07-24.852L48.534,11.9a25.711,25.711,0,0,1,7.041,17.678Z" transform="translate(-2.005 -2)" fill="#fff"/>
      <path id="Path_6633" data-name="Path 6633" d="M25.006,32.053H21.945a1.73,1.73,0,0,0-1.728,1.728v7.086A1.73,1.73,0,0,0,21.945,42.6h3.061a1.73,1.73,0,0,0,1.728-1.728V33.782A1.73,1.73,0,0,0,25.006,32.053Zm0,8.815H21.945V33.782h3.061Z" transform="translate(-4.478 -6.082)" fill="#fff"/>
      <path id="Path_6634" data-name="Path 6634" d="M30.229,22.907V39.391a1.73,1.73,0,0,0,1.728,1.728h3.061a1.73,1.73,0,0,0,1.728-1.728V22.907a1.73,1.73,0,0,0-1.728-1.728H31.957A1.73,1.73,0,0,0,30.229,22.907Zm4.789,16.484H31.957V22.907h3.061Z" transform="translate(-5.838 -4.605)" fill="#fff"/>
      <path id="Path_6635" data-name="Path 6635" d="M41.97,41.91h3.061a1.73,1.73,0,0,0,1.728-1.728V28.732A1.73,1.73,0,0,0,45.031,27H41.97a1.73,1.73,0,0,0-1.728,1.728v11.45A1.73,1.73,0,0,0,41.97,41.91Zm0-13.179h3.061V40.182H41.97Z" transform="translate(-7.198 -5.396)" fill="#fff"/>
    </g>
  </g>
</svg>
