<svg xmlns="http://www.w3.org/2000/svg" xmlns:xlink="http://www.w3.org/1999/xlink" viewBox="0 0 256.1 97.06"><defs><style>.cls-1{fill:url(#New_Gradient_Swatch_6);}.cls-2{fill:url(#New_Gradient_Swatch_6-2);}.cls-3{fill:#113b51;}.cls-4{fill:gray;}.cls-5{fill:url(#New_Gradient_Swatch_6-3);}</style><linearGradient id="New_Gradient_Swatch_6" y1="36.11" x2="72.23" y2="36.11" gradientUnits="userSpaceOnUse"><stop offset="0" stop-color="#00732f"/><stop offset="1" stop-color="#7bc46a"/></linearGradient><linearGradient id="New_Gradient_Swatch_6-2" x1="22.5" y1="35.63" x2="71.28" y2="35.63" xlink:href="#New_Gradient_Swatch_6"/><linearGradient id="New_Gradient_Swatch_6-3" x1="241.96" y1="8.29" x2="256.1" y2="8.29" xlink:href="#New_Gradient_Swatch_6"/></defs><g id="Layer_2" data-name="Layer 2"><g id="Layer_1-2" data-name="Layer 1"><path class="cls-1" d="M48.61,54.85A22.52,22.52,0,1,1,57.8,42.18H71.71a36.83,36.83,0,0,0,.52-6.07,36.16,36.16,0,1,0-8.9,23.72l-8.82-5.2A5.52,5.52,0,0,0,48.61,54.85Z"/><path class="cls-2" d="M35.6,29.08H59A12.26,12.26,0,0,1,71.28,41.35v.83a0,0,0,0,1,0,0H22.5a0,0,0,0,1,0,0v0A13.09,13.09,0,0,1,35.6,29.08Z"/><path class="cls-3" d="M79.23,50.35l12.22-7.08c2.21,5.13,6,8.59,13,8.59,6.73,0,8.41-2.66,8.41-5,0-3.81-3.54-5.31-12.83-7.88s-18.24-7-18.24-18.86S91.89,1.22,102.6,1.22c10.18,0,18.15,4.87,22.67,14l-12,7c-2.12-4.43-5-7.17-10.71-7.17C98.18,15,96,17.24,96,19.72c0,2.83,1.51,4.78,11.16,7.7C116.5,30.25,127,33.53,127,46.63c0,11.95-9.56,19-23,19C91,65.67,82.68,59.47,79.23,50.35Z"/><path class="cls-3" d="M172.63,50.79V64.43H133.68v-62h38.51V16.09H147.84V26.36H170V39.82H147.84v11Z"/><path class="cls-3" d="M177.51,33.44a32.23,32.23,0,0,1,64.45,0,32.23,32.23,0,1,1-64.45,0Zm50.28,0c0-11.06-8-18.41-18.06-18.41s-18.06,7.35-18.06,18.41,8,18.42,18.06,18.42S227.79,44.51,227.79,33.44Z"/><path class="cls-4" d="M18.26,94l2.45-1.42a2.59,2.59,0,0,0,2.6,1.72c1.35,0,1.68-.54,1.68-1,0-.77-.71-1.07-2.57-1.58s-3.65-1.4-3.65-3.77a3.88,3.88,0,0,1,4.17-3.78A4.8,4.8,0,0,1,27.47,87l-2.39,1.4a2.17,2.17,0,0,0-2.14-1.43c-.89,0-1.33.44-1.33.94s.3.95,2.23,1.54,4,1.22,4,3.84c0,2.39-1.92,3.81-4.61,3.81S19,95.82,18.26,94Z"/><path class="cls-4" d="M44.56,90.61A6.45,6.45,0,1,1,51,97.06,6.4,6.4,0,0,1,44.56,90.61Zm10.06,0A3.62,3.62,0,1,0,51,94.3,3.52,3.52,0,0,0,54.62,90.61Z"/><path class="cls-4" d="M82.25,94.08v2.73H75V84.41h2.84v9.67Z"/><path class="cls-4" d="M99.15,92.81v-8.4H102v8.15c0,.94.44,1.74,2,1.74s2-.8,2-1.74V84.41h2.83v8.4c0,2.65-2,4.25-4.78,4.25S99.15,95.46,99.15,92.81Z"/><path class="cls-4" d="M135,87.14h-3.19v9.67H129V87.14h-3.18V84.41H135Z"/><path class="cls-4" d="M155,84.41v12.4h-2.84V84.41Z"/><path class="cls-4" d="M172.56,90.61A6.45,6.45,0,1,1,179,97.06,6.39,6.39,0,0,1,172.56,90.61Zm10.06,0A3.62,3.62,0,1,0,179,94.3,3.53,3.53,0,0,0,182.62,90.61Z"/><path class="cls-4" d="M212.72,84.41v12.4H210.6l-4.79-6.73v6.73H203V84.41h2.13l4.78,6.73V84.41Z"/><path class="cls-4" d="M230,94l2.44-1.42A2.59,2.59,0,0,0,235,94.3c1.35,0,1.69-.54,1.69-1,0-.77-.71-1.07-2.57-1.58s-3.65-1.4-3.65-3.77a3.88,3.88,0,0,1,4.16-3.78A4.83,4.83,0,0,1,239.2,87l-2.39,1.4a2.18,2.18,0,0,0-2.15-1.43c-.88,0-1.33.44-1.33.94s.3.95,2.24,1.54,4,1.22,4,3.84c0,2.39-1.91,3.81-4.6,3.81S230.68,95.82,230,94Z"/><circle class="cls-5" cx="249.03" cy="8.29" r="7.07"/></g></g></svg>