<svg xmlns="http://www.w3.org/2000/svg" width="103" height="103" viewBox="0 0 103 103">
  <g id="move-gurugram" transform="translate(-711 -4591)">
    <circle id="Ellipse_338" data-name="Ellipse 338" cx="51.5" cy="51.5" r="51.5" transform="translate(711 4591)" fill="#fff"/>
    <g id="Group_7556" data-name="Group 7556" transform="translate(10444.379 22031.137)">
      <path id="Path_12477" data-name="Path 12477" d="M113.838,12.277V2.62H84.285v9.657H72.63V55.482h52.862V12.277ZM84.285,54.234H73.878V13.525H84.285Zm10.74,0V43.911h7.992V54.234Zm17.565,0h-8.242V42.663H93.776V54.234H85.534V3.868H112.59Zm11.655,0H113.838V13.525h10.407Z" transform="translate(-9780.171 -17417.688)" fill="#005fff"/>
      <path id="Path_12478" data-name="Path 12478" d="M245.88,58.123h8.075V51.63H245.88Zm1.249-5.245h5.578v4h-5.578Z" transform="translate(-9936.938 -17462.035)" fill="#005fff"/>
      <path id="Path_12479" data-name="Path 12479" d="M369.25,58.123h8.075V51.63H369.25Zm1.249-5.245h5.578v4H370.5Z" transform="translate(-10048.57 -17462.035)" fill="#005fff"/>
      <path id="Path_12480" data-name="Path 12480" d="M245.88,164.072h8.075v-6.577H245.88Zm1.249-5.328h5.578v4h-5.578Z" transform="translate(-9936.938 -17557.828)" fill="#ffd565"/>
      <path id="Path_12481" data-name="Path 12481" d="M369.25,164.072h8.075v-6.577H369.25Zm1.249-5.328h5.578v4H370.5Z" transform="translate(-10048.57 -17557.828)" fill="#ffd565"/>
      <path id="Path_12482" data-name="Path 12482" d="M245.88,270.743h8.075V264.25H245.88Zm1.249-5.245h5.578v4h-5.578Z" transform="translate(-9936.938 -17654.428)" fill="#ffd565"/>
      <path id="Path_12483" data-name="Path 12483" d="M369.25,270.743h8.075V264.25H369.25ZM370.5,265.5h5.578v4H370.5Z" transform="translate(-10048.57 -17654.428)" fill="#ffd565"/>
      <path id="Path_12484" data-name="Path 12484" d="M114.494,152.25H108.5v5.911h5.911V152.25Zm-1.249,4.662h-3.5V153.5h3.413v3.413Z" transform="translate(-9812.628 -17553.082)" fill="#005fff"/>
      <path id="Path_12485" data-name="Path 12485" d="M114.494,248.5H108.5v5.911h5.911V248.5Zm-1.249,4.745h-3.5v-3.413h3.413v3.413Z" transform="translate(-9812.628 -17640.176)" fill="#005fff"/>
      <path id="Path_12486" data-name="Path 12486" d="M114.494,345.62H108.5v5.911h5.911V345.62Zm-1.249,4.662h-3.5v-3.413h3.413v3.413Z" transform="translate(-9812.628 -17728.055)" fill="#005fff"/>
      <path id="Path_12487" data-name="Path 12487" d="M535.286,152.25h-5.911v5.911h5.911Zm-1.249,4.662h-3.413V153.5h3.413Z" transform="translate(-10193.461 -17553.082)" fill="#005fff"/>
      <path id="Path_12488" data-name="Path 12488" d="M535.286,248.5h-5.911v5.911h5.911Zm-1.249,4.745h-3.413v-3.413h3.413Z" transform="translate(-10193.461 -17640.176)" fill="#005fff"/>
      <path id="Path_12489" data-name="Path 12489" d="M535.286,345.62h-5.911v5.911h5.911Zm-1.249,4.662h-3.413v-3.413h3.413Z" transform="translate(-10193.461 -17728.055)" fill="#005fff"/>
    </g>
  </g>
</svg>
