<svg xmlns="http://www.w3.org/2000/svg" width="103" height="103" viewBox="0 0 103 103">
  <g id="new-benchmarks" transform="translate(-1045 -4280)">
    <circle id="Ellipse_341" data-name="Ellipse 341" cx="51.5" cy="51.5" r="51.5" transform="translate(1045 4280)" fill="#fff"/>
    <g id="Group_7554" data-name="Group 7554" transform="translate(10694.972 21432.982)">
      <circle id="Ellipse_342" data-name="Ellipse 342" cx="8.5" cy="8.5" r="8.5" transform="translate(-9608.972 -17109.982)" fill="#ffd565"/>
      <g id="Group_7553" data-name="Group 7553" transform="translate(-9627.934 -17128.916)">
        <path id="Path_12470" data-name="Path 12470" d="M169.048,55.646a1.029,1.029,0,0,0-.226-1.606L165.4,52.126a5.568,5.568,0,0,0-3.788-.618,5.727,5.727,0,0,0-.618-3.8l-1.946-3.439a1.033,1.033,0,0,0-1.626-.226l-2.9,2.934a27.795,27.795,0,1,0,11.6,11.591Zm-4.653-1.75,2.234,1.256-2.738,2.739a3.645,3.645,0,0,1-4.344.6l-2.234-1.256,2.769-2.738a3.635,3.635,0,0,1,4.314-.6ZM141.212,71.891a2.769,2.769,0,0,0,3.9,0l3.49-3.439a7.659,7.659,0,0,1,.679,3.088,7.772,7.772,0,1,1-4.591-7.052l-3.49,3.49a2.769,2.769,0,0,0,.011,3.912Zm5-8.925a9.685,9.685,0,0,0-4.663-1.215,9.79,9.79,0,1,0,9.79,9.79,9.685,9.685,0,0,0-1.215-4.663l5.044-5.054h0a16.759,16.759,0,1,1-3.9-3.9Zm-2.553,7.463a.69.69,0,0,1-1.029,0,.7.7,0,0,1,0-1.029l11.88-11.818.216.391a.97.97,0,0,0,.391.37l.391.216ZM157.94,46.464,159.2,48.7h0a3.644,3.644,0,0,1-.6,4.314L155.86,55.78,154.6,53.546a3.645,3.645,0,0,1,.6-4.344ZM141.551,97.277a25.736,25.736,0,1,1,11.54-48.723,5.682,5.682,0,0,0-.278,6l.648,1.163-.731.731a18.838,18.838,0,1,0,3.91,3.91l.731-.731,1.163.659h0a5.684,5.684,0,0,0,6-.288A25.735,25.735,0,0,1,141.55,97.275Z" transform="translate(-113.758 -43.745)" fill="#005fff"/>
      </g>
    </g>
  </g>
</svg>
