<svg xmlns="http://www.w3.org/2000/svg" width="52.035" height="50.317" viewBox="0 0 52.035 50.317">
  <g id="healthcare-icon" transform="translate(-1.75 -2.75)">
    <path id="Path_5468" data-name="Path 5468" d="M52.676,21.9H51.621A24.783,24.783,0,0,0,27.768,3,24.783,24.783,0,0,0,3.915,21.9H2.859A.859.859,0,0,0,2,22.755V27.05a25.768,25.768,0,0,0,51.535,0V22.755A.859.859,0,0,0,52.676,21.9ZM27.768,4.718A23.053,23.053,0,0,1,49.847,21.9H5.688A23.053,23.053,0,0,1,27.768,4.718ZM51.817,27.05a24.05,24.05,0,0,1-48.1,0V23.614h48.1Z" fill="#fff" stroke="#fff" stroke-width="0.5"/>
    <path id="Path_5469" data-name="Path 5469" d="M39.037,36.154H34.743V31.859A.859.859,0,0,0,33.884,31H27.012a.859.859,0,0,0-.859.859v4.295H21.859a.858.858,0,0,0-.859.859v6.871a.858.858,0,0,0,.859.859h4.295v4.295a.858.858,0,0,0,.859.859h6.871a.858.858,0,0,0,.859-.859V44.743h4.295a.858.858,0,0,0,.859-.859V37.012A.858.858,0,0,0,39.037,36.154Zm-.859,6.871H33.884a.858.858,0,0,0-.859.859v4.295H27.871V43.884a.858.858,0,0,0-.859-.859H22.718V37.871h4.295a.858.858,0,0,0,.859-.859V32.718h5.154v4.295a.858.858,0,0,0,.859.859h4.295Z" transform="translate(-2.681 -3.95)" fill="#fff" stroke="#fff" stroke-width="0.5"/>
  </g>
</svg>
