<svg xmlns="http://www.w3.org/2000/svg" width="103" height="103" viewBox="0 0 103 103">
  <g id="_21-century" data-name="21-century" transform="translate(-81 -4591)">
    <circle id="Ellipse_337" data-name="Ellipse 337" cx="51.5" cy="51.5" r="51.5" transform="translate(81 4591)" fill="#fff"/>
    <g id="Group_7547" data-name="Group 7547" transform="translate(9361.296 21326.479)">
      <path id="Path_12463" data-name="Path 12463" d="M441.427,108.759a.627.627,0,0,0,.445-1.066L431.556,97.2a.625.625,0,0,0-.89.878l10.316,10.491a.594.594,0,0,0,.445.195Z" transform="translate(-9656.352 -16800.686)" fill="#005fff" stroke="#005fff" stroke-width="1"/>
      <path id="Path_12464" data-name="Path 12464" d="M164.729,315.318a.626.626,0,0,0-.32-1.21c-7.237,1.9-8.2,11.05-8.133,16.33A1.275,1.275,0,0,0,157.5,331.7c.307.013.721.025,1.216.025a29.111,29.111,0,0,0,7.638-.953c4.609-1.3,7.343-3.907,7.92-7.532a.621.621,0,0,0-.521-.715.629.629,0,0,0-.715.521c-1.2,7.588-13.113,7.5-15.508,7.381-.138-10.886,3.838-14.223,7.2-15.107Z" transform="translate(-9412.845 -16993.455)" fill="#005fff" stroke="#005fff" stroke-width="1"/>
      <path id="Path_12465" data-name="Path 12465" d="M142.454,87.785a20.307,20.307,0,0,1,6.8,1.668.664.664,0,0,0,.263.056.628.628,0,0,0,.264-1.2,22.387,22.387,0,0,0-7.237-1.812,26.126,26.126,0,0,1,15.928-7.28,46.886,46.886,0,0,0-7.067,13.125,1.265,1.265,0,0,0,.314,1.3l9.111,9.111a.625.625,0,1,0,.884-.884l-9.124-9.13c.953-2.9,10.034-28.188,34.321-23.6.746,3,2.972,15.752-9.846,26.381a.529.529,0,0,0-.113.094,50.114,50.114,0,0,1-13.746,7.763.625.625,0,0,0-.884.884,1.278,1.278,0,0,0,.9.376,1.385,1.385,0,0,0,.47-.088A52.743,52.743,0,0,0,176.594,97.5c-1.273,8.88-5.707,13.822-7.663,15.571a49.2,49.2,0,0,0-1.712-8.052.625.625,0,0,0-1.2.357,48.337,48.337,0,0,1,1.668,7.845,1.273,1.273,0,0,0,.821,1.047,1.217,1.217,0,0,0,.445.081,1.248,1.248,0,0,0,.853-.332c2.12-1.944,7.13-7.538,8.19-17.633a29.882,29.882,0,0,0,9.168-12.735,26.287,26.287,0,0,0,.966-14.8,1.283,1.283,0,0,0-1-.947c-13.1-2.464-21.948,3.367-27.567,9.983a27.515,27.515,0,0,0-17.91,7.745,1.268,1.268,0,0,0,.8,2.157Z" transform="translate(-9399.531 -16774.324)" fill="#005fff" stroke="#005fff" stroke-width="1"/>
      <path id="Path_12466" data-name="Path 12466" d="M334.6,183.765a6.48,6.48,0,0,0,6.472,6.472.627.627,0,0,0,0-1.255,5.218,5.218,0,1,1,5.218-5.218,5.16,5.16,0,0,1-1.53,3.688.625.625,0,0,0,.884.884,6.469,6.469,0,1,0-11.043-4.571Z" transform="translate(-9571.203 -16871.979)" fill="#ffd565" stroke="#ffd565" stroke-width="1"/>
    </g>
  </g>
</svg>
